<?xml version="1.0" standalone="no"?>
<!DOCTYPE svg PUBLIC "-//W3C//DTD SVG 1.1//EN" "http://www.w3.org/Graphics/SVG/1.1/DTD/svg11.dtd" >
<svg xmlns="http://www.w3.org/2000/svg" xmlns:xlink="http://www.w3.org/1999/xlink" version="1.1">
<metadata>
Created by FontForge 20201107 at Sat Sep 14 20:52:53 2024
 By Thomas
(c) 2013-2024 by Thomas Richter (thomas-richter@aon.at)
</metadata>
<defs>
<font id="Ekmelos" horiz-adv-x="500" >
  <font-face 
    font-family="Ekmelos"
    font-weight="500"
    font-stretch="normal"
    units-per-em="1000"
    panose-1="2 0 5 3 0 0 0 0 0 0"
    ascent="800"
    descent="-200"
    x-height="160"
    cap-height="253"
    bbox="-414 -2017 4008 20008"
    underline-thickness="50"
    underline-position="-100"
    unicode-range="U+0020-1FAAB"
  />
    <missing-glyph />
    <glyph glyph-name="space" unicode=" " horiz-adv-x="250" 
 />
    <glyph glyph-name="exclam" unicode="!" horiz-adv-x="76" 
d="M7 -221c0 17 14 31 31 31s31 -14 31 -31s-14 -31 -31 -31s-31 14 -31 31zM0 232c0 16 19 20 38 20s38 -4 38 -20l-11 -357c0 -15 -12 -27 -27 -27s-27 12 -27 27z" />
    <glyph glyph-name="quotedbl" unicode="&#x22;" horiz-adv-x="162" 
d="M162 56v-112c0 -14 -14 -25 -27 -25s-27 11 -27 25v112c0 14 14 25 27 25s27 -11 27 -25zM54 56v-112c0 -14 -14 -25 -27 -25s-27 11 -27 25v112c-0 14 14 25 27 25s27 -11 27 -25z" />
    <glyph glyph-name="numbersign" unicode="#" horiz-adv-x="305" 
d="M74 -71v142h-50c-17 0 -24 8 -24 18c0 2 1 7 2 10l12 42c2 7 8 12 17 12h43v112c0 8 8 16 18 16s19 -8 19 -16v-112h83v112c0 8 9 16 19 16s18 -8 18 -16v-112h50c17 0 24 -9 24 -19c0 -2 -1 -7 -2 -10l-12 -42c-2 -7 -8 -11 -17 -11h-43v-142h50c17 0 24 -9 24 -19
c0 -2 -1 -7 -2 -10l-12 -42c-2 -7 -8 -11 -17 -11h-43v-112c0 -8 -8 -16 -18 -16s-19 8 -19 16v112h-83v-112c0 -8 -9 -16 -19 -16s-18 8 -18 16v112h-50c-17 0 -24 9 -24 19c0 2 1 7 2 10l12 42c2 7 8 11 17 11h43zM111 -71h83v142h-83v-142z" />
    <glyph glyph-name="dollar" unicode="$" horiz-adv-x="240" 
d="M97 -25c-78 0 -97 59 -97 140s34 138 97 138v12c0 8 8 16 18 16s19 -8 19 -16v-12c61 0 96 -40 96 -60c0 -15 -7 -27 -23 -27c-12 0 -16 2 -27 16c-10 12 -16 19 -46 19v-176c78 0 106 -59 106 -140s-44 -138 -106 -138v-12c0 -8 -9 -16 -19 -16s-18 8 -18 16v12
c-61 0 -96 40 -96 60c0 15 7 27 23 27c12 0 16 -2 27 -16c10 -12 16 -19 46 -19v176zM97 201c-33 0 -41 -38 -41 -86s8 -90 41 -90v176zM134 -201c37 0 50 38 50 86s-13 90 -50 90v-176z" />
    <glyph glyph-name="percent" unicode="%" horiz-adv-x="496" 
d="M61 -227c0 6 1 10 4 14l320 447c3 5 14 19 27 19c14 0 24 -9 24 -26c0 -6 -1 -10 -4 -14l-320 -447c-3 -5 -14 -19 -27 -19c-14 0 -24 9 -24 26zM240 133c0 -49 -30 -120 -120 -120s-120 71 -120 120s30 120 120 120s120 -71 120 -120zM120 69c41 0 64 27 64 64
c0 35 -21 64 -64 64s-64 -29 -64 -64c0 -37 23 -64 64 -64zM496 -133c0 -49 -30 -120 -120 -120s-120 71 -120 120s30 120 120 120s120 -71 120 -120zM376 -197c41 0 64 27 64 64c0 35 -21 64 -64 64s-64 -29 -64 -64c0 -37 23 -64 64 -64z" />
    <glyph glyph-name="ampersand" unicode="&#x26;" horiz-adv-x="400" 
d="M289 -84l69 -96c7 -9 21 -27 21 -42c0 -16 -9 -31 -25 -31c-15 0 -24 10 -30 18l-69 102c-10 -13 -52 -120 -135 -120c-100 0 -120 85 -120 154c0 88 30 123 66 144c-36 26 -46 45 -46 98c0 49 25 100 100 100s100 -51 100 -100c0 -53 -10 -72 -46 -98
c36 -21 42 -36 46 -41l38 -54l20 25c26 32 35 49 78 49c29 0 44 -8 44 -24c0 -14 -13 -24 -44 -24c-26 0 -38 -22 -67 -60zM120 73c31 0 54 25 54 62c0 35 -21 62 -54 62c-31 0 -54 -27 -54 -62c0 -37 23 -62 54 -62zM56 -99c0 -40 11 -101 64 -101c28 0 42 12 45 17l58 85
l-58 81c-3 4 -13 17 -45 17c-51 0 -64 -57 -64 -99z" />
    <glyph glyph-name="quotesingle" unicode="'" horiz-adv-x="54" 
d="M54 56v-112c0 -14 -14 -25 -27 -25s-27 11 -27 25v112c-0 14 14 25 27 25s27 -11 27 -25z" />
    <glyph glyph-name="parenleft" unicode="(" horiz-adv-x="113" 
d="M55 0c0 -82 6 -173 55 -243c2 -2 3 -5 3 -7c0 -7 -6 -13 -13 -13c-4 0 -7 2 -10 6c-53 76 -90 164 -90 257s37 181 90 257c3 4 6 6 10 6c7 0 13 -6 13 -13c0 -2 -1 -5 -3 -7c-49 -70 -55 -161 -55 -243z" />
    <glyph glyph-name="parenright" unicode=")" horiz-adv-x="113" 
d="M58 0c0 82 -6 173 -55 243c-2 2 -3 5 -3 7c0 7 6 13 13 13c4 0 7 -2 10 -6c53 -76 90 -164 90 -257s-37 -181 -90 -257c-3 -4 -6 -6 -10 -6c-7 0 -13 6 -13 13c0 2 1 5 3 7c49 70 55 161 55 243z" />
    <glyph glyph-name="asterisk" unicode="*" horiz-adv-x="340" 
d="M0 -40c0 23 17 40 40 40h61l-30 53c-4 7 -5 14 -5 21c0 20 17 39 40 39c14 0 27 -7 34 -20l30 -53l30 53c7 13 20 20 34 20c24 0 40 -20 40 -39c0 -7 -1 -14 -5 -21l-30 -53h61c22 0 40 -17 40 -40s-18 -40 -40 -40h-61l30 -53c4 -7 5 -14 5 -21c0 -19 -16 -39 -40 -39
c-14 0 -27 7 -34 20l-30 53l-30 -53c-7 -13 -20 -20 -34 -20c-23 0 -40 19 -40 39c0 7 1 14 5 21l30 53h-61c-23 0 -40 17 -40 40z" />
    <glyph glyph-name="plus" unicode="+" horiz-adv-x="340" 
d="M0 -40c0 23 17 40 40 40h90v90c0 22 17 40 40 40s40 -18 40 -40v-90h90c22 0 40 -17 40 -40s-18 -40 -40 -40h-90v-90c0 -23 -17 -40 -40 -40s-40 17 -40 40v90h-90c-23 0 -40 17 -40 40z" />
    <glyph glyph-name="comma" unicode="," horiz-adv-x="115" 
d="M57 -264c-3 -6 -7 -8 -12 -8c-8 0 -16 6 -16 14c0 2 1 4 2 6c17 37 35 73 35 101c0 18 -7 32 -28 39c-23 8 -38 30 -38 54c0 32 25 58 57 58s58 -26 58 -58c0 -72 -27 -141 -58 -206z" />
    <glyph glyph-name="hyphen" unicode="-" horiz-adv-x="340" 
d="M0 -40c0 23 17 40 40 40h260c22 0 40 -17 40 -40s-18 -40 -40 -40h-260c-23 0 -40 17 -40 40z" />
    <glyph glyph-name="period" unicode="." horiz-adv-x="115" 
d="M0 -58c0 32 25 58 57 58s58 -26 58 -58s-26 -57 -58 -57s-57 25 -57 57z" />
    <glyph glyph-name="slash" unicode="/" horiz-adv-x="216" 
d="M190 252c16 0 26 -13 26 -27c0 -3 0 -6 -1 -9l-163 -450c-4 -11 -15 -18 -26 -18c-16 0 -26 14 -26 27c0 3 1 6 2 9l163 450c4 11 14 18 25 18z" />
    <glyph glyph-name="zero" unicode="0" horiz-adv-x="230" 
d="M230 0c0 -200 -35 -253 -115 -253c-81 0 -115 53 -115 253s34 253 115 253c80 0 115 -53 115 -253zM186 0c0 160 -11 200 -71 200c-61 0 -71 -40 -71 -200s10 -200 71 -200c60 0 71 40 71 200z" />
    <glyph glyph-name="one" unicode="1" horiz-adv-x="185" 
d="M0 122c0 16 10 24 29 29c37 10 87 43 101 80c5 13 13 22 29 22s26 -6 26 -22v-466c0 -14 -10 -18 -26 -18s-26 4 -26 18v366c-30 -17 -72 -36 -104 -36c-16 0 -29 11 -29 27z" />
    <glyph glyph-name="two" unicode="2" horiz-adv-x="240" 
d="M120 253c90 0 120 -44 120 -100c0 -54 -7 -78 -30 -103l-100 -107c-33 -35 -54 -51 -54 -102c0 -31 10 -41 34 -41h150v-53h-240c0 147 3 164 33 196l100 107c28 30 51 49 51 103c0 26 -21 47 -64 47c-44 0 -64 -24 -64 -47c0 -18 -15 -30 -29 -30s-27 11 -27 30
c0 49 30 100 120 100z" />
    <glyph glyph-name="three" unicode="3" horiz-adv-x="240" 
d="M189 0c35 -19 51 -45 51 -133c0 -67 -30 -120 -120 -120s-120 51 -120 100c0 19 13 30 27 30c15 0 29 -10 29 -30s20 -47 64 -47c48 0 64 36 64 77c0 48 -13 89 -61 89c-29 0 -48 10 -48 34s19 34 48 34c48 0 61 41 61 89c0 41 -16 77 -64 77c-44 0 -64 -27 -64 -47
s-14 -30 -29 -30c-14 0 -27 11 -27 30c0 49 30 100 120 100s120 -53 120 -120c0 -88 -16 -112 -51 -133z" />
    <glyph glyph-name="four" unicode="4" horiz-adv-x="260" 
d="M0 -56c0 12 5 22 12 31l215 273c4 4 10 5 14 5c15 0 19 -13 19 -32v-461c0 -8 -11 -13 -24 -13s-24 5 -24 13v150h-178c-23 0 -34 11 -34 34zM212 -20v115c0 14 -1 21 -11 21c-13 0 -111 -136 -111 -136h122z" />
    <glyph glyph-name="five" unicode="5" horiz-adv-x="240" 
d="M0 0v15v238h230v-53h-139c-24 0 -35 -10 -35 -41v-109c22 15 38 20 64 20c94 0 120 -66 120 -164c0 -102 -29 -159 -120 -159c-90 0 -120 51 -120 100c0 19 13 30 27 30c15 0 29 -10 29 -30s20 -47 64 -47s63 25 63 106c0 80 -20 104 -63 104c-45 0 -64 -42 -93 -42
c-14 0 -27 11 -27 32z" />
    <glyph glyph-name="six" unicode="6" horiz-adv-x="240" 
d="M0 -153v286c0 67 30 120 120 120s120 -51 120 -100c0 -19 -13 -30 -27 -30c-15 0 -29 10 -29 30s-20 47 -64 47c-48 0 -64 -37 -64 -77v-94c22 15 38 21 64 21c94 0 120 -64 120 -156c0 -95 -30 -147 -120 -147s-120 51 -120 100zM56 -59v-87c0 -25 20 -54 64 -54
c43 0 64 22 64 94c0 71 -21 96 -64 96c-44 0 -64 -25 -64 -49z" />
    <glyph glyph-name="seven" unicode="7" horiz-adv-x="250" 
d="M0 222c0 16 5 26 21 26h202c14 0 27 -8 27 -29c0 -12 -1 -26 -15 -51c0 0 -145 -234 -145 -403c0 -14 -10 -18 -26 -18s-26 4 -26 18c0 186 153 431 153 431h-170c-16 0 -21 10 -21 26z" />
    <glyph glyph-name="eight" unicode="8" horiz-adv-x="240" 
d="M56 0c-31 27 -56 45 -56 131c0 49 30 122 120 122s120 -73 120 -122c0 -86 -25 -104 -56 -131c31 -25 56 -45 56 -131c0 -49 -30 -122 -120 -122s-120 73 -120 122c0 86 25 106 56 131zM120 -30c-25 0 -64 -41 -64 -93c0 -40 16 -77 64 -77s64 37 64 77
c0 52 -39 93 -64 93zM120 30c25 0 64 41 64 93c0 40 -16 77 -64 77s-64 -37 -64 -77c0 -52 39 -93 64 -93z" />
    <glyph glyph-name="nine" unicode="9" horiz-adv-x="240" 
d="M0 -153c0 19 13 30 27 30c15 0 29 -10 29 -30s20 -47 64 -47c48 0 64 37 64 77v84c-22 -15 -38 -21 -64 -21c-94 0 -120 69 -120 161c0 95 30 152 120 152s120 -51 120 -100v-286c0 -67 -30 -120 -120 -120s-120 51 -120 100zM120 0c44 0 64 25 64 49v97
c0 25 -20 54 -64 54c-43 0 -64 -27 -64 -99c0 -71 21 -101 64 -101z" />
    <glyph glyph-name="colon" unicode=":" horiz-adv-x="92" 
d="M0 -83c0 26 19 46 45 46s47 -20 47 -46s-21 -46 -47 -46s-45 20 -45 46zM0 83c0 26 19 46 45 46s47 -20 47 -46s-21 -46 -47 -46s-45 20 -45 46z" />
    <glyph glyph-name="semicolon" unicode=";" horiz-adv-x="92" 
d="M45 -248c-2 -5 -5 -7 -9 -7c-6 0 -13 5 -13 11c0 2 0 3 1 5c14 30 28 59 28 81c0 14 -5 25 -22 31c-18 6 -30 24 -30 43c0 26 19 47 45 47s47 -21 47 -47c0 -58 -22 -112 -47 -164zM0 83c0 26 19 46 45 46s47 -20 47 -46s-21 -46 -47 -46s-45 20 -45 46z" />
    <glyph glyph-name="less" unicode="&#x3c;" horiz-adv-x="240" 
d="M0 0c0 4 2 8 5 11l212 185c2 2 5 4 8 4c6 0 15 -16 15 -30c0 -41 -150 -134 -150 -170s150 -129 150 -170c0 -14 -9 -30 -15 -30c-3 0 -6 2 -8 4l-212 185c-3 3 -5 7 -5 11z" />
    <glyph glyph-name="equal" unicode="=" horiz-adv-x="260" 
d="M27 37c-15 0 -27 12 -27 27s12 27 27 27h207c14 0 26 -12 26 -27s-12 -27 -26 -27h-207zM27 -91c-15 0 -27 12 -27 27s12 27 27 27h207c14 0 26 -12 26 -27s-12 -27 -26 -27h-207z" />
    <glyph glyph-name="greater" unicode="&#x3e;" horiz-adv-x="240" 
d="M0 170c0 14 9 30 15 30c3 0 6 -2 8 -4l212 -185c3 -3 5 -7 5 -11s-2 -8 -5 -11l-212 -185c-2 -2 -5 -4 -8 -4c-6 0 -15 16 -15 30c0 41 150 134 150 170s-150 129 -150 170z" />
    <glyph glyph-name="question" unicode="?" horiz-adv-x="240" 
d="M89 -221c0 17 14 31 31 31s31 -14 31 -31s-14 -31 -31 -31s-31 14 -31 31zM0 140c0 55 34 112 120 112s120 -57 120 -112s-47 -108 -69 -140s-23 -79 -23 -124c0 -15 -13 -28 -28 -28s-28 13 -28 28c0 65 10 119 32 151s60 68 60 113c0 32 -22 58 -64 58s-64 -26 -64 -58
c0 -18 -13 -30 -28 -30s-28 12 -28 30z" />
    <glyph glyph-name="at" unicode="@" horiz-adv-x="504" 
d="M252 -70c47 0 70 37 70 70c0 31 -27 70 -70 70c-44 0 -70 -44 -70 -70c0 -35 30 -70 70 -70zM471 -107c-18 -19 -39 -27 -74 -27c-34 0 -60 17 -75 44c-29 -27 -41 -34 -70 -34c-68 0 -124 60 -124 124c0 53 46 124 124 124c64 0 124 -56 124 -124v-66
c0 -21 20 -33 37 -33c16 0 39 12 51 29c9 13 15 40 15 70c0 125 -102 228 -227 228s-227 -103 -227 -228s102 -228 227 -228c138 0 145 -1 145 -13s-7 -12 -145 -12c-139 0 -252 114 -252 253s113 253 252 253s252 -114 252 -253c0 -66 -16 -89 -33 -107z" />
    <glyph glyph-name="A" unicode="A" horiz-adv-x="307" 
d="M280 -253c-14 0 -28 7 -31 19l-51 184h-90l-50 -184c-3 -12 -17 -19 -31 -19c-18 0 -27 16 -27 30c0 4 2 9 3 13l121 444c3 12 16 19 29 19s26 -7 29 -19l122 -444c1 -4 3 -9 3 -13c0 -14 -9 -30 -27 -30zM185 -0l-32 115l-31 -115h63z" />
    <glyph glyph-name="B" unicode="B" horiz-adv-x="240" 
d="M0 228c0 14 14 25 27 25h95c54 0 118 -33 118 -145c0 -56 -18 -89 -43 -108c25 -19 43 -52 43 -108c0 -112 -64 -145 -118 -145h-95c-13 0 -27 11 -27 25v456zM54 53c0 -24 25 -25 52 -25c34 0 70 17 70 80c0 62 -18 94 -70 94c-23 0 -52 -1 -52 -25v-124zM54 -54v-122
c0 -24 29 -26 52 -26c52 0 70 32 70 94c0 63 -36 80 -70 80c-27 0 -52 -2 -52 -26z" />
    <glyph glyph-name="C" unicode="C" horiz-adv-x="240" 
d="M0 152c0 69 54 101 118 101s122 -30 122 -98c0 -32 -5 -42 -21 -42c-17 0 -19 9 -30 40c-6 18 -27 48 -71 48c-43 0 -64 -25 -64 -61v-280c0 -36 21 -61 64 -61c44 0 65 30 71 48c11 31 13 40 30 40c16 0 21 -10 21 -42c0 -68 -58 -98 -122 -98s-118 32 -118 101v304z
" />
    <glyph glyph-name="D" unicode="D" horiz-adv-x="240" 
d="M240 -108c0 -112 -64 -145 -118 -145h-95c-13 0 -27 11 -27 25v456c0 14 14 25 27 25h95c54 0 118 -33 118 -145v-216zM54 -177c0 -24 29 -25 52 -25c52 0 70 32 70 94v216c0 62 -18 94 -70 94c-23 0 -52 -1 -52 -25v-354z" />
    <glyph glyph-name="E" unicode="E" horiz-adv-x="240" 
d="M0 228c0 14 14 25 27 25h105c77 0 108 -50 108 -76c0 -15 -7 -27 -23 -27c-12 0 -16 2 -27 16c-10 12 -15 36 -79 36c-29 0 -57 -19 -57 -50v-75c0 -31 25 -49 52 -49h61c5 -8 8 -19 8 -28s-3 -20 -8 -28h-61c-27 0 -52 -18 -52 -49v-75c0 -31 28 -50 57 -50
c64 0 69 24 79 36c11 14 15 16 27 16c16 0 23 -12 23 -27c0 -26 -31 -76 -108 -76h-105c-13 0 -27 11 -27 25v456z" />
    <glyph glyph-name="F" unicode="F" horiz-adv-x="240" 
d="M0 229c0 14 14 25 27 25h105c77 0 108 -50 108 -76c0 -15 -7 -27 -23 -27c-12 0 -16 2 -27 16c-10 12 -15 36 -79 36c-29 0 -57 -19 -57 -50v-76c0 -31 25 -49 52 -49h61c5 -8 8 -19 8 -28s-3 -20 -8 -28h-61c-27 0 -52 -18 -52 -49v-168c-8 -5 -18 -8 -27 -8
s-19 3 -27 8v474z" />
    <glyph glyph-name="G" unicode="G" horiz-adv-x="240" 
d="M0 152c0 69 54 101 118 101s122 -30 122 -98c0 -32 -5 -42 -21 -42c-17 0 -19 9 -30 40c-6 18 -27 48 -71 48c-43 0 -64 -25 -64 -61v-280c0 -36 21 -61 64 -61c45 0 62 31 62 93c0 70 -14 80 -74 80c-5 8 -8 19 -8 28s3 18 8 26h107c13 0 27 -12 27 -26v-108
c0 -112 -75 -145 -122 -145c-64 0 -118 32 -118 101v304z" />
    <glyph glyph-name="H" unicode="H" horiz-adv-x="240" 
d="M54 -245c-8 -5 -18 -8 -27 -8s-19 3 -27 8v490c8 5 18 8 27 8s19 -3 27 -8v-168c0 -31 25 -49 52 -49h28c27 0 52 18 52 49v168c8 5 18 8 27 8s19 -3 27 -8v-490c-8 -5 -18 -8 -27 -8s-19 3 -27 8v168c0 31 -25 49 -52 49h-28c-27 0 -52 -18 -52 -49v-168z" />
    <glyph glyph-name="I" unicode="I" horiz-adv-x="54" 
d="M27 -253c-9 0 -19 3 -27 8v490c8 5 18 8 27 8s19 -3 27 -8v-490c-8 -5 -18 -8 -27 -8z" />
    <glyph glyph-name="J" unicode="J" horiz-adv-x="240" 
d="M186 152c0 31 -29 50 -52 50h-126c-5 8 -8 17 -8 26s3 17 8 25h205c13 0 27 -11 27 -25v-380c0 -69 -54 -101 -118 -101s-122 30 -122 98c0 32 5 42 21 42c17 0 19 -9 30 -40c6 -18 27 -48 71 -48c43 0 64 25 64 61v292z" />
    <glyph glyph-name="K" unicode="K" horiz-adv-x="240" 
d="M191 243c5 6 13 10 21 10c16 0 28 -13 28 -28c0 -5 -1 -9 -4 -13c-50 -70 -100 -141 -149 -212c50 -70 99 -141 149 -212c3 -4 4 -8 4 -13c0 -15 -12 -28 -28 -28c-8 0 -16 4 -21 10c-46 65 -91 129 -137 194v-196c-8 -5 -18 -8 -27 -8s-19 3 -27 8v490c8 5 18 8 27 8
s19 -3 27 -8v-196c46 65 91 129 137 194z" />
    <glyph glyph-name="L" unicode="L" horiz-adv-x="240" 
d="M54 -152c0 -31 29 -50 52 -50h126c5 -8 8 -17 8 -26s-3 -17 -8 -25h-205c-13 0 -27 11 -27 25v473c8 5 18 8 27 8s19 -3 27 -8v-397z" />
    <glyph glyph-name="M" unicode="M" horiz-adv-x="376" 
d="M188 0l130 234c6 11 18 19 29 19c16 0 29 -13 29 -30v-449c0 -15 -12 -27 -27 -27c-14 0 -26 12 -26 27v346l-106 -192c-6 -11 -17 -19 -29 -19s-23 8 -29 19l-106 192v-346c0 -15 -12 -27 -26 -27c-15 0 -27 12 -27 27v449c0 17 13 30 29 30c11 0 23 -8 29 -19z" />
    <glyph glyph-name="N" unicode="N" horiz-adv-x="307" 
d="M278 -253c-12 0 -23 8 -29 19l-196 354v-346c0 -15 -12 -27 -26 -27c-15 0 -27 12 -27 27v449c0 17 13 30 29 30c11 0 23 -8 29 -19l196 -354v346c0 15 12 27 27 27c14 0 26 -12 26 -27v-449c0 -17 -13 -30 -29 -30z" />
    <glyph glyph-name="O" unicode="O" horiz-adv-x="240" 
d="M120 201c-45 0 -66 -10 -66 -51v-300c0 -41 21 -51 66 -51s66 10 66 51v300c0 41 -21 51 -66 51zM93 -253c-57 0 -93 34 -93 70v366c0 36 36 70 93 70h54c57 0 93 -34 93 -70v-366c0 -36 -36 -70 -93 -70h-54z" />
    <glyph glyph-name="P" unicode="P" horiz-adv-x="240" 
d="M106 28c34 0 70 17 70 80c0 62 -18 94 -70 94c-23 0 -52 -19 -52 -50v-75c0 -31 25 -49 52 -49zM0 228c0 14 14 25 27 25h95c54 0 118 -28 118 -145c0 -112 -77 -136 -134 -136c-28 0 -52 -18 -52 -49v-168c-8 -5 -18 -8 -27 -8s-19 3 -27 8v473z" />
    <glyph glyph-name="Q" unicode="Q" horiz-adv-x="240" 
d="M93 -253c-57 0 -93 34 -93 70v366c0 36 36 70 93 70h54c57 0 93 -34 93 -70v-366c0 -9 -2 -18 -6 -26l2 -3c3 -4 4 -8 4 -13c0 -15 -12 -28 -28 -28c-7 0 -15 3 -20 8c-13 -5 -28 -8 -45 -8h-54zM120 201c-45 0 -66 -10 -66 -51v-300c0 -41 21 -51 66 -51c16 0 28 1 38 4
l-78 111c-3 4 -4 8 -4 13c0 15 12 28 28 28c8 0 16 -4 21 -10l61 -86v291c0 41 -21 51 -66 51z" />
    <glyph glyph-name="R" unicode="R" horiz-adv-x="240" 
d="M176 108c0 62 -18 94 -70 94c-23 0 -52 -19 -52 -50v-75c0 -31 25 -49 52 -49c34 0 70 17 70 80zM0 228c0 14 14 25 27 25h95c54 0 118 -28 118 -145c0 -111 -76 -136 -133 -136c43 -61 86 -122 129 -184c3 -4 4 -8 4 -13c0 -15 -12 -28 -28 -28c-8 0 -16 4 -21 10
c-44 63 -88 125 -132 188c-4 -7 -5 -14 -5 -22v-168c-8 -5 -18 -8 -27 -8s-19 3 -27 8v473z" />
    <glyph glyph-name="S" unicode="S" horiz-adv-x="240" 
d="M0 123c0 101 54 130 118 130c77 0 113 -39 113 -65c0 -15 -7 -27 -23 -27c-12 0 -16 2 -27 16c-10 12 -17 24 -63 24c-43 0 -62 -24 -62 -82c0 -70 27 -87 67 -87c87 0 117 -54 117 -150c0 -106 -63 -135 -127 -135c-77 0 -113 39 -113 65c0 15 7 27 23 27
c12 0 16 -2 27 -16c10 -12 17 -24 63 -24c43 0 71 25 71 87c0 74 -28 96 -68 96c-87 0 -116 50 -116 141z" />
    <glyph glyph-name="T" unicode="T" horiz-adv-x="376" 
d="M0 177c0 26 31 76 108 76h160c77 0 108 -50 108 -76c0 -15 -7 -27 -23 -27c-12 0 -16 2 -27 16c-10 12 -15 36 -79 36c-22 0 -32 -19 -32 -50v-397c-8 -5 -18 -8 -27 -8s-19 3 -27 8v397c0 31 -11 50 -32 50c-64 0 -69 -24 -79 -36c-11 -14 -15 -16 -27 -16
c-16 0 -23 12 -23 27z" />
    <glyph glyph-name="U" unicode="U" horiz-adv-x="307" 
d="M0 228c0 14 14 25 27 25s27 -11 27 -25v-373c0 -38 28 -56 99 -56s100 18 100 56v373c0 14 14 25 27 25s27 -11 27 -25v-397c0 -47 -51 -84 -121 -84h-66c-70 0 -120 37 -120 84v397z" />
    <glyph glyph-name="V" unicode="V" horiz-adv-x="307" 
d="M280 253c18 0 27 -16 27 -30c0 -4 -2 -9 -3 -13l-122 -444c-3 -12 -16 -19 -29 -19s-26 7 -29 19l-121 444c-1 4 -3 9 -3 13c0 14 9 30 27 30c14 0 28 -7 31 -19l95 -349l96 349c3 12 17 19 31 19z" />
    <glyph glyph-name="W" unicode="W" horiz-adv-x="376" 
d="M0 223c0 15 9 30 28 30c16 0 28 -8 31 -24l61 -344l68 206l67 -206l62 344c3 16 16 24 31 24c19 0 28 -15 28 -30c0 -4 -1 -9 -2 -13l-78 -444c-3 -12 -16 -19 -29 -19s-26 7 -29 19l-50 147l-51 -147c-3 -12 -16 -19 -29 -19s-26 7 -29 19l-77 444c-1 4 -2 9 -2 13z" />
    <glyph glyph-name="X" unicode="X" horiz-adv-x="307" 
d="M276 253c18 0 31 -16 31 -30c0 -4 -1 -9 -3 -13l-116 -210l116 -210c2 -4 3 -9 3 -13c0 -15 -13 -30 -31 -30c-11 0 -21 8 -27 19l-95 172l-96 -172c-6 -11 -16 -19 -27 -19c-18 0 -31 15 -31 30c0 4 1 9 3 13l116 210l-116 210c-2 4 -3 9 -3 13c0 14 13 30 31 30
c12 0 21 -8 27 -19l96 -172l95 172c6 11 15 19 27 19z" />
    <glyph glyph-name="Y" unicode="Y" horiz-adv-x="307" 
d="M183 -224c0 -15 -13 -29 -29 -29c-17 0 -30 14 -30 29v224l-121 210c-2 4 -3 9 -3 13c0 14 13 30 31 30c12 0 21 -8 27 -19l96 -172l95 172c6 11 15 19 27 19c18 0 31 -16 31 -30c0 -4 -1 -9 -3 -13l-121 -210v-224z" />
    <glyph glyph-name="Z" unicode="Z" horiz-adv-x="307" 
d="M36 180c-20 0 -36 17 -36 37s16 36 36 36h240c18 0 31 -16 31 -30c0 -4 -1 -9 -3 -13l-216 -390h182c20 0 37 -16 37 -36s-17 -37 -37 -37h-239c-18 0 -31 15 -31 30c0 4 1 9 3 13l216 390h-183z" />
    <glyph glyph-name="bracketleft" unicode="[" horiz-adv-x="105" 
d="M0 -238v476c-0 9 6 15 15 15h90c11 0 15 -6 15 -15c0 -12 -5 -35 -22 -35h-65v-406h65c17 0 22 -23 22 -35c0 -9 -4 -15 -15 -15h-90c-9 0 -15 6 -15 15z" />
    <glyph glyph-name="backslash" unicode="\" horiz-adv-x="216" 
d="M0 225c0 14 10 27 26 27c11 0 21 -7 25 -18l163 -450c1 -3 2 -6 2 -9c0 -13 -10 -27 -26 -27c-11 0 -22 7 -26 18l-163 450c-1 3 -1 6 -1 9z" />
    <glyph glyph-name="bracketright" unicode="]" horiz-adv-x="105" 
d="M72 -203v406h-65c-17 0 -22 23 -22 35c0 9 4 15 15 15h90c9 0 15 -6 15 -15v-476c0 -9 -6 -15 -15 -15h-90c-11 0 -15 6 -15 15c0 12 5 35 22 35h65z" />
    <glyph glyph-name="asciicircum" unicode="^" horiz-adv-x="348" 
d="M173 26c-54 0 -100 -119 -141 -119c-9 0 -32 12 -32 19c0 2 2 4 3 5c67 76 106 148 158 229c2 3 7 5 12 5s10 -2 12 -5c52 -81 93 -153 160 -229c1 -1 3 -3 3 -5c0 -7 -20 -19 -30 -19c-41 0 -90 119 -145 119z" />
    <glyph glyph-name="underscore" unicode="_" horiz-adv-x="330" 
d="M27 -153c-15 0 -27 12 -27 27s12 27 27 27h277c14 0 26 -12 26 -27s-12 -27 -26 -27h-277z" />
    <glyph glyph-name="grave" unicode="`" horiz-adv-x="162" 
d="M151 -13c7 -7 11 -17 11 -28c0 -22 -17 -40 -39 -40c-11 0 -21 5 -28 12l-83 82c-7 7 -12 17 -12 28c0 22 18 40 40 40c11 0 21 -5 28 -12z" />
    <glyph glyph-name="a" unicode="a" horiz-adv-x="240" 
d="M56 -73c0 -16 11 -27 43 -27c58 0 87 32 87 86l-99 -26c-22 -6 -31 -17 -31 -33zM0 -69c0 55 29 81 83 95l99 26c0 30 -26 48 -61 48c-40 0 -51 -11 -63 -23s-19 -27 -35 -27s-23 10 -23 34c0 48 61 84 115 84c67 0 125 -22 125 -168v-135c0 -14 -12 -25 -27 -25
s-27 15 -27 34c-15 -25 -51 -34 -85 -34c-75 0 -101 46 -101 91z" />
    <glyph glyph-name="b" unicode="b" horiz-adv-x="240" 
d="M0 -135v471c8 5 18 8 27 8s19 -3 27 -8v-206c15 25 40 38 78 38c51 0 108 -52 108 -168s-64 -160 -118 -160c-33 0 -53 9 -68 34c0 -19 -12 -34 -27 -34s-27 11 -27 25zM54 -38c0 -30 18 -60 52 -60c49 0 70 42 70 98c0 54 -24 98 -66 98c-38 0 -56 -30 -56 -60v-76z" />
    <glyph glyph-name="c" unicode="c" horiz-adv-x="240" 
d="M0 0c0 140 56 168 125 168c56 0 115 -35 115 -87c0 -25 -7 -34 -23 -34s-23 14 -35 26s-21 25 -63 25c-43 0 -65 -26 -65 -98s22 -90 65 -90c42 0 51 13 63 25s19 26 35 26s23 -9 23 -34c0 -52 -58 -87 -114 -87c-69 0 -126 20 -126 160z" />
    <glyph glyph-name="d" unicode="d" horiz-adv-x="240" 
d="M0 0c0 116 57 168 108 168c38 0 63 -13 78 -38v206c8 5 18 8 27 8s19 -3 27 -8v-471c0 -14 -12 -25 -27 -25s-27 15 -27 34c-15 -25 -35 -34 -68 -34c-54 0 -118 44 -118 160zM64 0c0 -56 21 -98 70 -98c34 0 52 30 52 60v76c0 30 -18 60 -56 60c-42 0 -66 -44 -66 -98z
" />
    <glyph glyph-name="e" unicode="e" horiz-adv-x="240" 
d="M0 0c0 135 66 168 130 168c61 0 110 -31 110 -99c0 -55 -29 -81 -83 -95l-98 -26c9 -34 29 -48 60 -48c38 0 53 13 65 25s17 25 33 25s23 -8 23 -33c0 -45 -58 -77 -114 -77c-64 0 -126 25 -126 160zM54 14l99 26c22 6 31 16 31 32s-11 28 -51 28s-79 -24 -79 -86z" />
    <glyph glyph-name="f" unicode="f" horiz-adv-x="240" 
d="M0 -152v336c0 135 62 160 126 160c56 0 114 -32 114 -77c0 -25 -7 -33 -23 -33s-21 13 -33 25s-27 25 -65 25c-34 0 -65 -28 -65 -74v-67l137 36c5 -5 12 -21 12 -37s-7 -32 -12 -37l-137 -36v-221c-8 -5 -18 -8 -27 -8s-19 3 -27 8z" />
    <glyph glyph-name="g" unicode="g" horiz-adv-x="240" 
d="M0 0c0 116 57 168 108 168c38 0 63 -13 78 -38v30c8 5 18 8 27 8s19 -3 27 -8v-299c0 -135 -60 -161 -126 -161c-50 0 -102 39 -102 80c0 22 7 31 23 31c15 0 21 -13 33 -25s22 -22 53 -22c34 0 65 25 65 71v39c-15 -25 -35 -34 -68 -34c-54 0 -118 44 -118 160zM64 0
c0 -56 21 -98 70 -98c34 0 52 30 52 60v76c0 30 -18 60 -56 60c-42 0 -66 -44 -66 -98z" />
    <glyph glyph-name="h" unicode="h" horiz-adv-x="240" 
d="M0 -135v471c8 5 18 8 27 8s19 -3 27 -8v-206c15 25 40 38 78 38c64 0 108 -52 108 -168v-135c0 -14 -12 -25 -27 -25s-27 15 -27 34v112c0 54 -16 112 -76 112c-38 0 -56 -40 -56 -70v-154c0 -19 -12 -34 -27 -34s-27 11 -27 25z" />
    <glyph glyph-name="i" unicode="i" horiz-adv-x="149" 
d="M0 104c0 16 7 33 12 38l83 22c7 2 18 4 27 4c13 0 27 -11 27 -25v-279c0 -14 -14 -25 -27 -25s-27 11 -27 25v224l-83 -22c-5 5 -12 22 -12 38zM39 279c0 30 25 55 55 55s55 -25 55 -55s-25 -55 -55 -55s-55 25 -55 55z" />
    <glyph glyph-name="j" unicode="j" horiz-adv-x="228" 
d="M0 -220c0 22 7 31 23 31c15 0 21 -13 33 -25s22 -22 53 -22c34 0 65 25 65 71v253l-83 -22c-5 5 -12 22 -12 38s7 33 12 38l83 22c7 2 18 4 27 4c13 0 27 -11 27 -25v-282c0 -135 -60 -161 -126 -161c-50 0 -102 39 -102 80zM118 279c0 30 25 55 55 55s55 -25 55 -55
s-25 -55 -55 -55s-55 25 -55 55z" />
    <glyph glyph-name="k" unicode="k" horiz-adv-x="240" 
d="M0 -135v471c8 5 18 8 27 8s19 -3 27 -8v-281l153 109c4 3 8 4 13 4c15 0 20 -11 20 -28c0 -16 -5 -32 -12 -37l-100 -70l108 -152c3 -4 4 -8 4 -13c0 -15 -12 -28 -28 -28c-8 0 -16 4 -21 10l-108 152l-29 -21v-116c0 -14 -14 -25 -27 -25s-27 11 -27 25z" />
    <glyph glyph-name="l" unicode="l" horiz-adv-x="149" 
d="M0 280c0 16 7 33 12 38l83 22c7 2 18 4 27 4c13 0 27 -11 27 -25v-455c0 -14 -14 -25 -27 -25s-27 11 -27 25v400l-83 -22c-5 5 -12 22 -12 38z" />
    <glyph glyph-name="m" unicode="m" horiz-adv-x="372" 
d="M0 -135v295c8 5 18 8 27 8s19 -3 27 -8v-30c15 25 37 38 75 38c30 0 54 -16 70 -55c21 34 42 55 89 55c58 0 84 -45 84 -168v-135c0 -14 -12 -25 -27 -25s-27 15 -27 34v112c0 54 -2 112 -50 112c-38 0 -55 -40 -55 -70v-163c0 -14 -12 -25 -27 -25s-27 15 -27 34v112
c0 54 -2 112 -50 112c-38 0 -55 -40 -55 -70v-154c0 -19 -12 -34 -27 -34s-27 11 -27 25z" />
    <glyph glyph-name="n" unicode="n" horiz-adv-x="240" 
d="M0 -135v295c8 5 18 8 27 8s19 -3 27 -8v-30c15 25 40 38 78 38c64 0 108 -52 108 -168v-135c0 -14 -12 -25 -27 -25s-27 15 -27 34v112c0 54 -16 112 -76 112c-38 0 -56 -40 -56 -70v-154c0 -19 -12 -34 -27 -34s-27 11 -27 25z" />
    <glyph glyph-name="o" unicode="o" horiz-adv-x="240" 
d="M54 0c0 -72 16 -90 66 -90s66 18 66 90s-16 98 -66 98s-66 -26 -66 -98zM0 0c0 140 50 168 120 168s120 -28 120 -168s-50 -160 -120 -160s-120 20 -120 160z" />
    <glyph glyph-name="p" unicode="p" horiz-adv-x="240" 
d="M0 -300v460c8 5 18 8 27 8s19 -3 27 -8v-30c15 25 40 38 78 38c51 0 108 -52 108 -168s-64 -160 -118 -160c-33 0 -53 9 -68 34v-165c0 -19 -12 -34 -27 -34s-27 11 -27 25zM54 -38c0 -30 18 -60 52 -60c49 0 70 42 70 98c0 54 -24 98 -66 98c-38 0 -56 -30 -56 -60v-76z
" />
    <glyph glyph-name="q" unicode="q" horiz-adv-x="240" 
d="M0 0c0 116 57 168 108 168c38 0 63 -13 78 -38v30c8 5 18 8 27 8s19 -3 27 -8v-460c0 -14 -12 -25 -27 -25s-27 15 -27 34v165c-15 -25 -35 -34 -68 -34c-54 0 -118 44 -118 160zM64 0c0 -56 21 -98 70 -98c34 0 52 30 52 60v76c0 30 -18 60 -56 60
c-42 0 -66 -44 -66 -98z" />
    <glyph glyph-name="r" unicode="r" horiz-adv-x="200" 
d="M0 -135v295c8 5 18 8 27 8s19 -3 27 -8v-35c15 25 64 43 134 43c5 -5 12 -21 12 -37s-7 -32 -12 -37c-80 0 -134 -49 -134 -94v-126c0 -19 -12 -34 -27 -34s-27 11 -27 25z" />
    <glyph glyph-name="s" unicode="s" horiz-adv-x="240" 
d="M0 -73c0 25 7 34 23 34s23 -14 35 -26s23 -25 63 -25s61 11 61 29s-26 35 -66 43s-116 11 -116 96c0 65 52 90 121 90c53 0 111 -35 111 -87c0 -25 -7 -34 -23 -34s-23 14 -35 26s-21 25 -59 25c-40 0 -57 -11 -57 -29s25 -29 65 -37s117 -17 117 -102
c0 -58 -56 -90 -125 -90c-56 0 -115 35 -115 87z" />
    <glyph glyph-name="t" unicode="t" horiz-adv-x="260" 
d="M12 65c-5 5 -12 21 -12 37s7 32 12 37l48 13v184c8 5 18 8 27 8s19 -3 27 -8v-170l111 29c5 -5 12 -21 12 -37s-7 -32 -12 -37l-111 -29v-118c0 -46 17 -74 45 -74c23 0 33 13 45 25s17 25 33 25s23 -8 23 -33c0 -45 -52 -77 -96 -77c-58 0 -104 25 -104 160v78z" />
    <glyph glyph-name="u" unicode="u" horiz-adv-x="240" 
d="M0 8v135c0 14 12 25 27 25s27 -15 27 -34v-112c0 -54 16 -112 76 -112c38 0 56 40 56 70v154c0 19 12 34 27 34s27 -11 27 -25v-295c-8 -5 -18 -8 -27 -8s-19 3 -27 8v30c-15 -25 -40 -38 -78 -38c-64 0 -108 52 -108 168z" />
    <glyph glyph-name="v" unicode="v" horiz-adv-x="260" 
d="M0 143c0 16 11 25 27 25c12 0 21 -7 24 -16l79 -232l79 232c3 9 12 16 24 16c16 0 27 -9 27 -25c0 -4 -1 -8 -4 -16l-98 -270c-4 -11 -12 -17 -28 -17s-24 6 -28 17l-98 270c-3 8 -4 12 -4 16z" />
    <glyph glyph-name="w" unicode="w" horiz-adv-x="372" 
d="M0 143c0 16 11 25 27 25c12 0 21 -7 24 -16l77 -222l33 154c3 13 8 26 25 26s22 -13 25 -26l33 -154l77 222c3 9 12 16 24 16c16 0 27 -9 27 -25c0 -4 -1 -8 -4 -16l-98 -270c-4 -11 -11 -17 -26 -17s-22 6 -26 17l-32 142l-32 -142c-4 -11 -11 -17 -26 -17s-22 6 -26 17
l-98 270c-3 8 -4 12 -4 16z" />
    <glyph glyph-name="x" unicode="x" horiz-adv-x="299" 
d="M0 -133c0 8 3 14 8 19l105 114l-105 114c-5 5 -8 11 -8 19c0 15 12 27 27 27c7 0 14 -3 19 -8l104 -112l103 112c5 5 12 8 19 8c15 0 27 -12 27 -27c0 -8 -3 -14 -8 -19l-105 -114l105 -114c5 -5 8 -11 8 -19c0 -15 -12 -27 -27 -27c-7 0 -14 3 -19 8l-103 112l-104 -112
c-5 -5 -12 -8 -19 -8c-15 0 -27 12 -27 27z" />
    <glyph glyph-name="y" unicode="y" horiz-adv-x="240" 
d="M0 8v135c0 14 12 25 27 25s27 -15 27 -34v-112c0 -54 16 -112 76 -112c38 0 56 40 56 70v154c0 19 12 34 27 34s27 -11 27 -25v-282c0 -135 -60 -161 -126 -161c-50 0 -102 39 -102 80c0 22 7 31 23 31c15 0 21 -13 33 -25s22 -22 53 -22c34 0 65 25 65 71v43
c-15 -25 -40 -38 -78 -38c-64 0 -108 52 -108 168z" />
    <glyph glyph-name="z" unicode="z" horiz-adv-x="240" 
d="M0 -125c0 40 151 193 151 208c0 10 -5 15 -30 15c-111 0 -121 0 -121 35s10 35 115 35c110 0 125 0 125 -35c0 -40 -151 -193 -151 -208c0 -10 5 -15 30 -15c111 0 121 0 121 -35s-10 -35 -115 -35c-110 0 -125 0 -125 35z" />
    <glyph glyph-name="braceleft" unicode="{" horiz-adv-x="177" 
d="M0 0c46 23 60 56 60 105v74c0 57 74 74 104 74c10 0 13 -2 13 -11c0 -7 -72 -3 -72 -105c0 -80 -2 -114 -45 -137c43 -23 45 -57 45 -137c0 -102 72 -98 72 -105c0 -9 -3 -11 -13 -11c-30 0 -104 17 -104 74v74c0 49 -14 82 -60 105z" />
    <glyph glyph-name="bar" unicode="|" horiz-adv-x="53" 
d="M53 -225c0 -15 -12 -27 -26 -27c-15 0 -27 12 -27 27v450c0 15 12 27 27 27c14 0 26 -12 26 -27v-450z" />
    <glyph glyph-name="braceright" unicode="}" horiz-adv-x="177" 
d="M177 0c-46 -23 -60 -56 -60 -105v-74c0 -57 -74 -74 -104 -74c-10 0 -13 2 -13 11c0 7 72 3 72 105c0 80 2 114 45 137c-43 23 -45 57 -45 137c0 102 -72 98 -72 105c0 9 3 11 13 11c30 0 104 -17 104 -74v-74c0 -49 14 -82 60 -105z" />
    <glyph glyph-name="asciitilde" unicode="~" horiz-adv-x="348" 
d="M0 -43c0 17 28 113 96 113c70 0 104 -76 156 -76c60 0 57 64 81 64c8 0 15 -7 15 -15c0 -17 -28 -113 -96 -113c-70 0 -104 76 -156 76c-60 0 -57 -64 -81 -64c-8 0 -15 7 -15 15z" />
    <glyph glyph-name="acute" unicode="&#xb4;" horiz-adv-x="162" 
d="M11 -13l83 82c7 7 17 12 28 12c22 0 40 -18 40 -40c0 -11 -5 -21 -12 -28l-83 -82c-7 -7 -17 -12 -28 -12c-22 0 -39 18 -39 40c0 11 4 21 11 28z" />
    <glyph glyph-name="u2002" unicode="&#x2002;" 
 />
    <glyph glyph-name="u2003" unicode="&#x2003;" horiz-adv-x="1000" 
 />
    <glyph glyph-name="u2009" unicode="&#x2009;" horiz-adv-x="200" 
 />
    <glyph glyph-name="u200A" unicode="&#x200a;" horiz-adv-x="40" 
 />
    <glyph glyph-name="u2190" unicode="&#x2190;" 
d="M0 263c0 5 4 8 7 9c60 20 95 63 145 113c2 2 4 3 7 3c5 0 11 -2 11 -12c0 -24 -62 -71 -62 -85c0 -5 3 -8 14 -8h359c10 0 19 -4 19 -20s-9 -20 -19 -20h-359c-11 0 -14 -3 -14 -8c0 -14 62 -61 62 -85c0 -10 -6 -12 -11 -12c-3 0 -5 1 -7 3c-50 50 -85 93 -145 113
c-3 1 -7 4 -7 9z" />
    <glyph glyph-name="u2191" unicode="&#x2191;" horiz-adv-x="250" 
d="M0 366c0 3 1 5 3 7c50 50 93 85 113 145c1 3 4 7 9 7s8 -4 9 -7c20 -60 63 -95 113 -145c2 -2 3 -4 3 -7c0 -5 -2 -11 -12 -11c-24 0 -71 62 -85 62c-5 0 -8 -3 -8 -14v-384c0 -10 -4 -19 -20 -19s-20 9 -20 19v384c0 11 -3 14 -8 14c-14 0 -61 -62 -85 -62
c-10 0 -12 6 -12 11z" />
    <glyph glyph-name="u2192" unicode="&#x2192;" 
d="M0 263c0 16 9 20 19 20h359c11 0 14 3 14 8c0 14 -62 61 -62 85c0 10 6 12 11 12c3 0 5 -1 7 -3c50 -50 85 -93 145 -113c3 -1 7 -4 7 -9s-4 -8 -7 -9c-60 -20 -95 -63 -145 -113c-2 -2 -4 -3 -7 -3c-5 0 -11 2 -11 12c0 24 62 71 62 85c0 5 -3 8 -14 8h-359
c-10 0 -19 4 -19 20z" />
    <glyph glyph-name="u2193" unicode="&#x2193;" horiz-adv-x="250" 
d="M0 159c0 5 2 11 12 11c24 0 71 -62 85 -62c5 0 8 3 8 14v384c0 10 4 19 20 19s20 -9 20 -19v-384c0 -11 3 -14 8 -14c14 0 61 62 85 62c10 0 12 -6 12 -11c0 -3 -1 -5 -3 -7c-50 -50 -93 -85 -113 -145c-1 -3 -4 -7 -9 -7s-8 4 -9 7c-20 60 -63 95 -113 145
c-2 2 -3 4 -3 7z" />
    <glyph glyph-name="u2194" unicode="&#x2194;" 
d="M0 263c0 5 4 8 7 9c60 20 95 63 145 113c2 2 4 3 7 3c5 0 11 -2 11 -12c0 -24 -62 -71 -62 -85c0 -5 3 -8 14 -8h256c11 0 14 3 14 8c0 14 -62 61 -62 85c0 10 6 12 11 12c3 0 5 -1 7 -3c50 -50 85 -93 145 -113c3 -1 7 -4 7 -9s-4 -8 -7 -9c-60 -20 -95 -63 -145 -113
c-2 -2 -4 -3 -7 -3c-5 0 -11 2 -11 12c0 24 62 71 62 85c0 5 -3 8 -14 8h-256c-11 0 -14 -3 -14 -8c0 -14 62 -61 62 -85c0 -10 -6 -12 -11 -12c-3 0 -5 1 -7 3c-50 50 -85 93 -145 113c-3 1 -7 4 -7 9z" />
    <glyph glyph-name="u2195" unicode="&#x2195;" horiz-adv-x="250" 
d="M0 159c0 5 2 11 12 11c24 0 71 -62 85 -62c5 0 8 3 8 14v281c0 11 -3 14 -8 14c-14 0 -61 -62 -85 -62c-10 0 -12 6 -12 11c0 3 1 5 3 7c50 50 93 85 113 145c1 3 4 7 9 7s8 -4 9 -7c20 -60 63 -95 113 -145c2 -2 3 -4 3 -7c0 -5 -2 -11 -12 -11c-24 0 -71 62 -85 62
c-5 0 -8 -3 -8 -14v-281c0 -11 3 -14 8 -14c14 0 61 62 85 62c10 0 12 -6 12 -11c0 -3 -1 -5 -3 -7c-50 -50 -93 -85 -113 -145c-1 -3 -4 -7 -9 -7s-8 4 -9 7c-20 60 -63 95 -113 145c-2 2 -3 4 -3 7z" />
    <glyph glyph-name="u2196" unicode="&#x2196;" 
d="M0 493c0 4 3 7 7 7c3 0 5 -1 7 -2c46 -23 82 -23 182 -23c3 0 11 -1 11 -10c0 -3 -2 -6 -5 -9c-19 -19 -106 -3 -106 -20c0 -3 2 -6 7 -11l389 -389c4 -4 8 -9 8 -16c0 -11 -9 -20 -20 -20c-7 0 -12 4 -16 8l-389 389c-6 6 -8 7 -11 7c-17 0 -1 -87 -20 -106
c-3 -3 -6 -5 -9 -5c-9 0 -10 8 -10 11c0 100 0 136 -23 182c-1 2 -2 4 -2 7z" />
    <glyph glyph-name="u2197" unicode="&#x2197;" 
d="M0 20c0 7 4 12 8 16l389 389c5 5 7 8 7 11c0 17 -87 1 -106 20c-3 3 -5 6 -5 9c0 9 8 10 11 10c100 0 136 0 182 23c2 1 4 2 7 2c4 0 7 -3 7 -7c0 -3 -1 -5 -2 -7c-23 -46 -23 -82 -23 -182c0 -3 -1 -11 -10 -11c-3 0 -6 2 -9 5c-19 19 -3 106 -20 106c-3 0 -5 -1 -11 -7
l-389 -389c-4 -4 -9 -8 -16 -8c-11 0 -20 9 -20 20z" />
    <glyph glyph-name="u2198" unicode="&#x2198;" 
d="M0 480c0 11 9 20 20 20c7 0 12 -4 16 -8l389 -389c6 -6 8 -7 11 -7c17 0 1 87 20 106c3 3 6 5 9 5c9 0 10 -8 10 -11c0 -100 0 -136 23 -182c1 -2 2 -4 2 -7c0 -4 -3 -7 -7 -7c-3 0 -5 1 -7 2c-46 23 -82 23 -182 23c-3 0 -11 1 -11 10c0 3 2 6 5 9c19 19 106 3 106 20
c0 3 -2 6 -7 11l-389 389c-4 4 -8 9 -8 16z" />
    <glyph glyph-name="u2199" unicode="&#x2199;" 
d="M0 7c0 3 1 5 2 7c23 46 23 82 23 182c0 3 1 11 10 11c3 0 6 -2 9 -5c19 -19 3 -106 20 -106c3 0 5 1 11 7l389 389c4 4 9 8 16 8c11 0 20 -9 20 -20c0 -7 -4 -12 -8 -16l-389 -389c-5 -5 -7 -8 -7 -11c0 -17 87 -1 106 -20c3 -3 5 -6 5 -9c0 -9 -8 -10 -11 -10
c-100 0 -136 0 -182 -23c-2 -1 -4 -2 -7 -2c-4 0 -7 3 -7 7z" />
    <glyph glyph-name="u21B0" unicode="&#x21b0;" horiz-adv-x="270" 
d="M0 400c0 5 4 8 7 9c60 20 95 63 145 113c2 2 4 3 7 3c5 0 11 -2 11 -12c0 -24 -62 -71 -62 -85c0 -5 3 -8 14 -8h129c10 0 19 -4 19 -20v-381c0 -10 -4 -19 -20 -19s-20 9 -20 19v361h-108c-11 0 -14 -3 -14 -8c0 -14 62 -61 62 -85c0 -10 -6 -12 -11 -12c-3 0 -5 1 -7 3
c-50 50 -85 93 -145 113c-3 1 -7 4 -7 9z" />
    <glyph glyph-name="u21B1" unicode="&#x21b1;" horiz-adv-x="270" 
d="M0 19v381c0 16 9 20 19 20h129c11 0 14 3 14 8c0 14 -62 61 -62 85c0 10 6 12 11 12c3 0 5 -1 7 -3c50 -50 85 -93 145 -113c3 -1 7 -4 7 -9s-4 -8 -7 -9c-60 -20 -95 -63 -145 -113c-2 -2 -4 -3 -7 -3c-5 0 -11 2 -11 12c0 24 62 71 62 85c0 5 -3 8 -14 8h-108v-361
c0 -10 -4 -19 -20 -19s-20 9 -20 19z" />
    <glyph glyph-name="u21B2" unicode="&#x21b2;" horiz-adv-x="270" 
d="M0 125c0 5 4 8 7 9c60 20 95 63 145 113c2 2 4 3 7 3c5 0 11 -2 11 -12c0 -24 -62 -71 -62 -85c0 -5 3 -8 14 -8h108v361c0 10 4 19 20 19s20 -9 20 -19v-381c0 -16 -9 -20 -19 -20h-129c-11 0 -14 -3 -14 -8c0 -14 62 -61 62 -85c0 -10 -6 -12 -11 -12c-3 0 -5 1 -7 3
c-50 50 -85 93 -145 113c-3 1 -7 4 -7 9z" />
    <glyph glyph-name="u21B3" unicode="&#x21b3;" horiz-adv-x="270" 
d="M0 125v381c0 10 4 19 20 19s20 -9 20 -19v-361h108c11 0 14 3 14 8c0 14 -62 61 -62 85c0 10 6 12 11 12c3 0 5 -1 7 -3c50 -50 85 -93 145 -113c3 -1 7 -4 7 -9s-4 -8 -7 -9c-60 -20 -95 -63 -145 -113c-2 -2 -4 -3 -7 -3c-5 0 -11 2 -11 12c0 24 62 71 62 85
c0 5 -3 8 -14 8h-129c-10 0 -19 4 -19 20z" />
    <glyph glyph-name="u21B4" unicode="&#x21b4;" 
d="M0 505c0 16 9 20 19 20h356c16 0 20 -9 20 -19v-384c0 -11 3 -14 8 -14c14 0 61 62 85 62c10 0 12 -6 12 -11c0 -3 -1 -5 -3 -7c-50 -50 -93 -85 -113 -145c-1 -3 -4 -7 -9 -7s-8 4 -9 7c-20 60 -63 95 -113 145c-2 2 -3 4 -3 7c0 5 2 11 12 11c24 0 71 -62 85 -62
c5 0 8 3 8 14v363h-336c-10 0 -19 4 -19 20z" />
    <glyph glyph-name="u21B5" unicode="&#x21b5;" 
d="M0 125c0 5 4 8 7 9c60 20 95 63 145 113c2 2 4 3 7 3c5 0 11 -2 11 -12c0 -24 -62 -71 -62 -85c0 -5 3 -8 14 -8h338v361c0 10 4 19 20 19s20 -9 20 -19v-381c0 -16 -9 -20 -19 -20h-359c-11 0 -14 -3 -14 -8c0 -14 62 -61 62 -85c0 -10 -6 -12 -11 -12c-3 0 -5 1 -7 3
c-50 50 -85 93 -145 113c-3 1 -7 4 -7 9z" />
    <glyph glyph-name="u21B6" unicode="&#x21b6;" 
d="M0 306c0 5 2 11 12 11c24 0 71 -62 85 -62c5 0 8 6 8 14c0 106 87 181 197 181s198 -90 198 -200c0 -11 -9 -20 -20 -20s-20 9 -20 20c0 88 -70 160 -158 160s-157 -57 -157 -141c0 -8 3 -14 8 -14c14 0 61 62 85 62c10 0 12 -6 12 -11c0 -3 -1 -5 -3 -7
c-50 -50 -93 -85 -113 -145c-1 -3 -4 -7 -9 -7s-8 4 -9 7c-20 60 -63 95 -113 145c-2 2 -3 4 -3 7z" />
    <glyph glyph-name="u21B7" unicode="&#x21b7;" 
d="M0 250c0 110 88 200 198 200s197 -75 197 -181c0 -8 3 -14 8 -14c14 0 61 62 85 62c10 0 12 -6 12 -11c0 -3 -1 -5 -3 -7c-50 -50 -93 -85 -113 -145c-1 -3 -4 -7 -9 -7s-8 4 -9 7c-20 60 -63 95 -113 145c-2 2 -3 4 -3 7c0 5 2 11 12 11c24 0 71 -62 85 -62
c5 0 8 6 8 14c0 84 -69 141 -157 141s-158 -72 -158 -160c0 -11 -9 -20 -20 -20s-20 9 -20 20z" />
    <glyph glyph-name="u21B8" unicode="&#x21b8;" 
d="M0 550c0 17 3 30 20 30h460c17 0 20 -13 20 -30s-3 -30 -20 -30h-460c-17 0 -20 13 -20 30zM0 493c0 4 3 7 7 7c3 0 5 -1 7 -2c46 -23 82 -23 182 -23c3 0 11 -1 11 -10c0 -3 -2 -6 -5 -9c-19 -19 -106 -3 -106 -20c0 -3 2 -6 7 -11l389 -389c4 -4 8 -9 8 -16
c0 -11 -9 -20 -20 -20c-7 0 -12 4 -16 8l-389 389c-6 6 -8 7 -11 7c-17 0 -1 -87 -20 -106c-3 -3 -6 -5 -9 -5c-9 0 -10 8 -10 11c0 100 0 136 -23 182c-1 2 -2 4 -2 7z" />
    <glyph glyph-name="u21B9" unicode="&#x21b9;" 
d="M0 155c0 16 9 20 19 20h306c11 0 14 3 14 8c0 14 -62 61 -62 85c0 10 6 12 11 12c3 0 5 -1 7 -3c50 -50 85 -93 145 -113v96c0 17 13 20 30 20s30 -3 30 -20v-210c0 -17 -13 -20 -30 -20s-30 3 -30 20v96c-60 -20 -95 -63 -145 -113c-2 -2 -4 -3 -7 -3c-5 0 -11 2 -11 12
c0 24 62 71 62 85c0 5 -3 8 -14 8h-306c-10 0 -19 4 -19 20zM0 266v210c0 17 13 20 30 20s30 -3 30 -20v-96c60 20 95 63 145 113c2 2 4 3 7 3c5 0 11 -2 11 -12c0 -24 -62 -71 -62 -85c0 -5 3 -8 14 -8h306c10 0 19 -4 19 -20s-9 -20 -19 -20h-306c-11 0 -14 -3 -14 -8
c0 -14 62 -61 62 -85c0 -10 -6 -12 -11 -12c-3 0 -5 1 -7 3c-50 50 -85 93 -145 113v-96c0 -17 -13 -20 -30 -20s-30 3 -30 20z" />
    <glyph glyph-name="u21BA" unicode="&#x21ba;" 
d="M0 250c0 103 63 186 143 226c2 1 6 2 9 2c11 0 20 -10 20 -20c0 -8 -5 -14 -12 -17c-71 -34 -120 -107 -120 -191c0 -116 94 -210 210 -210s210 94 210 210c0 71 -35 133 -88 171c-4 3 -9 4 -12 4c-5 0 -6 -4 -6 -12c0 -18 8 -53 8 -76c0 -13 -3 -26 -14 -26
c-5 0 -9 4 -10 10c-15 93 -25 137 -54 174c-3 4 -4 7 -4 10c0 4 4 6 8 6c9 0 27 -10 62 -10c49 0 124 18 131 18c5 0 9 -4 9 -10c0 -3 -1 -5 -3 -8c-16 -22 -101 -22 -101 -38c0 -3 5 -7 10 -10c63 -45 104 -119 104 -203c0 -138 -112 -250 -250 -250s-250 112 -250 250z
" />
    <glyph glyph-name="u21BB" unicode="&#x21bb;" 
d="M0 250c0 84 41 158 104 203c5 3 10 7 10 10c0 16 -85 16 -101 38c-2 3 -3 5 -3 8c0 6 4 10 9 10c7 0 82 -18 131 -18c35 0 53 10 62 10c4 0 8 -2 8 -6c0 -3 -1 -6 -4 -10c-29 -37 -39 -81 -54 -174c-1 -6 -5 -10 -10 -10c-11 0 -14 13 -14 26c0 23 8 58 8 76
c0 8 -1 12 -6 12c-3 0 -8 -1 -12 -4c-53 -38 -88 -100 -88 -171c0 -116 94 -210 210 -210s210 94 210 210c0 84 -49 157 -120 191c-7 3 -12 9 -12 17c0 10 9 20 20 20c3 0 7 -1 9 -2c80 -40 143 -123 143 -226c0 -138 -112 -250 -250 -250s-250 112 -250 250z" />
    <glyph glyph-name="u21C4" unicode="&#x21c4;" 
d="M0 155c0 5 4 8 7 9c60 20 95 63 145 113c2 2 4 3 7 3c5 0 11 -2 11 -12c0 -24 -62 -71 -62 -85c0 -5 3 -8 14 -8h359c10 0 19 -4 19 -20s-9 -20 -19 -20h-359c-11 0 -14 -3 -14 -8c0 -14 62 -61 62 -85c0 -10 -6 -12 -11 -12c-3 0 -5 1 -7 3c-50 50 -85 93 -145 113
c-3 1 -7 4 -7 9zM0 371c0 16 9 20 19 20h359c11 0 14 3 14 8c0 14 -62 61 -62 85c0 10 6 12 11 12c3 0 5 -1 7 -3c50 -50 85 -93 145 -113c3 -1 7 -4 7 -9s-4 -8 -7 -9c-60 -20 -95 -63 -145 -113c-2 -2 -4 -3 -7 -3c-5 0 -11 2 -11 12c0 24 62 71 62 85c0 5 -3 8 -14 8
h-359c-10 0 -19 4 -19 20z" />
    <glyph glyph-name="u21C5" unicode="&#x21c5;" horiz-adv-x="466" 
d="M216 159c0 5 2 11 12 11c24 0 71 -62 85 -62c5 0 8 3 8 14v384c0 10 4 19 20 19s20 -9 20 -19v-384c0 -11 3 -14 8 -14c14 0 61 62 85 62c10 0 12 -6 12 -11c0 -3 -1 -5 -3 -7c-50 -50 -93 -85 -113 -145c-1 -3 -4 -7 -9 -7s-8 4 -9 7c-20 60 -63 95 -113 145
c-2 2 -3 4 -3 7zM0 366c0 3 1 5 3 7c50 50 93 85 113 145c1 3 4 7 9 7s8 -4 9 -7c20 -60 63 -95 113 -145c2 -2 3 -4 3 -7c0 -5 -2 -11 -12 -11c-24 0 -71 62 -85 62c-5 0 -8 -3 -8 -14v-384c0 -10 -4 -19 -20 -19s-20 9 -20 19v384c0 11 -3 14 -8 14c-14 0 -61 -62 -85 -62
c-10 0 -12 6 -12 11z" />
    <glyph glyph-name="u21C6" unicode="&#x21c6;" 
d="M0 155c0 16 9 20 19 20h359c11 0 14 3 14 8c0 14 -62 61 -62 85c0 10 6 12 11 12c3 0 5 -1 7 -3c50 -50 85 -93 145 -113c3 -1 7 -4 7 -9s-4 -8 -7 -9c-60 -20 -95 -63 -145 -113c-2 -2 -4 -3 -7 -3c-5 0 -11 2 -11 12c0 24 62 71 62 85c0 5 -3 8 -14 8h-359
c-10 0 -19 4 -19 20zM0 371c0 5 4 8 7 9c60 20 95 63 145 113c2 2 4 3 7 3c5 0 11 -2 11 -12c0 -24 -62 -71 -62 -85c0 -5 3 -8 14 -8h359c10 0 19 -4 19 -20s-9 -20 -19 -20h-359c-11 0 -14 -3 -14 -8c0 -14 62 -61 62 -85c0 -10 -6 -12 -11 -12c-3 0 -5 1 -7 3
c-50 50 -85 93 -145 113c-3 1 -7 4 -7 9z" />
    <glyph glyph-name="u21C7" unicode="&#x21c7;" 
d="M0 155c0 5 4 8 7 9c54 18 88 55 131 99c-43 44 -77 81 -131 99c-3 1 -7 4 -7 9s4 8 7 9c60 20 95 63 145 113c2 2 4 3 7 3c5 0 11 -2 11 -12c0 -24 -62 -71 -62 -85c0 -5 3 -8 14 -8h359c10 0 19 -4 19 -20s-9 -20 -19 -20h-359c-11 0 -14 -3 -14 -8c0 -12 60 -61 60 -80
s-60 -68 -60 -80c0 -5 3 -8 14 -8h359c10 0 19 -4 19 -20s-9 -20 -19 -20h-359c-11 0 -14 -3 -14 -8c0 -14 62 -61 62 -85c0 -10 -6 -12 -11 -12c-3 0 -5 1 -7 3c-50 50 -85 93 -145 113c-3 1 -7 4 -7 9z" />
    <glyph glyph-name="u21C8" unicode="&#x21c8;" horiz-adv-x="466" 
d="M0 366c0 3 1 5 3 7c50 50 93 85 113 145c1 3 4 7 9 7s8 -4 9 -7c18 -54 55 -88 99 -131c44 43 81 77 99 131c1 3 4 7 9 7s8 -4 9 -7c20 -60 63 -95 113 -145c2 -2 3 -4 3 -7c0 -5 -2 -11 -12 -11c-24 0 -71 62 -85 62c-5 0 -8 -3 -8 -14v-384c0 -10 -4 -19 -20 -19
s-20 9 -20 19v384c0 11 -3 14 -8 14c-12 0 -61 -60 -80 -60s-68 60 -80 60c-5 0 -8 -3 -8 -14v-384c0 -10 -4 -19 -20 -19s-20 9 -20 19v384c0 11 -3 14 -8 14c-14 0 -61 -62 -85 -62c-10 0 -12 6 -12 11z" />
    <glyph glyph-name="u21C9" unicode="&#x21c9;" 
d="M0 155c0 16 9 20 19 20h359c11 0 14 3 14 8c0 12 -60 61 -60 80s60 68 60 80c0 5 -3 8 -14 8h-359c-10 0 -19 4 -19 20s9 20 19 20h359c11 0 14 3 14 8c0 14 -62 61 -62 85c0 10 6 12 11 12c3 0 5 -1 7 -3c50 -50 85 -93 145 -113c3 -1 7 -4 7 -9s-4 -8 -7 -9
c-54 -18 -88 -55 -131 -99c43 -44 77 -81 131 -99c3 -1 7 -4 7 -9s-4 -8 -7 -9c-60 -20 -95 -63 -145 -113c-2 -2 -4 -3 -7 -3c-5 0 -11 2 -11 12c0 24 62 71 62 85c0 5 -3 8 -14 8h-359c-10 0 -19 4 -19 20z" />
    <glyph glyph-name="u21CA" unicode="&#x21ca;" horiz-adv-x="466" 
d="M0 159c0 5 2 11 12 11c24 0 71 -62 85 -62c5 0 8 3 8 14v384c0 10 4 19 20 19s20 -9 20 -19v-384c0 -11 3 -14 8 -14c12 0 61 60 80 60s68 -60 80 -60c5 0 8 3 8 14v384c0 10 4 19 20 19s20 -9 20 -19v-384c0 -11 3 -14 8 -14c14 0 61 62 85 62c10 0 12 -6 12 -11
c0 -3 -1 -5 -3 -7c-50 -50 -93 -85 -113 -145c-1 -3 -4 -7 -9 -7s-8 4 -9 7c-18 54 -55 88 -99 131c-44 -43 -81 -77 -99 -131c-1 -3 -4 -7 -9 -7s-8 4 -9 7c-20 60 -63 95 -113 145c-2 2 -3 4 -3 7z" />
    <glyph glyph-name="u21D0" unicode="&#x21d0;" 
d="M0 263c0 5 4 8 7 9c60 20 190 138 240 188c2 2 4 3 7 3c5 0 11 -2 11 -12c0 -27 -82 -86 -82 -100c0 -6 3 -8 14 -8h284c10 0 19 -4 19 -20s-9 -20 -19 -20h-354c-14 -10 -27 -20 -27 -40s13 -30 27 -40h354c10 0 19 -4 19 -20s-9 -20 -19 -20h-284c-11 0 -14 -2 -14 -8
c0 -14 82 -73 82 -100c0 -10 -6 -12 -11 -12c-3 0 -5 1 -7 3c-50 50 -180 168 -240 188c-3 1 -7 4 -7 9z" />
    <glyph glyph-name="u21D1" unicode="&#x21d1;" horiz-adv-x="400" 
d="M0 271c0 3 1 5 3 7c50 50 168 180 188 240c1 3 4 7 9 7s8 -4 9 -7c20 -60 138 -190 188 -240c2 -2 3 -4 3 -7c0 -5 -2 -11 -12 -11c-27 0 -86 82 -100 82c-6 0 -8 -3 -8 -14v-309c0 -10 -4 -19 -20 -19s-20 9 -20 19v379c-10 14 -20 27 -40 27s-30 -13 -40 -27v-379
c0 -10 -4 -19 -20 -19s-20 9 -20 19v309c0 11 -2 14 -8 14c-14 0 -73 -82 -100 -82c-10 0 -12 6 -12 11z" />
    <glyph glyph-name="u21D2" unicode="&#x21d2;" 
d="M0 203c0 16 9 20 19 20h354c14 10 27 20 27 40s-13 30 -27 40h-354c-10 0 -19 4 -19 20s9 20 19 20h284c11 0 14 2 14 8c0 14 -82 73 -82 100c0 10 6 12 11 12c3 0 5 -1 7 -3c50 -50 180 -168 240 -188c3 -1 7 -4 7 -9s-4 -8 -7 -9c-60 -20 -190 -138 -240 -188
c-2 -2 -4 -3 -7 -3c-5 0 -11 2 -11 12c0 27 82 86 82 100c0 6 -3 8 -14 8h-284c-10 0 -19 4 -19 20z" />
    <glyph glyph-name="u21D3" unicode="&#x21d3;" horiz-adv-x="400" 
d="M0 254c0 5 2 11 12 11c27 0 86 -82 100 -82c6 0 8 3 8 14v309c0 10 4 19 20 19s20 -9 20 -19v-379c10 -14 20 -27 40 -27s30 13 40 27v379c0 10 4 19 20 19s20 -9 20 -19v-309c0 -11 2 -14 8 -14c14 0 73 82 100 82c10 0 12 -6 12 -11c0 -3 -1 -5 -3 -7
c-50 -50 -168 -180 -188 -240c-1 -3 -4 -7 -9 -7s-8 4 -9 7c-20 60 -138 190 -188 240c-2 2 -3 4 -3 7z" />
    <glyph glyph-name="u21D4" unicode="&#x21d4;" horiz-adv-x="600" 
d="M100 263c0 -20 13 -30 27 -40h346c14 10 27 20 27 40s-13 30 -27 40h-346c-14 -10 -27 -20 -27 -40zM0 263c0 5 4 8 7 9c60 20 190 138 240 188c2 2 4 3 7 3c5 0 11 -2 11 -12c0 -27 -82 -86 -82 -100c0 -6 3 -8 14 -8h206c11 0 14 2 14 8c0 14 -82 73 -82 100
c0 10 6 12 11 12c3 0 5 -1 7 -3c50 -50 180 -168 240 -188c3 -1 7 -4 7 -9s-4 -8 -7 -9c-60 -20 -190 -138 -240 -188c-2 -2 -4 -3 -7 -3c-5 0 -11 2 -11 12c0 27 82 86 82 100c0 6 -3 8 -14 8h-206c-11 0 -14 -2 -14 -8c0 -14 82 -73 82 -100c0 -10 -6 -12 -11 -12
c-3 0 -5 1 -7 3c-50 50 -180 168 -240 188c-3 1 -7 4 -7 9z" />
    <glyph glyph-name="u21D5" unicode="&#x21d5;" horiz-adv-x="400" 
d="M0 254c0 5 2 11 12 11c27 0 86 -82 100 -82c6 0 8 3 8 14v206c0 11 -2 14 -8 14c-14 0 -73 -82 -100 -82c-10 0 -12 6 -12 11c0 3 1 5 3 7c50 50 168 180 188 240c1 3 4 7 9 7s8 -4 9 -7c20 -60 138 -190 188 -240c2 -2 3 -4 3 -7c0 -5 -2 -11 -12 -11
c-27 0 -86 82 -100 82c-6 0 -8 -3 -8 -14v-206c0 -11 2 -14 8 -14c14 0 73 82 100 82c10 0 12 -6 12 -11c0 -3 -1 -5 -3 -7c-50 -50 -168 -180 -188 -240c-1 -3 -4 -7 -9 -7s-8 4 -9 7c-20 60 -138 190 -188 240c-2 2 -3 4 -3 7zM160 127c10 -14 20 -27 40 -27s30 13 40 27
v346c-10 14 -20 27 -40 27s-30 -13 -40 -27v-346z" />
    <glyph glyph-name="u21D6" unicode="&#x21d6;" 
d="M0 493c0 4 3 7 7 7c3 0 5 -1 7 -2c46 -23 202 -36 302 -36c3 0 11 -1 11 -10c0 -3 -2 -6 -5 -9c-19 -19 -129 -2 -129 -18c0 -3 2 -6 7 -11l292 -292c4 -4 8 -9 8 -16c0 -11 -9 -20 -20 -20c-7 0 -12 4 -16 8l-341 341c-25 0 -37 -3 -46 -12s-12 -21 -12 -46l341 -341
c4 -4 8 -9 8 -16c0 -11 -9 -20 -20 -20c-7 0 -12 4 -16 8l-292 292c-6 6 -8 7 -11 7c-16 0 1 -110 -18 -129c-3 -3 -6 -5 -9 -5c-9 0 -10 8 -10 11c0 100 -13 256 -36 302c-1 2 -2 4 -2 7z" />
    <glyph glyph-name="u21D7" unicode="&#x21d7;" 
d="M0 106c0 7 4 12 8 16l292 292c5 5 7 8 7 11c0 16 -110 -1 -129 18c-3 3 -5 6 -5 9c0 9 8 10 11 10c100 0 256 13 302 36c2 1 4 2 7 2c4 0 7 -3 7 -7c0 -3 -1 -5 -2 -7c-23 -46 -36 -202 -36 -302c0 -3 -1 -11 -10 -11c-3 0 -6 2 -9 5c-19 19 -2 129 -18 129
c-3 0 -5 -1 -11 -7l-292 -292c-4 -4 -9 -8 -16 -8c-11 0 -20 9 -20 20c0 7 4 12 8 16l341 341c0 25 -3 37 -12 46s-21 12 -46 12l-341 -341c-4 -4 -9 -8 -16 -8c-11 0 -20 9 -20 20z" />
    <glyph glyph-name="u21D8" unicode="&#x21d8;" 
d="M0 394c0 11 9 20 20 20c7 0 12 -4 16 -8l341 -341c25 0 37 3 46 12s12 21 12 46l-341 341c-4 4 -8 9 -8 16c0 11 9 20 20 20c7 0 12 -4 16 -8l292 -292c6 -6 8 -7 11 -7c16 0 -1 110 18 129c3 3 6 5 9 5c9 0 10 -8 10 -11c0 -100 13 -256 36 -302c1 -2 2 -4 2 -7
c0 -4 -3 -7 -7 -7c-3 0 -5 1 -7 2c-46 23 -202 36 -302 36c-3 0 -11 1 -11 10c0 3 2 6 5 9c19 19 129 2 129 18c0 3 -2 6 -7 11l-292 292c-4 4 -8 9 -8 16z" />
    <glyph glyph-name="u21D9" unicode="&#x21d9;" 
d="M0 7c0 3 1 5 2 7c23 46 36 202 36 302c0 3 1 11 10 11c3 0 6 -2 9 -5c19 -19 2 -129 18 -129c3 0 5 1 11 7l292 292c4 4 9 8 16 8c11 0 20 -9 20 -20c0 -7 -4 -12 -8 -16l-341 -341c0 -25 3 -37 12 -46s21 -12 46 -12l341 341c4 4 9 8 16 8c11 0 20 -9 20 -20
c0 -7 -4 -12 -8 -16l-292 -292c-5 -5 -7 -8 -7 -11c0 -16 110 1 129 -18c3 -3 5 -6 5 -9c0 -9 -8 -10 -11 -10c-100 0 -256 -13 -302 -36c-2 -1 -4 -2 -7 -2c-4 0 -7 3 -7 7z" />
    <glyph glyph-name="u21DA" unicode="&#x21da;" 
d="M0 262c0 6 4 9 7 10c60 20 226 175 276 225c2 2 4 3 7 3c5 0 11 -2 11 -12c0 -16 -58 -65 -58 -77c0 -6 3 -8 14 -8h224c10 0 19 -4 19 -20s-9 -20 -19 -20h-288s-67 -64 -67 -72c0 -5 3 -8 14 -8h341c10 0 19 -4 19 -21c0 -16 -9 -20 -19 -20h-341c-11 0 -14 -3 -14 -8
c0 -8 67 -72 67 -72h288c10 0 19 -4 19 -20s-9 -20 -19 -20h-224c-11 0 -14 -2 -14 -8c0 -12 58 -61 58 -77c0 -10 -6 -12 -11 -12c-3 0 -5 1 -7 3c-50 50 -216 205 -276 225c-3 1 -7 4 -7 9z" />
    <glyph glyph-name="u21DB" unicode="&#x21db;" 
d="M0 142c0 16 9 20 19 20h288s67 64 67 72c0 5 -3 8 -14 8h-341c-10 0 -19 4 -19 20c0 17 9 21 19 21h341c11 0 14 3 14 8c0 8 -67 72 -67 72h-288c-10 0 -19 4 -19 20s9 20 19 20h224c11 0 14 2 14 8c0 12 -58 61 -58 77c0 10 6 12 11 12c3 0 5 -1 7 -3
c50 -50 216 -205 276 -225c3 -1 7 -4 7 -10c0 -5 -4 -8 -7 -9c-60 -20 -226 -175 -276 -225c-2 -2 -4 -3 -7 -3c-5 0 -11 2 -11 12c0 16 58 65 58 77c0 6 -3 8 -14 8h-224c-10 0 -19 4 -19 20z" />
    <glyph glyph-name="u21DC" unicode="&#x21dc;" 
d="M0 263c0 5 4 8 7 9c60 20 95 63 145 113c2 2 4 3 7 3c5 0 11 -2 11 -12c0 -24 -62 -71 -62 -85c0 -5 3 -8 14 -8c54 0 77 55 101 55c20 0 41 -90 61 -90c28 0 70 90 104 90c20 0 41 -90 61 -90c12 0 29 17 39 30c3 4 4 4 6 4c4 0 6 -3 6 -7c0 -6 -9 -23 -12 -27
c-19 -26 -49 -60 -65 -60c-20 0 -41 90 -61 90c-28 0 -70 -90 -104 -90c-20 0 -41 90 -61 90c-24 0 -31 -35 -75 -35c-11 0 -14 -3 -14 -8c0 -14 62 -61 62 -85c0 -10 -6 -12 -11 -12c-3 0 -5 1 -7 3c-50 50 -85 93 -145 113c-3 1 -7 4 -7 9z" />
    <glyph glyph-name="u21DD" unicode="&#x21dd;" 
d="M0 275c0 4 2 7 6 7c2 0 3 0 6 -4c10 -13 27 -30 39 -30c20 0 41 90 61 90c34 0 76 -90 104 -90c20 0 41 90 61 90c24 0 47 -55 101 -55c11 0 14 3 14 8c0 14 -62 61 -62 85c0 10 6 12 11 12c3 0 5 -1 7 -3c50 -50 85 -93 145 -113c3 -1 7 -4 7 -9s-4 -8 -7 -9
c-60 -20 -95 -63 -145 -113c-2 -2 -4 -3 -7 -3c-5 0 -11 2 -11 12c0 24 62 71 62 85c0 5 -3 8 -14 8c-44 0 -51 35 -75 35c-20 0 -41 -90 -61 -90c-34 0 -76 90 -104 90c-20 0 -41 -90 -61 -90c-16 0 -46 34 -65 60c-3 4 -12 21 -12 27z" />
    <glyph glyph-name="u21E0" unicode="&#x21e0;" 
d="M214 263c0 16 9 20 19 20h32c10 0 19 -4 19 -20s-9 -20 -19 -20h-32c-10 0 -19 4 -19 20zM322 263c0 16 9 20 19 20h32c10 0 19 -4 19 -20s-9 -20 -19 -20h-32c-10 0 -19 4 -19 20zM430 263c0 16 9 20 19 20h32c10 0 19 -4 19 -20s-9 -20 -19 -20h-32c-10 0 -19 4 -19 20
zM0 263c0 5 4 8 7 9c60 20 95 63 145 113c2 2 4 3 7 3c5 0 11 -2 11 -12c0 -24 -62 -71 -62 -85c0 -5 3 -8 14 -8h35c10 0 19 -4 19 -20s-9 -20 -19 -20h-35c-11 0 -14 -3 -14 -8c0 -14 62 -61 62 -85c0 -10 -6 -12 -11 -12c-3 0 -5 1 -7 3c-50 50 -85 93 -145 113
c-3 1 -7 4 -7 9z" />
    <glyph glyph-name="u21E1" unicode="&#x21e1;" horiz-adv-x="250" 
d="M105 239v32c0 10 4 19 20 19s20 -9 20 -19v-32c0 -10 -4 -19 -20 -19s-20 9 -20 19zM105 129v32c0 10 4 19 20 19s20 -9 20 -19v-32c0 -10 -4 -19 -20 -19s-20 9 -20 19zM105 19v32c0 10 4 19 20 19s20 -9 20 -19v-32c0 -10 -4 -19 -20 -19s-20 9 -20 19zM0 366
c0 3 1 5 3 7c50 50 93 85 113 145c1 3 4 7 9 7s8 -4 9 -7c20 -60 63 -95 113 -145c2 -2 3 -4 3 -7c0 -5 -2 -11 -12 -11c-24 0 -71 62 -85 62c-5 0 -8 -3 -8 -14v-54c0 -10 -4 -19 -20 -19s-20 9 -20 19v54c0 11 -3 14 -8 14c-14 0 -61 -62 -85 -62c-10 0 -12 6 -12 11z" />
    <glyph glyph-name="u21E2" unicode="&#x21e2;" 
d="M216 263c0 16 9 20 19 20h32c10 0 19 -4 19 -20s-9 -20 -19 -20h-32c-10 0 -19 4 -19 20zM108 263c0 16 9 20 19 20h32c10 0 19 -4 19 -20s-9 -20 -19 -20h-32c-10 0 -19 4 -19 20zM0 263c0 16 9 20 19 20h32c10 0 19 -4 19 -20s-9 -20 -19 -20h-32c-10 0 -19 4 -19 20z
M324 263c0 16 9 20 19 20h35c11 0 14 3 14 8c0 14 -62 61 -62 85c0 10 6 12 11 12c3 0 5 -1 7 -3c50 -50 85 -93 145 -113c3 -1 7 -4 7 -9s-4 -8 -7 -9c-60 -20 -95 -63 -145 -113c-2 -2 -4 -3 -7 -3c-5 0 -11 2 -11 12c0 24 62 71 62 85c0 5 -3 8 -14 8h-35
c-10 0 -19 4 -19 20z" />
    <glyph glyph-name="u21E3" unicode="&#x21e3;" horiz-adv-x="250" 
d="M105 254v32c0 10 4 19 20 19s20 -9 20 -19v-32c0 -10 -4 -19 -20 -19s-20 9 -20 19zM105 364v32c0 10 4 19 20 19s20 -9 20 -19v-32c0 -10 -4 -19 -20 -19s-20 9 -20 19zM105 474v32c0 10 4 19 20 19s20 -9 20 -19v-32c0 -10 -4 -19 -20 -19s-20 9 -20 19zM0 159
c0 5 2 11 12 11c24 0 71 -62 85 -62c5 0 8 3 8 14v54c0 10 4 19 20 19s20 -9 20 -19v-54c0 -11 3 -14 8 -14c14 0 61 62 85 62c10 0 12 -6 12 -11c0 -3 -1 -5 -3 -7c-50 -50 -93 -85 -113 -145c-1 -3 -4 -7 -9 -7s-8 4 -9 7c-20 60 -63 95 -113 145c-2 2 -3 4 -3 7z" />
    <glyph glyph-name="u21E4" unicode="&#x21e4;" 
d="M0 158v210c0 17 13 20 30 20s30 -3 30 -20v-96c60 20 95 63 145 113c2 2 4 3 7 3c5 0 11 -2 11 -12c0 -24 -62 -71 -62 -85c0 -5 3 -8 14 -8h306c10 0 19 -4 19 -20s-9 -20 -19 -20h-306c-11 0 -14 -3 -14 -8c0 -14 62 -61 62 -85c0 -10 -6 -12 -11 -12c-3 0 -5 1 -7 3
c-50 50 -85 93 -145 113v-96c0 -17 -13 -20 -30 -20s-30 3 -30 20z" />
    <glyph glyph-name="u21E5" unicode="&#x21e5;" 
d="M0 263c0 16 9 20 19 20h306c11 0 14 3 14 8c0 14 -62 61 -62 85c0 10 6 12 11 12c3 0 5 -1 7 -3c50 -50 85 -93 145 -113v96c0 17 13 20 30 20s30 -3 30 -20v-210c0 -17 -13 -20 -30 -20s-30 3 -30 20v96c-60 -20 -95 -63 -145 -113c-2 -2 -4 -3 -7 -3c-5 0 -11 2 -11 12
c0 24 62 71 62 85c0 5 -3 8 -14 8h-306c-10 0 -19 4 -19 20z" />
    <glyph glyph-name="u21E6" unicode="&#x21e6;" horiz-adv-x="528" 
d="M51 263c0 -6 2 -9 5 -12l118 -118v66h293c22 0 25 14 25 64s-3 64 -25 64h-293v66l-118 -118c-3 -3 -5 -6 -5 -12zM0 263c0 6 2 9 5 12l205 205v-117h278c24 0 40 -40 40 -100s-16 -100 -40 -100h-278v-117l-205 205c-3 3 -5 6 -5 12z" />
    <glyph glyph-name="u21E7" unicode="&#x21e7;" horiz-adv-x="434" 
d="M87 354h66v-293c0 -22 14 -25 64 -25s64 3 64 25v293h66l-118 118c-3 3 -6 5 -12 5s-9 -2 -12 -5zM0 318l205 205c3 3 6 5 12 5s9 -2 12 -5l205 -205h-117v-278c0 -24 -40 -40 -100 -40s-100 16 -100 40v278h-117z" />
    <glyph glyph-name="u21E8" unicode="&#x21e8;" horiz-adv-x="528" 
d="M36 263c0 -50 3 -64 25 -64h293v-66l118 118c3 3 5 6 5 12s-2 9 -5 12l-118 118v-66h-293c-22 0 -25 -14 -25 -64zM0 263c0 60 16 100 40 100h278v117l205 -205c3 -3 5 -6 5 -12s-2 -9 -5 -12l-205 -205v117h-278c-24 0 -40 40 -40 100z" />
    <glyph glyph-name="u21E9" unicode="&#x21e9;" horiz-adv-x="434" 
d="M87 174l118 -118c3 -3 6 -5 12 -5s9 2 12 5l118 118h-66v293c0 22 -14 25 -64 25s-64 -3 -64 -25v-293h-66zM0 210h117v278c0 24 40 40 100 40s100 -16 100 -40v-278h117l-205 -205c-3 -3 -6 -5 -12 -5s-9 2 -12 5z" />
    <glyph glyph-name="u21F3" unicode="&#x21f3;" horiz-adv-x="434" 
d="M87 174l118 -118c3 -3 6 -5 12 -5s9 2 12 5l118 118h-66v252h66l-118 118c-3 3 -6 5 -12 5s-9 -2 -12 -5l-118 -118h66v-252h-66zM0 210h117v180h-117l205 205c3 3 6 5 12 5s9 -2 12 -5l205 -205h-117v-180h117l-205 -205c-3 -3 -6 -5 -12 -5s-9 2 -12 5z" />
    <glyph glyph-name="u21F5" unicode="&#x21f5;" horiz-adv-x="466" 
d="M0 159c0 5 2 11 12 11c24 0 71 -62 85 -62c5 0 8 3 8 14v384c0 10 4 19 20 19s20 -9 20 -19v-384c0 -11 3 -14 8 -14c14 0 61 62 85 62c10 0 12 -6 12 -11c0 -3 -1 -5 -3 -7c-50 -50 -93 -85 -113 -145c-1 -3 -4 -7 -9 -7s-8 4 -9 7c-20 60 -63 95 -113 145
c-2 2 -3 4 -3 7zM216 366c0 3 1 5 3 7c50 50 93 85 113 145c1 3 4 7 9 7s8 -4 9 -7c20 -60 63 -95 113 -145c2 -2 3 -4 3 -7c0 -5 -2 -11 -12 -11c-24 0 -71 62 -85 62c-5 0 -8 -3 -8 -14v-384c0 -10 -4 -19 -20 -19s-20 9 -20 19v384c0 11 -3 14 -8 14
c-14 0 -61 -62 -85 -62c-10 0 -12 6 -12 11z" />
    <glyph glyph-name="u21F6" unicode="&#x21f6;" 
d="M0 47c0 16 9 20 19 20h359c11 0 14 3 14 8c0 12 -60 61 -60 80s60 68 60 80c0 5 -3 8 -14 8h-359c-10 0 -19 4 -19 20c0 17 9 20 19 20h359c11 0 14 3 14 8c0 12 -60 61 -60 80s60 68 60 80c0 5 -3 8 -14 8h-359c-10 0 -19 4 -19 20s9 20 19 20h359c11 0 14 3 14 8
c0 14 -62 61 -62 85c0 10 6 12 11 12c3 0 5 -1 7 -3c50 -50 85 -93 145 -113c3 -1 7 -4 7 -9s-4 -8 -7 -9c-54 -18 -88 -55 -131 -99c43 -44 77 -81 131 -99c3 -1 7 -3 7 -9c0 -5 -4 -8 -7 -9c-54 -18 -88 -55 -131 -99c43 -44 77 -81 131 -99c3 -1 7 -4 7 -9s-4 -8 -7 -9
c-60 -20 -95 -63 -145 -113c-2 -2 -4 -3 -7 -3c-5 0 -11 2 -11 12c0 24 62 71 62 85c0 5 -3 8 -14 8h-359c-10 0 -19 4 -19 20z" />
    <glyph glyph-name="u221E" unicode="&#x221e;" 
d="M222 277c-11 20 -33 63 -112 63c-50 0 -82 -38 -82 -87c0 -40 20 -65 65 -65c60 0 109 59 129 89zM0 264c0 96 48 132 108 132c65 0 113 -48 135 -88c20 30 77 88 135 88c66 0 122 -30 122 -132c0 -96 -48 -132 -108 -132c-65 0 -114 48 -136 88
c-20 -30 -76 -88 -134 -88c-66 0 -122 30 -122 132zM278 251c11 -20 33 -63 112 -63c50 0 82 38 82 87c0 40 -20 65 -65 65c-60 0 -109 -59 -129 -89z" />
    <glyph glyph-name="u223C" unicode="&#x223c;" horiz-adv-x="400" 
d="M0 199c0 78 48 145 103 145c75 0 134 -96 194 -96c80 0 68 96 90 96c10 0 13 -5 13 -15c0 -78 -48 -145 -103 -145c-75 0 -134 96 -194 96c-80 0 -68 -96 -90 -96c-10 0 -13 5 -13 15z" />
    <glyph glyph-name="u223D" unicode="&#x223d;" horiz-adv-x="400" 
d="M0 329c0 10 3 15 13 15c22 0 10 -96 90 -96c60 0 119 96 194 96c55 0 103 -67 103 -145c0 -10 -3 -15 -13 -15c-22 0 -10 96 -90 96c-60 0 -119 -96 -194 -96c-55 0 -103 67 -103 145z" />
    <glyph glyph-name="u223E" unicode="&#x223e;" horiz-adv-x="400" 
d="M0 264c0 75 39 115 83 115c108 0 114 -170 234 -170c30 0 55 25 55 55s-25 55 -55 55c-17 0 -22 13 -22 30s5 30 22 30c44 0 83 -40 83 -115s-39 -115 -83 -115c-108 0 -114 170 -234 170c-30 0 -55 -25 -55 -55s25 -55 55 -55c17 0 22 -13 22 -30s-5 -30 -22 -30
c-44 0 -83 40 -83 115z" />
    <glyph glyph-name="u223F" unicode="&#x223f;" horiz-adv-x="400" 
d="M0 264c0 52 42 130 100 130c109 0 123 -220 200 -220c42 0 60 62 64 90c1 7 6 15 18 15s18 -5 18 -15c0 -52 -42 -130 -100 -130c-109 0 -123 220 -200 220c-42 0 -60 -62 -64 -90c-1 -7 -6 -15 -18 -15s-18 5 -18 15z" />
    <glyph glyph-name="u2248" unicode="&#x2248;" horiz-adv-x="400" 
d="M0 119c0 78 48 145 103 145c75 0 134 -96 194 -96c80 0 68 96 90 96c10 0 13 -5 13 -15c0 -78 -48 -145 -103 -145c-75 0 -134 96 -194 96c-80 0 -68 -96 -90 -96c-10 0 -13 5 -13 15zM0 279c0 78 48 145 103 145c75 0 134 -96 194 -96c80 0 68 96 90 96
c10 0 13 -5 13 -15c0 -78 -48 -145 -103 -145c-75 0 -134 96 -194 96c-80 0 -68 -96 -90 -96c-10 0 -13 5 -13 15z" />
    <glyph glyph-name="u2249" unicode="&#x2249;" horiz-adv-x="400" 
d="M0 119c0 78 48 145 103 145c22 0 43 -8 63 -20l23 72c-30 23 -58 44 -86 44c-80 0 -68 -96 -90 -96c-10 0 -13 5 -13 15c0 78 48 145 103 145c38 0 73 -25 105 -50l29 92c4 12 12 18 24 18c16 0 26 -12 26 -27c0 -5 -1 -9 -3 -15l-31 -99c15 -9 29 -15 44 -15
c80 0 68 96 90 96c10 0 13 -5 13 -15c0 -78 -48 -145 -103 -145c-22 0 -43 8 -63 20l-23 -72c30 -22 58 -44 86 -44c80 0 68 96 90 96c10 0 13 -5 13 -15c0 -78 -48 -145 -103 -145c-38 0 -72 25 -104 49l-29 -91c-4 -12 -13 -18 -25 -18c-16 0 -26 12 -26 27c0 5 1 9 3 15
l32 99c-15 9 -30 15 -45 15c-80 0 -68 -96 -90 -96c-10 0 -13 5 -13 15z" />
    <glyph glyph-name="u224A" unicode="&#x224a;" horiz-adv-x="400" 
d="M0 92c0 17 5 28 22 28h356c17 0 22 -11 22 -28s-5 -28 -22 -28h-356c-17 0 -22 11 -22 28zM0 165c0 78 48 145 103 145c75 0 134 -96 194 -96c80 0 68 96 90 96c10 0 13 -5 13 -15c0 -78 -48 -145 -103 -145c-75 0 -134 96 -194 96c-80 0 -68 -96 -90 -96
c-10 0 -13 5 -13 15zM0 319c0 78 48 145 103 145c75 0 134 -96 194 -96c80 0 68 96 90 96c10 0 13 -5 13 -15c0 -78 -48 -145 -103 -145c-75 0 -134 96 -194 96c-80 0 -68 -96 -90 -96c-10 0 -13 5 -13 15z" />
    <glyph glyph-name="u224B" unicode="&#x224b;" horiz-adv-x="400" 
d="M0 335c0 78 48 145 103 145c75 0 134 -96 194 -96c80 0 68 96 90 96c10 0 13 -5 13 -15c0 -78 -48 -145 -103 -145c-75 0 -134 96 -194 96c-80 0 -68 -96 -90 -96c-10 0 -13 5 -13 15zM0 63c0 78 48 145 103 145c75 0 134 -96 194 -96c80 0 68 96 90 96
c10 0 13 -5 13 -15c0 -78 -48 -145 -103 -145c-75 0 -134 96 -194 96c-80 0 -68 -96 -90 -96c-10 0 -13 5 -13 15zM0 199c0 78 48 145 103 145c75 0 134 -96 194 -96c80 0 68 96 90 96c10 0 13 -5 13 -15c0 -78 -48 -145 -103 -145c-75 0 -134 96 -194 96
c-80 0 -68 -96 -90 -96c-10 0 -13 5 -13 15z" />
    <glyph glyph-name="u2303" unicode="&#x2303;" horiz-adv-x="300" 
d="M0 311c0 3 1 5 3 7c50 50 108 140 138 200c2 4 4 7 9 7s7 -3 9 -7c30 -60 88 -150 138 -200c2 -2 3 -4 3 -7c0 -5 -2 -11 -12 -11c-54 0 -106 120 -138 120s-84 -120 -138 -120c-10 0 -12 6 -12 11z" />
    <glyph glyph-name="u2304" unicode="&#x2304;" horiz-adv-x="300" 
d="M0 134c0 5 2 11 12 11c54 0 106 -120 138 -120s84 120 138 120c10 0 12 -6 12 -11c0 -3 -1 -5 -3 -7c-50 -50 -108 -140 -138 -200c-2 -4 -4 -7 -9 -7s-7 3 -9 7c-30 60 -88 150 -138 200c-2 2 -3 4 -3 7z" />
    <glyph glyph-name="u2307" unicode="&#x2307;" horiz-adv-x="136" 
d="M0 98c0 30 68 57 68 108c0 20 -11 27 -31 42l-26 20c-8 6 -11 13 -11 24c0 30 68 58 68 109c0 20 -11 27 -31 42l-29 22c-5 4 -8 8 -8 15c0 11 9 20 20 20c4 0 9 -1 12 -4l93 -70c8 -6 11 -13 11 -24c0 -30 -68 -58 -68 -109c0 -22 15 -30 31 -42l26 -20
c8 -6 11 -13 11 -24c0 -30 -68 -57 -68 -108c0 -22 15 -30 31 -42l29 -22c5 -4 8 -8 8 -15c0 -11 -9 -20 -20 -20c-4 0 -9 1 -12 4l-93 70c-8 6 -11 13 -11 24z" />
    <glyph glyph-name="u2316" unicode="&#x2316;" horiz-adv-x="470" 
d="M0 305c0 8 2 14 10 14h76c7 72 63 128 135 135v76c0 8 6 10 14 10s14 -2 14 -10v-76c72 -7 128 -63 135 -135h76c8 0 10 -6 10 -14s-2 -14 -10 -14h-76c-7 -72 -63 -128 -135 -135v-76c0 -8 -6 -10 -14 -10s-14 2 -14 10v76c-72 7 -128 63 -135 135h-76
c-8 0 -10 6 -10 14zM264 305c0 8 10 14 20 14h64c-6 52 -47 93 -99 99v-64c0 -10 -6 -20 -14 -20s-14 10 -14 20v64c-52 -6 -93 -47 -99 -99h64c10 0 20 -6 20 -14s-10 -14 -20 -14h-64c6 -52 47 -93 99 -99v64c0 10 6 20 14 20s14 -10 14 -20v-64c52 6 93 47 99 99h-64
c-10 0 -20 6 -20 14z" />
    <glyph glyph-name="u2318" unicode="&#x2318;" 
d="M168 332v64c0 35 -29 64 -64 64s-64 -29 -64 -64s29 -64 64 -64h64zM332 332h64c35 0 64 29 64 64s-29 64 -64 64s-64 -29 -64 -64v-64zM332 168v-64c0 -35 29 -64 64 -64s64 29 64 64s-29 64 -64 64h-64zM168 168h-64c-35 0 -64 -29 -64 -64s29 -64 64 -64s64 29 64 64
v64zM0 104c0 57 47 104 104 104h64v84h-64c-57 0 -104 47 -104 104s47 104 104 104s104 -47 104 -104v-64h84v64c0 57 47 104 104 104s104 -47 104 -104s-47 -104 -104 -104h-64v-84h64c57 0 104 -47 104 -104s-47 -104 -104 -104s-104 47 -104 104v64h-84v-64
c0 -57 -47 -104 -104 -104s-104 47 -104 104zM208 208h84v84h-84v-84z" />
    <glyph glyph-name="u231A" unicode="&#x231a;" horiz-adv-x="660" 
d="M310 610v40h40v-40h-40zM310 150v40h40v-40h-40zM80 380v40h40v-40h-40zM540 380v40h40v-40h-40zM418 592l20 34l34 -20l-20 -34zM188 606l34 20l20 -34l-34 -20zM104 508l20 34l34 -20l-20 -34zM418 208l34 20l20 -34l-34 -20zM502 278l20 34l34 -20l-20 -34zM188 194
l20 34l34 -20l-20 -34zM104 292l34 20l20 -34l-34 -20zM186 495c0 8 7 9 10 9l105 -9l-23 -33l54 -39l144 84l-20 36h103c6 0 11 -3 11 -9c0 -3 -1 -5 -2 -7l-52 -89l-20 35l-153 -89c-5 -3 -9 -4 -13 -4s-8 1 -12 4l-63 45l-23 -33l-44 92c-1 2 -2 4 -2 7zM330 690
c-160 0 -290 -130 -290 -290s130 -290 290 -290s290 130 290 290s-130 290 -290 290zM487 690c103 -56 173 -165 173 -290s-70 -234 -173 -290v-110h-314v110c-103 56 -173 165 -173 290s70 234 173 290v110h314v-110z" />
    <glyph glyph-name="u231B" unicode="&#x231b;" horiz-adv-x="400" 
d="M245 134v30h36v-30h-36zM182 134v30h36v-30h-36zM119 134v30h36v-30h-36zM275 74v30h36v-30h-36zM213 74v30h36v-30h-36zM151 74v30h36v-30h-36zM89 74v30h36v-30h-36zM0 22c0 12 10 22 22 22c0 120 57 206 107 256c-50 50 -107 136 -107 256c-12 0 -22 10 -22 22
s10 22 22 22h356c12 0 22 -10 22 -22s-10 -22 -22 -22c0 -120 -57 -206 -107 -256c50 -50 107 -136 107 -256c12 0 22 -10 22 -22s-10 -22 -22 -22h-356c-12 0 -22 10 -22 22zM58 44h284c0 120 -57 191 -107 241c-2 2 -4 4 -4 15s2 13 4 15c50 50 107 121 107 241h-284
c0 -120 57 -191 107 -241c2 -2 4 -4 4 -15s-2 -13 -4 -15c-50 -50 -107 -121 -107 -241z" />
    <glyph glyph-name="u2324" unicode="&#x2324;" 
d="M340 495c0 17 3 30 20 30h120c17 0 20 -13 20 -30s-3 -30 -20 -30h-120c-17 0 -20 13 -20 30zM0 495c0 17 3 30 20 30h120c17 0 20 -13 20 -30s-3 -30 -20 -30h-120c-17 0 -20 13 -20 30zM100 311c0 3 1 5 3 7c50 50 108 140 138 200c2 4 4 7 9 7s7 -3 9 -7
c30 -60 88 -150 138 -200c2 -2 3 -4 3 -7c0 -5 -2 -11 -12 -11c-70 0 -108 120 -138 120s-68 -120 -138 -120c-10 0 -12 6 -12 11z" />
    <glyph glyph-name="u2325" unicode="&#x2325;" horiz-adv-x="460" 
d="M0 350c0 17 3 26 20 26h122c17 0 31 -3 45 -20l108 -132c14 -17 28 -20 45 -20h100c17 0 20 -9 20 -26s-3 -26 -20 -26h-122c-17 0 -31 3 -45 20l-108 132c-14 17 -28 20 -45 20h-100c-17 0 -20 9 -20 26zM300 350c0 17 3 26 20 26h120c17 0 20 -9 20 -26s-3 -26 -20 -26
h-120c-17 0 -20 9 -20 26z" />
    <glyph glyph-name="u2326" unicode="&#x2326;" horiz-adv-x="620" 
d="M44 101h351l163 163l-163 163h-351v-326zM0 57v414h413l207 -207l-207 -207h-413zM119 162c0 6 2 12 6 16l86 86l-86 86c-4 4 -6 10 -6 16c0 13 10 23 23 23c6 0 12 -2 16 -6l86 -86l86 86c4 4 10 6 16 6c13 0 23 -10 23 -23c0 -6 -2 -12 -6 -16l-86 -86l86 -86
c4 -4 6 -10 6 -16c0 -13 -10 -23 -23 -23c-6 0 -12 2 -16 6l-86 86l-86 -86c-4 -4 -10 -6 -16 -6c-13 0 -23 10 -23 23z" />
    <glyph glyph-name="u2327" unicode="&#x2327;" 
d="M44 101h412v326h-412v-326zM0 57v414h500v-414h-500zM125 162c0 6 2 12 6 16l86 86l-86 86c-4 4 -6 10 -6 16c0 13 10 23 23 23c6 0 12 -2 16 -6l86 -86l86 86c4 4 10 6 16 6c13 0 23 -10 23 -23c0 -6 -2 -12 -6 -16l-86 -86l86 -86c4 -4 6 -10 6 -16
c0 -13 -10 -23 -23 -23c-6 0 -12 2 -16 6l-86 86l-86 -86c-4 -4 -10 -6 -16 -6c-13 0 -23 10 -23 23z" />
    <glyph glyph-name="u2328" unicode="&#x2328;" horiz-adv-x="600" 
d="M0 97v334c0 22 18 40 40 40h520c22 0 40 -18 40 -40v-334c0 -22 -18 -40 -40 -40h-520c-22 0 -40 18 -40 40zM439 359c0 17 3 26 20 26h34c17 0 20 -9 20 -26s-3 -26 -20 -26h-34c-17 0 -20 9 -20 26zM322 359c0 17 3 26 20 26h34c17 0 20 -9 20 -26s-3 -26 -20 -26h-34
c-17 0 -20 9 -20 26zM204 359c0 17 3 26 20 26h34c17 0 20 -9 20 -26s-3 -26 -20 -26h-34c-17 0 -20 9 -20 26zM87 359c0 17 3 26 20 26h34c17 0 20 -9 20 -26s-3 -26 -20 -26h-34c-17 0 -20 9 -20 26zM439 265c0 17 3 26 20 26h34c17 0 20 -9 20 -26s-3 -26 -20 -26h-34
c-17 0 -20 9 -20 26zM322 265c0 17 3 26 20 26h34c17 0 20 -9 20 -26s-3 -26 -20 -26h-34c-17 0 -20 9 -20 26zM204 265c0 17 3 26 20 26h34c17 0 20 -9 20 -26s-3 -26 -20 -26h-34c-17 0 -20 9 -20 26zM87 265c0 17 3 26 20 26h34c17 0 20 -9 20 -26s-3 -26 -20 -26h-34
c-17 0 -20 9 -20 26zM140 170c0 17 3 26 20 26h280c17 0 20 -9 20 -26s-3 -26 -20 -26h-280c-17 0 -20 9 -20 26zM44 101h512v326h-512v-326z" />
    <glyph glyph-name="u232B" unicode="&#x232b;" horiz-adv-x="620" 
d="M62 264l163 -163h351v326h-351zM0 264l207 207h413v-414h-413zM251 162c0 6 2 12 6 16l86 86l-86 86c-4 4 -6 10 -6 16c0 13 10 23 23 23c6 0 12 -2 16 -6l86 -86l86 86c4 4 10 6 16 6c13 0 23 -10 23 -23c0 -6 -2 -12 -6 -16l-86 -86l86 -86c4 -4 6 -10 6 -16
c0 -13 -10 -23 -23 -23c-6 0 -12 2 -16 6l-86 86l-86 -86c-4 -4 -10 -6 -16 -6c-13 0 -23 10 -23 23z" />
    <glyph glyph-name="u23CE" unicode="&#x23ce;" horiz-adv-x="340" 
d="M34 263c0 -6 2 -9 5 -12l77 -77v48h94c59 0 106 47 106 106v148c0 22 -15 25 -41 25s-41 -3 -41 -25v-107c0 -36 -29 -65 -65 -65h-53v48l-77 -77c-3 -3 -5 -6 -5 -12zM0 263c0 6 2 9 5 12l135 135v-82h29c23 0 41 18 41 41v116c0 24 18 40 65 40s65 -16 65 -40v-157
c0 -72 -58 -130 -130 -130h-70v-82l-135 135c-3 3 -5 6 -5 12z" />
    <glyph glyph-name="u23CF" unicode="&#x23cf;" 
d="M0 40v40c0 22 18 40 40 40h420c22 0 40 -18 40 -40v-40c0 -22 -18 -40 -40 -40h-420c-22 0 -40 18 -40 40zM0 232c0 6 3 14 6 20l224 366c4 6 10 12 20 12s16 -6 20 -12l224 -366c3 -6 6 -14 6 -20c0 -20 -16 -36 -36 -36h-428c-20 0 -36 16 -36 36z" />
    <glyph glyph-name="u23D1" unicode="&#x23d1;" horiz-adv-x="520" 
d="M20 384c0 9 7 16 16 16s14 -7 16 -16c14 -80 93 -144 208 -144s194 64 208 144c2 9 7 16 16 16s16 -7 16 -16c0 -122 -108 -224 -240 -224s-240 102 -240 224z" />
    <glyph glyph-name="u23D2" unicode="&#x23d2;" horiz-adv-x="520" 
d="M20 514c0 20 8 36 28 36h424c20 0 28 -16 28 -36s-8 -36 -28 -36h-424c-20 0 -28 16 -28 36zM20 384c0 9 7 16 16 16s14 -7 16 -16c14 -80 93 -144 208 -144s194 64 208 144c2 9 7 16 16 16s16 -7 16 -16c0 -122 -108 -224 -240 -224s-240 102 -240 224z" />
    <glyph glyph-name="u23D3" unicode="&#x23d3;" horiz-adv-x="520" 
d="M20 36c0 20 8 36 28 36h424c20 0 28 -16 28 -36s-8 -36 -28 -36h-424c-20 0 -28 16 -28 36zM20 384c0 9 7 16 16 16s14 -7 16 -16c14 -80 93 -144 208 -144s194 64 208 144c2 9 7 16 16 16s16 -7 16 -16c0 -122 -108 -224 -240 -224s-240 102 -240 224z" />
    <glyph glyph-name="u23D4" unicode="&#x23d4;" horiz-adv-x="1040" 
d="M540 384c0 9 7 16 16 16s14 -7 16 -16c14 -80 93 -144 208 -144s194 64 208 144c2 9 7 16 16 16s16 -7 16 -16c0 -122 -108 -224 -240 -224s-240 102 -240 224zM20 514c0 20 8 36 28 36h944c20 0 28 -16 28 -36s-8 -36 -28 -36h-944c-20 0 -28 16 -28 36zM20 384
c0 9 7 16 16 16s14 -7 16 -16c14 -80 93 -144 208 -144s194 64 208 144c2 9 7 16 16 16s16 -7 16 -16c0 -122 -108 -224 -240 -224s-240 102 -240 224z" />
    <glyph glyph-name="u23D5" unicode="&#x23d5;" horiz-adv-x="1040" 
d="M540 384c0 9 7 16 16 16s14 -7 16 -16c14 -80 93 -144 208 -144s194 64 208 144c2 9 7 16 16 16s16 -7 16 -16c0 -122 -108 -224 -240 -224s-240 102 -240 224zM20 36c0 20 8 36 28 36h944c20 0 28 -16 28 -36s-8 -36 -28 -36h-944c-20 0 -28 16 -28 36zM20 384
c0 9 7 16 16 16s14 -7 16 -16c14 -80 93 -144 208 -144s194 64 208 144c2 9 7 16 16 16s16 -7 16 -16c0 -122 -108 -224 -240 -224s-240 102 -240 224z" />
    <glyph glyph-name="u23D6" unicode="&#x23d6;" horiz-adv-x="968" 
d="M20 384c0 9 7 16 16 16s14 -7 16 -16c14 -80 93 -144 208 -144s194 64 208 144c0 9 7 16 16 16s16 -7 16 -16c14 -80 93 -144 208 -144s194 64 208 144c2 9 7 16 16 16s16 -7 16 -16c0 -122 -108 -224 -240 -224c-102 0 -189 60 -224 144c-35 -84 -122 -144 -224 -144
c-132 0 -240 102 -240 224z" />
    <glyph glyph-name="u23D7" unicode="&#x23d7;" horiz-adv-x="1040" 
d="M20 296c0 20 8 36 28 36h900v390c0 20 16 28 36 28s36 -8 36 -28v-426c0 -20 -16 -36 -36 -36h-936c-20 0 -28 16 -28 36z" />
    <glyph glyph-name="u23D8" unicode="&#x23d8;" horiz-adv-x="1040" 
d="M20 296v426c0 20 16 28 36 28s36 -8 36 -28v-390h856v390c0 20 16 28 36 28s36 -8 36 -28v-426c0 -20 -16 -36 -36 -36h-928c-20 0 -36 16 -36 36z" />
    <glyph glyph-name="u23D9" unicode="&#x23d9;" horiz-adv-x="1040" 
d="M20 296v426c0 20 16 28 36 28s36 -8 36 -28v-390h392v390c0 20 16 28 36 28s36 -8 36 -28v-390h392v390c0 20 16 28 36 28s36 -8 36 -28v-426c0 -20 -16 -36 -36 -36h-464h-464c-20 0 -36 16 -36 36z" />
    <glyph glyph-name="u23E9" unicode="&#x23e9;" horiz-adv-x="710" 
d="M380 96v428c0 20 16 36 36 36c6 0 14 -1 20 -6l262 -224c6 -5 12 -10 12 -20s-6 -15 -12 -20l-262 -224c-6 -5 -14 -6 -20 -6c-20 0 -36 16 -36 36zM0 96v428c0 20 16 36 36 36c6 0 14 -1 20 -6l262 -224c6 -5 12 -10 12 -20s-6 -15 -12 -20l-262 -224
c-6 -5 -14 -6 -20 -6c-20 0 -36 16 -36 36z" />
    <glyph glyph-name="u23EA" unicode="&#x23ea;" horiz-adv-x="710" 
d="M0 310c0 10 6 15 12 20l262 224c6 5 14 6 20 6c20 0 36 -16 36 -36v-428c0 -20 -16 -36 -36 -36c-6 0 -14 1 -20 6l-262 224c-6 5 -12 10 -12 20zM380 310c0 10 6 15 12 20l262 224c6 5 14 6 20 6c20 0 36 -16 36 -36v-428c0 -20 -16 -36 -36 -36c-6 0 -14 1 -20 6
l-262 224c-6 5 -12 10 -12 20z" />
    <glyph glyph-name="u23EB" unicode="&#x23eb;" 
d="M0 416c0 6 1 14 6 20l224 262c5 6 10 12 20 12s15 -6 20 -12l224 -262c5 -6 6 -14 6 -20c0 -20 -16 -36 -36 -36h-428c-20 0 -36 16 -36 36zM0 36c0 6 1 14 6 20l224 262c5 6 10 12 20 12s15 -6 20 -12l224 -262c5 -6 6 -14 6 -20c0 -20 -16 -36 -36 -36h-428
c-20 0 -36 16 -36 36z" />
    <glyph glyph-name="u23EC" unicode="&#x23ec;" 
d="M0 294c0 20 16 36 36 36h428c20 0 36 -16 36 -36c0 -6 -1 -14 -6 -20l-224 -262c-5 -6 -10 -12 -20 -12s-15 6 -20 12l-224 262c-5 6 -6 14 -6 20zM0 674c0 20 16 36 36 36h428c20 0 36 -16 36 -36c0 -6 -1 -14 -6 -20l-224 -262c-5 -6 -10 -12 -20 -12s-15 6 -20 12
l-224 262c-5 6 -6 14 -6 20z" />
    <glyph glyph-name="u23ED" unicode="&#x23ed;" horiz-adv-x="800" 
d="M350 96v428c0 20 16 36 36 36c6 0 15 -1 20 -6l232 -224c5 -5 12 -10 12 -20s-7 -15 -12 -20l-232 -224c-5 -5 -14 -6 -20 -6c-20 0 -36 16 -36 36zM700 100v420c0 22 18 40 40 40h20c22 0 40 -18 40 -40v-420c0 -22 -18 -40 -40 -40h-20c-22 0 -40 18 -40 40zM0 96v428
c0 20 16 36 36 36c6 0 15 -1 20 -6l232 -224c5 -5 12 -10 12 -20s-7 -15 -12 -20l-232 -224c-5 -5 -14 -6 -20 -6c-20 0 -36 16 -36 36z" />
    <glyph glyph-name="u23EE" unicode="&#x23ee;" horiz-adv-x="800" 
d="M150 310c0 10 7 15 12 20l232 224c5 5 14 6 20 6c20 0 36 -16 36 -36v-428c0 -20 -16 -36 -36 -36c-6 0 -15 1 -20 6l-232 224c-5 5 -12 10 -12 20zM0 100v420c0 22 18 40 40 40h20c22 0 40 -18 40 -40v-420c0 -22 -18 -40 -40 -40h-20c-22 0 -40 18 -40 40zM500 310
c0 10 7 15 12 20l232 224c5 5 14 6 20 6c20 0 36 -16 36 -36v-428c0 -20 -16 -36 -36 -36c-6 0 -15 1 -20 6l-232 224c-5 5 -12 10 -12 20z" />
    <glyph glyph-name="u23EF" unicode="&#x23ef;" horiz-adv-x="650" 
d="M550 100v420c0 22 18 40 40 40h20c22 0 40 -18 40 -40v-420c0 -22 -18 -40 -40 -40h-20c-22 0 -40 18 -40 40zM0 96v428c0 20 16 36 36 36c6 0 15 -1 20 -6l232 -224c5 -5 12 -10 12 -20s-7 -15 -12 -20l-232 -224c-5 -5 -14 -6 -20 -6c-20 0 -36 16 -36 36zM350 100v420
c0 22 18 40 40 40h20c22 0 40 -18 40 -40v-420c0 -22 -18 -40 -40 -40h-20c-22 0 -40 18 -40 40z" />
    <glyph glyph-name="u23F0" unicode="&#x23f0;" horiz-adv-x="660" 
d="M96 197c0 3 0 4 2 8l56 104l25 -41l129 78v146h-48l61 102c1 2 4 6 9 6s8 -4 9 -6l61 -102h-48v-171l-151 -90l25 -42h-119c-7 0 -11 3 -11 8zM49 553c-10 14 -23 36 -23 61c0 63 77 119 142 119c37 0 62 -22 77 -54c-87 -23 -143 -58 -196 -126zM415 679
c15 32 40 54 77 54c65 0 142 -56 142 -119c0 -25 -13 -47 -23 -61c-53 68 -109 103 -196 126zM188 124l20 34l34 -20l-20 -34zM502 208l20 34l34 -20l-20 -34zM418 138l34 20l20 -34l-34 -20zM104 438l20 34l34 -20l-20 -34zM188 536l34 20l20 -34l-34 -20zM502 452l34 20
l20 -34l-34 -20zM418 522l20 34l34 -20l-20 -34zM540 310v40h40v-40h-40zM80 310v40h40v-40h-40zM310 80v40h40v-40h-40zM40 330c0 -160 130 -290 290 -290s290 130 290 290s-130 290 -290 290s-290 -130 -290 -290zM0 330c0 182 148 330 330 330s330 -148 330 -330
s-148 -330 -330 -330s-330 148 -330 330zM0 0l55 100l74 -67l-18 -33h-111zM531 33l74 67l55 -100h-111zM310 706c-9 6 -15 17 -15 29c0 19 16 35 35 35s35 -16 35 -35c0 -12 -6 -23 -15 -29v-20h-40v20z" />
    <glyph glyph-name="u23F1" unicode="&#x23f1;" horiz-adv-x="660" 
d="M554 611l49 49l57 -57l-49 -49zM240 686v70h180v-70h-180zM260 492l61 102c1 2 4 6 9 6s8 -4 9 -6l61 -102h-48v-192h-44v192h-48zM104 222l34 20l20 -34l-34 -20zM188 124l20 34l34 -20l-20 -34zM502 208l20 34l34 -20l-20 -34zM418 138l34 20l20 -34l-34 -20zM104 438
l20 34l34 -20l-20 -34zM188 536l34 20l20 -34l-34 -20zM502 452l34 20l20 -34l-34 -20zM418 522l20 34l34 -20l-20 -34zM540 310v40h40v-40h-40zM80 310v40h40v-40h-40zM310 80v40h40v-40h-40zM40 330c0 -160 130 -290 290 -290s290 130 290 290s-130 290 -290 290
s-290 -130 -290 -290zM0 330c0 182 148 330 330 330s330 -148 330 -330s-148 -330 -330 -330s-330 148 -330 330z" />
    <glyph glyph-name="u23F2" unicode="&#x23f2;" horiz-adv-x="660" 
d="M290 330c0 17 10 31 25 37l151 65c4 2 8 3 11 3c11 0 20 -9 20 -20c0 -7 -3 -12 -8 -16l-130 -97c-8 -6 -18 -12 -29 -12c-22 0 -40 18 -40 40zM104 222l34 20l20 -34l-34 -20zM188 124l20 34l34 -20l-20 -34zM502 208l20 34l34 -20l-20 -34zM418 138l34 20l20 -34
l-34 -20zM104 438l20 34l34 -20l-20 -34zM188 536l34 20l20 -34l-34 -20zM502 452l34 20l20 -34l-34 -20zM418 522l20 34l34 -20l-20 -34zM540 310v40h40v-40h-40zM80 310v40h40v-40h-40zM310 80v40h40v-40h-40zM310 540v40h40v-40h-40zM40 330c0 -160 130 -290 290 -290
s290 130 290 290s-130 290 -290 290s-290 -130 -290 -290zM0 330c0 182 148 330 330 330s330 -148 330 -330s-148 -330 -330 -330s-330 148 -330 330z" />
    <glyph glyph-name="u23F3" unicode="&#x23f3;" horiz-adv-x="400" 
d="M213 134v30h36v-30h-36zM151 134v30h36v-30h-36zM213 374v30h36v-30h-36zM151 374v30h36v-30h-36zM182 314v30h36v-30h-36zM182 254v30h36v-30h-36zM182 194v30h36v-30h-36zM275 74v30h36v-30h-36zM213 74v30h36v-30h-36zM151 74v30h36v-30h-36zM89 74v30h36v-30h-36z
M0 22c0 12 10 22 22 22c0 120 57 206 107 256c-50 50 -107 136 -107 256c-12 0 -22 10 -22 22s10 22 22 22h356c12 0 22 -10 22 -22s-10 -22 -22 -22c0 -120 -57 -206 -107 -256c50 -50 107 -136 107 -256c12 0 22 -10 22 -22s-10 -22 -22 -22h-356c-12 0 -22 10 -22 22z
M58 44h284c0 120 -57 191 -107 241c-2 2 -4 4 -4 15s2 13 4 15c50 50 107 121 107 241h-284c0 -120 57 -191 107 -241c2 -2 4 -4 4 -15s-2 -13 -4 -15c-50 -50 -107 -121 -107 -241z" />
    <glyph glyph-name="u23F4" unicode="&#x23f4;" horiz-adv-x="330" 
d="M0 310c0 10 6 15 12 20l262 224c6 5 14 6 20 6c20 0 36 -16 36 -36v-428c0 -20 -16 -36 -36 -36c-6 0 -14 1 -20 6l-262 224c-6 5 -12 10 -12 20z" />
    <glyph glyph-name="u23F5" unicode="&#x23f5;" horiz-adv-x="330" 
d="M0 96v428c0 20 16 36 36 36c6 0 14 -1 20 -6l262 -224c6 -5 12 -10 12 -20s-6 -15 -12 -20l-262 -224c-6 -5 -14 -6 -20 -6c-20 0 -36 16 -36 36z" />
    <glyph glyph-name="u23F6" unicode="&#x23f6;" 
d="M0 176c0 6 1 14 6 20l224 262c5 6 10 12 20 12s15 -6 20 -12l224 -262c5 -6 6 -14 6 -20c0 -20 -16 -36 -36 -36h-428c-20 0 -36 16 -36 36z" />
    <glyph glyph-name="u23F7" unicode="&#x23f7;" 
d="M0 434c0 20 16 36 36 36h428c20 0 36 -16 36 -36c0 -6 -1 -14 -6 -20l-224 -262c-5 -6 -10 -12 -20 -12s-15 6 -20 12l-224 262c-5 6 -6 14 -6 20z" />
    <glyph glyph-name="u23F8" unicode="&#x23f8;" horiz-adv-x="400" 
d="M260 100v420c0 22 18 40 40 40h60c22 0 40 -18 40 -40v-420c0 -22 -18 -40 -40 -40h-60c-22 0 -40 18 -40 40zM0 100v420c0 22 18 40 40 40h60c22 0 40 -18 40 -40v-420c0 -22 -18 -40 -40 -40h-60c-22 0 -40 18 -40 40z" />
    <glyph glyph-name="u23F9" unicode="&#x23f9;" 
d="M0 100v420c0 22 18 40 40 40h420c22 0 40 -18 40 -40v-420c0 -22 -18 -40 -40 -40h-420c-22 0 -40 18 -40 40z" />
    <glyph glyph-name="u23FA" unicode="&#x23fa;" 
d="M0 310c0 138 112 250 250 250s250 -112 250 -250s-112 -250 -250 -250s-250 112 -250 250z" />
    <glyph glyph-name="u2588" unicode="&#x2588;" horiz-adv-x="1000" 
d="M0 0v1000h1000v-1000h-1000z" />
    <glyph glyph-name="u2591" unicode="&#x2591;" horiz-adv-x="1000" 
d="M852 850v96h96v-96h-96zM652 850v96h96v-96h-96zM452 850v96h96v-96h-96zM252 850v96h96v-96h-96zM52 850v96h96v-96h-96zM852 650v96h96v-96h-96zM652 650v96h96v-96h-96zM452 650v96h96v-96h-96zM252 650v96h96v-96h-96zM52 650v96h96v-96h-96zM852 450v96h96v-96h-96z
M652 450v96h96v-96h-96zM452 450v96h96v-96h-96zM252 450v96h96v-96h-96zM52 450v96h96v-96h-96zM852 250v96h96v-96h-96zM652 250v96h96v-96h-96zM452 250v96h96v-96h-96zM252 250v96h96v-96h-96zM52 250v96h96v-96h-96zM852 50v96h96v-96h-96zM652 50v96h96v-96h-96z
M452 50v96h96v-96h-96zM252 50v96h96v-96h-96zM52 50v96h96v-96h-96z" />
    <glyph glyph-name="u2592" unicode="&#x2592;" horiz-adv-x="1000" 
d="M902 900v96h96v-96h-96zM702 900v96h96v-96h-96zM502 900v96h96v-96h-96zM302 900v96h96v-96h-96zM102 900v96h96v-96h-96zM902 700v96h96v-96h-96zM702 700v96h96v-96h-96zM502 700v96h96v-96h-96zM302 700v96h96v-96h-96zM102 700v96h96v-96h-96zM902 500v96h96v-96
h-96zM702 500v96h96v-96h-96zM502 500v96h96v-96h-96zM302 500v96h96v-96h-96zM102 500v96h96v-96h-96zM902 300v96h96v-96h-96zM702 300v96h96v-96h-96zM502 300v96h96v-96h-96zM302 300v96h96v-96h-96zM102 300v96h96v-96h-96zM902 100v96h96v-96h-96zM702 100v96h96v-96
h-96zM502 100v96h96v-96h-96zM302 100v96h96v-96h-96zM102 100v96h96v-96h-96zM802 800v96h96v-96h-96zM602 800v96h96v-96h-96zM402 800v96h96v-96h-96zM202 800v96h96v-96h-96zM2 800v96h96v-96h-96zM802 600v96h96v-96h-96zM602 600v96h96v-96h-96zM402 600v96h96v-96
h-96zM202 600v96h96v-96h-96zM2 600v96h96v-96h-96zM802 400v96h96v-96h-96zM602 400v96h96v-96h-96zM402 400v96h96v-96h-96zM202 400v96h96v-96h-96zM2 400v96h96v-96h-96zM802 200v96h96v-96h-96zM602 200v96h96v-96h-96zM402 200v96h96v-96h-96zM202 200v96h96v-96h-96z
M2 200v96h96v-96h-96zM802 0v96h96v-96h-96zM602 0v96h96v-96h-96zM402 0v96h96v-96h-96zM202 0v96h96v-96h-96zM2 0v96h96v-96h-96z" />
    <glyph glyph-name="u2593" unicode="&#x2593;" horiz-adv-x="1000" 
d="M0 0v1000h1000v-1000h-1000zM852 850h96v96h-96v-96zM652 850h96v96h-96v-96zM452 850h96v96h-96v-96zM252 850h96v96h-96v-96zM52 850h96v96h-96v-96zM852 650h96v96h-96v-96zM652 650h96v96h-96v-96zM452 650h96v96h-96v-96zM252 650h96v96h-96v-96zM52 650h96v96h-96
v-96zM852 450h96v96h-96v-96zM652 450h96v96h-96v-96zM452 450h96v96h-96v-96zM252 450h96v96h-96v-96zM52 450h96v96h-96v-96zM852 250h96v96h-96v-96zM652 250h96v96h-96v-96zM452 250h96v96h-96v-96zM252 250h96v96h-96v-96zM52 250h96v96h-96v-96zM852 50h96v96h-96v-96
zM652 50h96v96h-96v-96zM452 50h96v96h-96v-96zM252 50h96v96h-96v-96zM52 50h96v96h-96v-96z" />
    <glyph glyph-name="u25A0" unicode="&#x25a0;" horiz-adv-x="600" 
d="M0 0v600h600v-600h-600z" />
    <glyph glyph-name="u25A1" unicode="&#x25a1;" horiz-adv-x="600" 
d="M36 36h528v528h-528v-528zM0 0v600h600v-600h-600z" />
    <glyph glyph-name="u25A2" unicode="&#x25a2;" horiz-adv-x="600" 
d="M0 141v318c0 82 59 141 141 141h318c82 0 141 -59 141 -141v-318c0 -82 -59 -141 -141 -141h-318c-82 0 -141 59 -141 141zM36 138c0 -60 42 -102 102 -102h324c60 0 102 42 102 102v324c0 60 -42 102 -102 102h-324c-60 0 -102 -42 -102 -102v-324z" />
    <glyph glyph-name="u25A3" unicode="&#x25a3;" horiz-adv-x="600" 
d="M200 200v200h200v-200h-200zM36 36h528v528h-528v-528zM0 0v600h600v-600h-600z" />
    <glyph glyph-name="u25A4" unicode="&#x25a4;" horiz-adv-x="600" 
d="M0 0v600h600v-600h-600zM36 36h528v84h-528v-84zM36 147h528v84h-528v-84zM36 258h528v84h-528v-84zM36 369h528v84h-528v-84zM36 480h528v84h-528v-84z" />
    <glyph glyph-name="u25A5" unicode="&#x25a5;" horiz-adv-x="600" 
d="M0 0v600h600v-600h-600zM480 36h84v528h-84v-528zM369 36h84v528h-84v-528zM258 36h84v528h-84v-528zM147 36h84v528h-84v-528zM36 36h84v528h-84v-528z" />
    <glyph glyph-name="u25A6" unicode="&#x25a6;" horiz-adv-x="600" 
d="M0 0v600h600v-600h-600zM480 36h84v84h-84v-84zM480 147h84v84h-84v-84zM36 36h84v84h-84v-84zM36 147h84v84h-84v-84zM480 258h84v84h-84v-84zM36 258h84v84h-84v-84zM480 369h84v84h-84v-84zM36 369h84v84h-84v-84zM480 480h84v84h-84v-84zM36 480h84v84h-84v-84z
M369 480h84v84h-84v-84zM369 369h84v84h-84v-84zM369 258h84v84h-84v-84zM369 147h84v84h-84v-84zM369 36h84v84h-84v-84zM258 480h84v84h-84v-84zM258 369h84v84h-84v-84zM258 258h84v84h-84v-84zM258 147h84v84h-84v-84zM258 36h84v84h-84v-84zM147 480h84v84h-84v-84z
M147 369h84v84h-84v-84zM147 258h84v84h-84v-84zM147 147h84v84h-84v-84zM147 36h84v84h-84v-84z" />
    <glyph glyph-name="u25A7" unicode="&#x25a7;" horiz-adv-x="600" 
d="M0 0v600h600v-600h-600zM36 504l468 -468h60v58l-470 470h-58v-60zM134 564l430 -430v118l-312 312h-118zM36 346l310 -310h118l-428 428v-118zM36 188l152 -152h118l-270 270v-118zM36 36h112l-112 112v-112zM292 564l272 -272v118l-154 154h-118zM450 564l114 -114v114
h-114z" />
    <glyph glyph-name="u25A8" unicode="&#x25a8;" horiz-adv-x="600" 
d="M0 0v600h600v-600h-600zM36 36h59l469 469v59h-59l-469 -469v-59zM36 135l429 429h-118l-311 -311v-118zM135 36h118l311 311v118zM293 36h118l153 153v118zM451 36h113v113zM36 293l271 271h-118l-153 -153v-118zM36 451l113 113h-113v-113z" />
    <glyph glyph-name="u25A9" unicode="&#x25a9;" horiz-adv-x="600" 
d="M0 0v600h600v-600h-600zM478 62l26 -26h60v58l-28 28zM36 504l26 -26l60 58l-28 28h-58v-60zM320 62l26 -26h65l27 26l-60 60zM36 346l27 -26l59 58l-60 60l-26 -27v-65zM162 62l26 -26h65l27 27l-60 59zM36 188l26 -26l60 58l-59 60l-27 -27v-65zM478 220l58 -58l28 27
v63l-28 27zM161 536l59 -58l60 58l-28 28h-63zM478 378l58 -58l28 27v63l-28 27zM319 536l59 -58l60 58l-28 28h-63zM477 536l59 -58l28 27v59h-59zM398 458l60 -60l58 60l-58 58zM320 378l58 -58l60 58l-60 60zM82 142l60 -60l58 60l-58 58zM36 36h59l27 26l-60 59l-26 -26
v-59zM162 220l58 -58l60 58l-60 60zM240 300l60 -60l58 60l-58 58zM240 458l60 -60l58 60l-58 58zM82 300l60 -60l58 60l-58 58zM162 378l58 -58l60 58l-60 60zM398 300l60 -60l58 60l-58 58zM240 142l60 -60l58 60l-58 58zM320 220l58 -58l60 58l-60 60zM398 142l60 -60
l58 60l-58 58zM82 458l60 -60l58 60l-59 58z" />
    <glyph glyph-name="u25AA" unicode="&#x25aa;" horiz-adv-x="180" 
d="M0 210v180h180v-180h-180z" />
    <glyph glyph-name="u25AB" unicode="&#x25ab;" horiz-adv-x="180" 
d="M26 236h128v128h-128v-128zM0 210v180h180v-180h-180z" />
    <glyph glyph-name="u25AC" unicode="&#x25ac;" horiz-adv-x="650" 
d="M0 0v350h650v-350h-650z" />
    <glyph glyph-name="u25AD" unicode="&#x25ad;" horiz-adv-x="650" 
d="M36 36h578v278h-578v-278zM0 0v350h650v-350h-650z" />
    <glyph glyph-name="u25AE" unicode="&#x25ae;" horiz-adv-x="350" 
d="M0 -150v650h350v-650h-350z" />
    <glyph glyph-name="u25AF" unicode="&#x25af;" horiz-adv-x="350" 
d="M36 -114h278v578h-278v-578zM0 -150v650h350v-650h-350z" />
    <glyph glyph-name="u25B0" unicode="&#x25b0;" horiz-adv-x="650" 
d="M0 0l120 350h530l-120 -350h-530z" />
    <glyph glyph-name="u25B1" unicode="&#x25b1;" horiz-adv-x="650" 
d="M50 36h454l96 278h-454zM0 0l120 350h530l-120 -350h-530z" />
    <glyph glyph-name="u25B2" unicode="&#x25b2;" horiz-adv-x="600" 
d="M0 40l300 520l300 -520h-600z" />
    <glyph glyph-name="u25B3" unicode="&#x25b3;" horiz-adv-x="600" 
d="M63 76h474l-237 411zM0 40l300 520l300 -520h-600z" />
    <glyph glyph-name="u25B4" unicode="&#x25b4;" horiz-adv-x="180" 
d="M0 222l90 156l90 -156h-180z" />
    <glyph glyph-name="u25B5" unicode="&#x25b5;" horiz-adv-x="180" 
d="M42 246h96l-48 84zM0 222l90 156l90 -156h-180z" />
    <glyph glyph-name="u25B6" unicode="&#x25b6;" horiz-adv-x="520" 
d="M0 0v600l520 -300z" />
    <glyph glyph-name="u25B7" unicode="&#x25b7;" horiz-adv-x="520" 
d="M36 63l411 237l-411 237v-474zM0 0v600l520 -300z" />
    <glyph glyph-name="u25B8" unicode="&#x25b8;" horiz-adv-x="156" 
d="M0 210v180l156 -90z" />
    <glyph glyph-name="u25B9" unicode="&#x25b9;" horiz-adv-x="156" 
d="M24 252l84 48l-84 48v-96zM0 210v180l156 -90z" />
    <glyph glyph-name="u25BA" unicode="&#x25ba;" horiz-adv-x="300" 
d="M0 210v180l300 -90z" />
    <glyph glyph-name="u25BB" unicode="&#x25bb;" horiz-adv-x="300" 
d="M24 242l193 58l-193 58v-116zM0 210v180l300 -90z" />
    <glyph glyph-name="u25BC" unicode="&#x25bc;" horiz-adv-x="600" 
d="M0 560h600l-300 -520z" />
    <glyph glyph-name="u25BD" unicode="&#x25bd;" horiz-adv-x="600" 
d="M63 524l237 -411l237 411h-474zM0 560h600l-300 -520z" />
    <glyph glyph-name="u25BE" unicode="&#x25be;" horiz-adv-x="180" 
d="M0 378h180l-90 -156z" />
    <glyph glyph-name="u25BF" unicode="&#x25bf;" horiz-adv-x="180" 
d="M42 354l48 -84l48 84h-96zM0 378h180l-90 -156z" />
    <glyph glyph-name="u25C0" unicode="&#x25c0;" horiz-adv-x="520" 
d="M0 300l520 300v-600z" />
    <glyph glyph-name="u25C1" unicode="&#x25c1;" horiz-adv-x="520" 
d="M73 300l411 -237v474zM0 300l520 300v-600z" />
    <glyph glyph-name="u25C2" unicode="&#x25c2;" horiz-adv-x="156" 
d="M0 300l156 90v-180z" />
    <glyph glyph-name="u25C3" unicode="&#x25c3;" horiz-adv-x="156" 
d="M48 300l84 -48v96zM0 300l156 90v-180z" />
    <glyph glyph-name="u25C4" unicode="&#x25c4;" horiz-adv-x="300" 
d="M0 300l300 90v-180z" />
    <glyph glyph-name="u25C5" unicode="&#x25c5;" horiz-adv-x="300" 
d="M83 300l193 -58v116zM0 300l300 90v-180z" />
    <glyph glyph-name="u25C6" unicode="&#x25c6;" horiz-adv-x="600" 
d="M0 300l300 300l300 -300l-300 -300z" />
    <glyph glyph-name="u25C7" unicode="&#x25c7;" horiz-adv-x="600" 
d="M51 300l249 -249l249 249l-249 249zM0 300l300 300l300 -300l-300 -300z" />
    <glyph glyph-name="u25C8" unicode="&#x25c8;" horiz-adv-x="600" 
d="M200 300l100 100l100 -100l-100 -100zM51 300l249 -249l249 249l-249 249zM0 300l300 300l300 -300l-300 -300z" />
    <glyph glyph-name="u25C9" unicode="&#x25c9;" horiz-adv-x="600" 
d="M125 300c0 97 78 175 175 175s175 -78 175 -175s-78 -175 -175 -175s-175 78 -175 175zM36 300c0 -146 118 -264 264 -264s264 118 264 264s-118 264 -264 264s-264 -118 -264 -264zM0 300c0 166 134 300 300 300s300 -134 300 -300s-134 -300 -300 -300
s-300 134 -300 300z" />
    <glyph glyph-name="u25CA" unicode="&#x25ca;" horiz-adv-x="310" 
d="M42 300l113 -182l113 182l-113 182zM0 300l155 250l155 -250l-155 -250z" />
    <glyph glyph-name="u25CB" unicode="&#x25cb;" horiz-adv-x="600" 
d="M36 300c0 -146 118 -264 264 -264s264 118 264 264s-118 264 -264 264s-264 -118 -264 -264zM0 300c0 166 134 300 300 300s300 -134 300 -300s-134 -300 -300 -300s-300 134 -300 300z" />
    <glyph glyph-name="u25CC" unicode="&#x25cc;" horiz-adv-x="600" 
d="M8 227l35 9l11 -35l-33 -14zM45 141l31 18l21 -29l-27 -23zM107 70l23 27l29 -21l-18 -31zM187 21l14 33l35 -11l-9 -35zM0 279v42l36 -3v-36zM8 373l13 40l33 -14l-11 -35zM45 459l25 34l27 -23l-21 -29zM107 530l34 25l18 -31l-29 -21zM187 579l40 13l9 -35l-35 -11z
M546 201l11 35l35 -9l-13 -40zM503 130l21 29l31 -18l-25 -34zM441 76l29 21l23 -27l-34 -25zM364 43l35 11l14 -33l-40 -13zM279 0l3 36h36l3 -36h-42zM564 282v36l36 3v-42zM546 399l33 14l13 -40l-35 -9zM503 470l27 23l25 -34l-31 -18zM441 524l18 31l34 -25l-23 -27z
M364 557l9 35l40 -13l-14 -33zM279 600h42l-3 -36h-36z" />
    <glyph glyph-name="u25CD" unicode="&#x25cd;" horiz-adv-x="600" 
d="M0 300c0 166 134 300 300 300s300 -134 300 -300s-134 -300 -300 -300s-300 134 -300 300zM480 107c52 48 84 117 84 193s-32 145 -84 193v-386zM369 45c31 8 59 22 84 40v430c-25 18 -53 32 -84 40v-510zM258 39c14 -2 28 -3 42 -3s28 1 42 3v522c-14 2 -28 3 -42 3
s-28 -1 -42 -3v-522zM147 85c25 -18 53 -32 84 -40v510c-31 -8 -59 -22 -84 -40v-430zM36 300c0 -76 32 -145 84 -193v386c-52 -48 -84 -117 -84 -193z" />
    <glyph glyph-name="u25CE" unicode="&#x25ce;" horiz-adv-x="600" 
d="M161 300c0 -77 62 -139 139 -139s139 62 139 139s-62 139 -139 139s-139 -62 -139 -139zM125 300c0 97 78 175 175 175s175 -78 175 -175s-78 -175 -175 -175s-175 78 -175 175zM36 300c0 -146 118 -264 264 -264s264 118 264 264s-118 264 -264 264s-264 -118 -264 -264
zM0 300c0 166 134 300 300 300s300 -134 300 -300s-134 -300 -300 -300s-300 134 -300 300z" />
    <glyph glyph-name="u25CF" unicode="&#x25cf;" horiz-adv-x="600" 
d="M0 300c0 166 134 300 300 300s300 -134 300 -300s-134 -300 -300 -300s-300 134 -300 300z" />
    <glyph glyph-name="u25D0" unicode="&#x25d0;" horiz-adv-x="600" 
d="M300 36c146 0 264 118 264 264s-118 264 -264 264v-528zM0 300c0 166 134 300 300 300s300 -134 300 -300s-134 -300 -300 -300s-300 134 -300 300z" />
    <glyph glyph-name="u25D1" unicode="&#x25d1;" horiz-adv-x="600" 
d="M36 300c0 -146 118 -264 264 -264v528c-146 0 -264 -118 -264 -264zM0 300c0 166 134 300 300 300s300 -134 300 -300s-134 -300 -300 -300s-300 134 -300 300z" />
    <glyph glyph-name="u25D2" unicode="&#x25d2;" horiz-adv-x="600" 
d="M36 300h528c0 146 -118 264 -264 264s-264 -118 -264 -264zM0 300c0 166 134 300 300 300s300 -134 300 -300s-134 -300 -300 -300s-300 134 -300 300z" />
    <glyph glyph-name="u25D3" unicode="&#x25d3;" horiz-adv-x="600" 
d="M36 300c0 -146 118 -264 264 -264s264 118 264 264h-528zM0 300c0 166 134 300 300 300s300 -134 300 -300s-134 -300 -300 -300s-300 134 -300 300z" />
    <glyph glyph-name="u25D4" unicode="&#x25d4;" horiz-adv-x="600" 
d="M36 300c0 -146 118 -264 264 -264s264 118 264 264h-264v264c-146 0 -264 -118 -264 -264zM0 300c0 166 134 300 300 300s300 -134 300 -300s-134 -300 -300 -300s-300 134 -300 300z" />
    <glyph glyph-name="u25D5" unicode="&#x25d5;" horiz-adv-x="600" 
d="M36 300h264v264c-146 0 -264 -118 -264 -264zM0 300c0 166 134 300 300 300s300 -134 300 -300s-134 -300 -300 -300s-300 134 -300 300z" />
    <glyph glyph-name="u25D6" unicode="&#x25d6;" horiz-adv-x="600" 
d="M0 300c0 166 134 300 300 300v-600c-166 0 -300 134 -300 300z" />
    <glyph glyph-name="u25D7" unicode="&#x25d7;" horiz-adv-x="600" 
d="M300 0v600c166 0 300 -134 300 -300s-134 -300 -300 -300z" />
    <glyph glyph-name="u25DC" unicode="&#x25dc;" horiz-adv-x="600" 
d="M0 300c0 166 134 300 300 300v-36c-146 0 -264 -118 -264 -264h-36z" />
    <glyph glyph-name="u25DD" unicode="&#x25dd;" horiz-adv-x="600" 
d="M300 564v36c166 0 300 -134 300 -300h-36c0 146 -118 264 -264 264z" />
    <glyph glyph-name="u25DE" unicode="&#x25de;" horiz-adv-x="600" 
d="M300 0v36c146 0 264 118 264 264h36c0 -166 -134 -300 -300 -300z" />
    <glyph glyph-name="u25DF" unicode="&#x25df;" horiz-adv-x="600" 
d="M0 300h36c0 -146 118 -264 264 -264v-36c-166 0 -300 134 -300 300z" />
    <glyph glyph-name="u25E0" unicode="&#x25e0;" horiz-adv-x="600" 
d="M0 300c0 166 134 300 300 300s300 -134 300 -300h-36c0 146 -118 264 -264 264s-264 -118 -264 -264h-36z" />
    <glyph glyph-name="u25E1" unicode="&#x25e1;" horiz-adv-x="600" 
d="M0 300h36c0 -146 118 -264 264 -264s264 118 264 264h36c0 -166 -134 -300 -300 -300s-300 134 -300 300z" />
    <glyph glyph-name="u25E2" unicode="&#x25e2;" horiz-adv-x="600" 
d="M0 0l600 600v-600h-600z" />
    <glyph glyph-name="u25E3" unicode="&#x25e3;" horiz-adv-x="600" 
d="M0 0v600l600 -600h-600z" />
    <glyph glyph-name="u25E4" unicode="&#x25e4;" horiz-adv-x="600" 
d="M0 0v600h600z" />
    <glyph glyph-name="u25E5" unicode="&#x25e5;" horiz-adv-x="600" 
d="M0 600h600v-600z" />
    <glyph glyph-name="u25E6" unicode="&#x25e6;" horiz-adv-x="200" 
d="M24 224c0 -42 34 -76 76 -76s76 34 76 76s-34 76 -76 76s-76 -34 -76 -76zM0 224c0 55 45 100 100 100s100 -45 100 -100s-45 -100 -100 -100s-100 45 -100 100z" />
    <glyph glyph-name="u25E7" unicode="&#x25e7;" horiz-adv-x="600" 
d="M300 36h264v528h-264v-528zM0 0v600h600v-600h-600z" />
    <glyph glyph-name="u25E8" unicode="&#x25e8;" horiz-adv-x="600" 
d="M36 36h264v528h-264v-528zM0 0v600h600v-600h-600z" />
    <glyph glyph-name="u25E9" unicode="&#x25e9;" horiz-adv-x="600" 
d="M36 36h528v528zM0 0v600h600v-600h-600z" />
    <glyph glyph-name="u25EA" unicode="&#x25ea;" horiz-adv-x="600" 
d="M36 36l528 528h-528v-528zM0 0v600h600v-600h-600z" />
    <glyph glyph-name="u25EB" unicode="&#x25eb;" horiz-adv-x="600" 
d="M0 0v600h600v-600h-600zM318 36h246v528h-246v-528zM36 36h246v528h-246v-528z" />
    <glyph glyph-name="u25EC" unicode="&#x25ec;" horiz-adv-x="600" 
d="M230 213c0 39 31 70 70 70s70 -31 70 -70s-31 -70 -70 -70s-70 31 -70 70zM63 76h474l-237 411zM0 40l300 520l300 -520h-600z" />
    <glyph glyph-name="u25ED" unicode="&#x25ed;" horiz-adv-x="600" 
d="M300 76h237l-237 411v-411zM0 40l300 520l300 -520h-600z" />
    <glyph glyph-name="u25EE" unicode="&#x25ee;" horiz-adv-x="600" 
d="M63 76h237v411zM0 40l300 520l300 -520h-600z" />
    <glyph glyph-name="u25EF" unicode="&#x25ef;" horiz-adv-x="800" 
d="M40 400c0 -199 161 -360 360 -360s360 161 360 360s-161 360 -360 360s-360 -161 -360 -360zM0 400c0 221 179 400 400 400s400 -179 400 -400s-179 -400 -400 -400s-400 179 -400 400z" />
    <glyph glyph-name="u25F8" unicode="&#x25f8;" horiz-adv-x="600" 
d="M36 87l477 477h-477v-477zM0 0v600h600z" />
    <glyph glyph-name="u25F9" unicode="&#x25f9;" horiz-adv-x="600" 
d="M87 564l477 -477v477h-477zM0 600h600v-600z" />
    <glyph glyph-name="u25FA" unicode="&#x25fa;" horiz-adv-x="600" 
d="M36 36h477l-477 477v-477zM0 0v600l600 -600h-600z" />
    <glyph glyph-name="u25FB" unicode="&#x25fb;" horiz-adv-x="350" 
d="M32 157h286v286h-286v-286zM0 125v350h350v-350h-350z" />
    <glyph glyph-name="u25FC" unicode="&#x25fc;" horiz-adv-x="350" 
d="M0 125v350h350v-350h-350z" />
    <glyph glyph-name="u25FD" unicode="&#x25fd;" horiz-adv-x="278" 
d="M32 193h214v214h-214v-214zM0 161v278h278v-278h-278z" />
    <glyph glyph-name="u25FE" unicode="&#x25fe;" horiz-adv-x="278" 
d="M0 161v278h278v-278h-278z" />
    <glyph glyph-name="u25FF" unicode="&#x25ff;" horiz-adv-x="600" 
d="M87 36h477v477zM0 0l600 600v-600h-600z" />
    <glyph glyph-name="u2605" unicode="&#x2605;" horiz-adv-x="460" 
d="M0 271l154 -7c22 0 30 5 35 25l41 151l41 -151c5 -20 13 -25 35 -25l154 7l-125 -81c-10 -7 -21 -13 -21 -26c0 -9 4 -20 8 -32l49 -132l-109 90c-10 9 -20 18 -32 18s-22 -9 -32 -18l-109 -90l49 132c4 12 8 23 8 32c0 13 -11 19 -21 26z" />
    <glyph glyph-name="u2606" unicode="&#x2606;" horiz-adv-x="460" 
d="M0 271l154 -7c22 0 30 5 35 25l41 151l41 -151c5 -20 13 -25 35 -25l154 7l-125 -81c-10 -7 -21 -13 -21 -26c0 -9 4 -20 8 -32l49 -132l-109 90c-10 9 -20 18 -32 18s-22 -9 -32 -18l-109 -90l49 132c4 12 8 23 8 32c0 13 -11 19 -21 26zM73 247l85 -55
c7 -5 13 -12 13 -21c0 -6 -1 -11 -4 -19l-33 -90l74 61c7 6 14 11 22 11s15 -5 22 -11l74 -61l-33 90c-3 8 -4 13 -4 19c0 9 6 16 13 21l85 55l-105 -5c-13 0 -21 5 -24 17l-28 103l-28 -103c-4 -12 -12 -17 -24 -17z" />
    <glyph glyph-name="u266B" unicode="&#x266b;" horiz-adv-x="730" 
d="M0 -42c0 86 88 167 198 167c27 0 50 -7 67 -20v768c0 10 4 15 12 17l429 108c3 1 5 2 9 2c12 0 15 -8 15 -17v-816c0 -85 -109 -167 -198 -167c-54 0 -97 31 -97 83c0 86 88 167 198 167c27 0 50 -7 67 -20v642l-405 -102v-728c0 -85 -109 -167 -198 -167
c-54 0 -97 31 -97 83z" />
    <glyph glyph-name="u266C" unicode="&#x266c;" horiz-adv-x="730" 
d="M0 -42c0 86 88 167 198 167c27 0 50 -7 67 -20v768c0 10 4 15 12 17l429 108c3 1 5 2 9 2c12 0 15 -8 15 -17v-816c0 -85 -109 -167 -198 -167c-54 0 -97 31 -97 83c0 86 88 167 198 167c27 0 50 -7 67 -20v443l-405 -102v-529c0 -85 -109 -167 -198 -167
c-54 0 -97 31 -97 83zM295 696l405 101v73l-405 -102v-72z" />
    <glyph glyph-name="u2690" unicode="&#x2690;" horiz-adv-x="440" 
d="M0 18v485c0 14 11 25 25 25c255 0 162 -100 402 -100c7 0 13 -6 13 -13v-278c0 -7 -6 -13 -13 -13c-246 0 -168 100 -377 100v-206c0 -14 -11 -18 -25 -18s-25 4 -25 18zM50 250c209 0 165 -100 360 -100v252c-215 0 -170 100 -360 100v-252z" />
    <glyph glyph-name="u2691" unicode="&#x2691;" horiz-adv-x="440" 
d="M0 18v485c0 14 11 25 25 25c255 0 162 -100 402 -100c7 0 13 -6 13 -13v-278c0 -7 -6 -13 -13 -13c-246 0 -168 100 -377 100v-206c0 -14 -11 -18 -25 -18s-25 4 -25 18z" />
    <glyph glyph-name="u269E" unicode="&#x269e;" 
d="M54 149c0 6 3 12 10 15l425 172l11 -26l-412 -201c-2 -1 -5 -2 -7 -2c-16 0 -27 35 -27 42zM54 651c0 7 11 42 27 42c2 0 5 -1 7 -2l412 -201l-11 -26l-425 172c-7 3 -10 9 -10 15zM0 400c0 18 4 30 18 30l458 -16v-28l-458 -16c-14 0 -18 12 -18 30z" />
    <glyph glyph-name="u269F" unicode="&#x269f;" 
d="M0 310l11 26l425 -172c7 -3 10 -9 10 -15c0 -7 -11 -42 -27 -42c-2 0 -5 1 -7 2zM0 490l412 201c2 1 5 2 7 2c16 0 27 -35 27 -42c0 -6 -3 -12 -10 -15l-425 -172zM24 386v28l458 16c14 0 18 -12 18 -30s-4 -30 -18 -30z" />
    <glyph glyph-name="u26A0" unicode="&#x26a0;" horiz-adv-x="946" 
d="M433 170c0 22 18 40 40 40s40 -18 40 -40s-18 -40 -40 -40s-40 18 -40 40zM133 90h680l-340 583zM0 36c0 5 1 12 3 16l437 746c5 9 17 20 33 20s28 -11 33 -20l437 -748c2 -4 3 -9 3 -14c0 -20 -16 -36 -36 -36h-874c-20 0 -36 16 -36 36zM433 285l-5 202
c0 18 23 25 45 25s45 -7 45 -25l-5 -202c0 -22 -18 -40 -40 -40s-40 18 -40 40z" />
    <glyph glyph-name="u26AA" unicode="&#x26aa;" horiz-adv-x="350" 
d="M36 310c0 -77 62 -139 139 -139s139 62 139 139s-62 139 -139 139s-139 -62 -139 -139zM0 310c0 97 78 175 175 175s175 -78 175 -175s-78 -175 -175 -175s-175 78 -175 175z" />
    <glyph glyph-name="u26AB" unicode="&#x26ab;" horiz-adv-x="350" 
d="M0 310c0 97 78 175 175 175s175 -78 175 -175s-78 -175 -175 -175s-175 78 -175 175z" />
    <glyph glyph-name="u26AC" unicode="&#x26ac;" horiz-adv-x="278" 
d="M32 310c0 -59 48 -107 107 -107s107 48 107 107s-48 107 -107 107s-107 -48 -107 -107zM0 310c0 77 62 139 139 139s139 -62 139 -139s-62 -139 -139 -139s-139 62 -139 139z" />
    <glyph glyph-name="u26E4" unicode="&#x26e4;" horiz-adv-x="460" 
d="M0 271h176l54 169l54 -169h176l-142 -104l53 -167l-141 103l-141 -103l53 167zM292 247l18 -56l77 56h-95zM170 176l60 -44l60 44l-23 71h-74zM250 118l76 -56l-29 90zM134 62l76 56l-47 34zM73 247l77 -56l18 56h-95zM201 271h58l-29 91z" />
    <glyph glyph-name="u26E7" unicode="&#x26e7;" horiz-adv-x="460" 
d="M0 169l142 104l-53 167l141 -103l141 103l-53 -167l142 -104h-176l-54 -169l-54 169h-176zM292 193h95l-77 56zM170 264l23 -71h74l23 71l-60 44zM250 322l47 -34l29 90zM134 378l29 -90l47 34zM73 193h95l-18 56zM201 169l29 -91l29 91h-58z" />
    <glyph glyph-name="u2707" unicode="&#x2707;" horiz-adv-x="1000" 
d="M413 659l30 250s22 5 57 5s57 -5 57 -5l30 -250c-26 14 -55 22 -87 22s-61 -8 -87 -22zM594 345c51 31 87 88 87 151l202 -152s-6 -21 -24 -51s-33 -46 -33 -46zM117 344l202 152c0 -63 36 -120 87 -151l-232 -98s-15 16 -33 46s-24 51 -24 51zM379 500
c0 67 54 121 121 121s121 -54 121 -121s-54 -121 -121 -121s-121 54 -121 121zM36 500c0 -256 208 -464 464 -464s464 208 464 464s-208 464 -464 464s-464 -208 -464 -464zM0 500c0 276 224 500 500 500s500 -224 500 -500s-224 -500 -500 -500s-500 224 -500 500z" />
    <glyph glyph-name="u2722" unicode="&#x2722;" 
d="M0 250c0 32 23 55 55 55c42 0 120 -40 180 -40c0 60 -40 138 -40 180c0 32 23 55 55 55s55 -23 55 -55c0 -42 -40 -120 -40 -180c60 0 138 40 180 40c32 0 55 -23 55 -55s-23 -55 -55 -55c-42 0 -120 40 -180 40c0 -60 40 -138 40 -180c0 -32 -23 -55 -55 -55
s-55 23 -55 55c0 42 40 120 40 180c-60 0 -138 -40 -180 -40c-32 0 -55 23 -55 55z" />
    <glyph glyph-name="u2726" unicode="&#x2726;" 
d="M0 250c200 45 205 50 250 250c45 -200 50 -205 250 -250c-200 -45 -205 -50 -250 -250c-45 200 -50 205 -250 250z" />
    <glyph glyph-name="u2727" unicode="&#x2727;" 
d="M95 250c125 -25 130 -30 155 -155c25 125 30 130 155 155c-125 25 -130 30 -155 155c-25 -125 -30 -130 -155 -155zM0 250c200 45 205 50 250 250c45 -200 50 -205 250 -250c-200 -45 -205 -50 -250 -250c-45 200 -50 205 -250 250z" />
    <glyph glyph-name="u2729" unicode="&#x2729;" horiz-adv-x="460" 
d="M0 271l163 19l67 150l67 -150l163 -19l-124 -105l35 -166l-141 86l-141 -86l35 166zM35 259l142 -79l-66 -150l119 111l119 -111l-66 150l142 79l-162 -18l-33 161l-33 -161z" />
    <glyph glyph-name="u272A" unicode="&#x272a;" horiz-adv-x="460" 
d="M34 292l107 -69c8 -6 18 -11 18 -22c0 -8 -4 -17 -7 -27l-42 -112l93 77c8 8 17 15 27 15s19 -7 27 -15l93 -77l-42 112c-3 10 -7 19 -7 27c0 11 10 16 18 22l107 69l-131 -6c-19 0 -26 5 -30 22l-35 128l-35 -128c-4 -17 -11 -22 -30 -22zM0 230c0 127 103 230 230 230
s230 -103 230 -230s-103 -230 -230 -230s-230 103 -230 230z" />
    <glyph glyph-name="u272B" unicode="&#x272b;" horiz-adv-x="460" 
d="M0 271l154 -7c22 0 30 5 35 25l41 151l41 -151c5 -20 13 -25 35 -25l154 7l-125 -81c-10 -7 -21 -13 -21 -26c0 -9 4 -20 8 -32l49 -132l-109 90c-10 9 -20 18 -32 18s-22 -9 -32 -18l-109 -90l49 132c4 12 8 23 8 32c0 13 -11 19 -21 26zM185 195c0 -25 20 -45 45 -45
s45 20 45 45s-20 45 -45 45s-45 -20 -45 -45z" />
    <glyph glyph-name="u272C" unicode="&#x272c;" horiz-adv-x="460" 
d="M0 271l154 -7c22 0 30 5 35 25l41 151l41 -151c5 -20 13 -25 35 -25l154 7l-125 -81c-10 -7 -21 -13 -21 -26c0 -9 4 -20 8 -32l49 -132l-109 90c-10 9 -20 18 -32 18s-22 -9 -32 -18l-109 -90l49 132c4 12 8 23 8 32c0 13 -11 19 -21 26zM73 247l85 -55
c7 -5 13 -12 13 -21c0 -6 -1 -11 -4 -19l-33 -90l74 61c7 6 14 11 22 11s15 -5 22 -11l74 -61l-33 90c-3 8 -4 13 -4 19c0 9 6 16 13 21l85 55l-105 -5c-13 0 -21 5 -24 17l-28 103l-28 -103c-4 -12 -12 -17 -24 -17zM185 195c0 25 20 45 45 45s45 -20 45 -45
s-20 -45 -45 -45s-45 20 -45 45z" />
    <glyph glyph-name="u272D" unicode="&#x272d;" horiz-adv-x="460" 
d="M147 223l56 -2c8 0 10 2 12 9l15 54l15 -54c2 -7 4 -9 12 -9l56 2l-45 -29c-4 -3 -8 -4 -8 -9c0 -3 2 -8 3 -12l18 -47l-39 32c-4 3 -8 7 -12 7s-8 -4 -12 -7l-39 -32l18 47c1 4 3 9 3 12c0 5 -4 6 -8 9zM0 271l154 -7c22 0 30 5 35 25l41 151l41 -151
c5 -20 13 -25 35 -25l154 7l-125 -81c-10 -7 -21 -13 -21 -26c0 -9 4 -20 8 -32l49 -132l-109 90c-10 9 -20 18 -32 18s-22 -9 -32 -18l-109 -90l49 132c4 12 8 23 8 32c0 13 -11 19 -21 26zM73 247l85 -55c7 -5 13 -12 13 -21c0 -6 -1 -11 -4 -19l-33 -90l74 61
c7 6 14 11 22 11s15 -5 22 -11l74 -61l-33 90c-3 8 -4 13 -4 19c0 9 6 16 13 21l85 55l-105 -5c-13 0 -21 5 -24 17l-28 103l-28 -103c-4 -12 -12 -17 -24 -17z" />
    <glyph glyph-name="u272F" unicode="&#x272f;" horiz-adv-x="460" 
d="M69 247l107 -67l52 14l-95 -136l97 80v55l100 -133l-43 116l-55 19l158 56l-122 -7l-38 -47v170l-32 -121l30 -50zM0 271l182 -8l48 177l48 -177l182 8l-153 -98l64 -173l-141 116l-141 -116l64 173z" />
    <glyph glyph-name="u2730" unicode="&#x2730;" 
d="M0 291l155 -9c22 0 30 5 35 25l40 153l40 -20l35 -130c5 -20 13 -25 35 -25l120 6l40 -20l-125 -81c-10 -7 -21 -13 -21 -26c0 -9 4 -20 8 -32l49 -132l-40 20l-106 87c-10 -2 -18 -9 -27 -17l-109 -90l-40 20l52 132c4 12 6 23 6 32c0 13 -10 19 -20 26zM73 267l87 -55
c7 -5 12 -12 12 -21c0 -6 0 -11 -3 -19l-35 -90l74 61c7 6 14 11 22 11s15 -5 22 -11l74 -61l-33 90c-3 8 -4 13 -4 19c0 9 6 16 13 21l85 55l-105 -5c-13 0 -21 5 -24 17l-28 103l-27 -104c-4 -12 -12 -17 -24 -17z" />
    <glyph glyph-name="u2731" unicode="&#x2731;" horiz-adv-x="488" 
d="M0 173l133 77l-133 77l55 96l134 -77v154h110v-154l134 77l55 -96l-133 -77l133 -77l-55 -96l-134 77v-154h-110v154l-134 -77z" />
    <glyph glyph-name="u2733" unicode="&#x2733;" horiz-adv-x="486" 
d="M0 243c0 10 4 18 14 18l208 -9l-153 140c-3 3 -4 6 -4 9c0 10 10 20 20 20c3 0 6 -1 9 -4l140 -153l-9 208c0 10 8 14 18 14s18 -4 18 -14l-9 -208l140 153c3 3 6 4 9 4c10 0 20 -10 20 -20c0 -3 -1 -6 -4 -9l-153 -140l208 9c10 0 14 -8 14 -18s-4 -18 -14 -18l-208 9
l153 -140c3 -3 4 -6 4 -9c0 -10 -10 -20 -20 -20c-3 0 -6 1 -9 4l-140 153l9 -208c0 -10 -8 -14 -18 -14s-18 4 -18 14l9 208l-140 -153c-3 -3 -6 -4 -9 -4c-10 0 -20 10 -20 20c0 3 1 6 4 9l153 140l-208 -9c-10 0 -14 8 -14 18z" />
    <glyph glyph-name="u2734" unicode="&#x2734;" horiz-adv-x="486" 
d="M0 239v8l158 17c9 1 18 3 18 10c0 3 -2 7 -7 13l-100 124l6 6l123 -99c7 -6 11 -7 15 -7s8 4 9 16l17 159h8l17 -159c1 -12 5 -16 9 -16s8 1 15 7l123 99l6 -6l-100 -124c-5 -6 -7 -10 -7 -13c0 -7 9 -9 18 -10l158 -17v-8l-158 -17c-9 -1 -18 -3 -18 -10
c0 -3 2 -7 7 -13l100 -124l-6 -6l-123 99c-7 6 -11 7 -15 7s-8 -4 -9 -16l-17 -159h-8l-17 159c-1 12 -5 16 -9 16s-8 -1 -15 -7l-123 -99l-6 6l100 124c5 6 7 10 7 13c0 7 -9 9 -18 10z" />
    <glyph glyph-name="u2736" unicode="&#x2736;" horiz-adv-x="420" 
d="M0 121l110 109c5 5 7 9 7 13s-2 8 -7 13l-110 109l150 -40c3 -1 4 -1 6 -1c7 0 12 4 14 12l40 150l40 -150c2 -8 7 -12 14 -12c2 0 3 0 6 1l150 40l-110 -109c-5 -5 -7 -9 -7 -13s2 -8 7 -13l110 -109l-150 40c-3 1 -4 1 -6 1c-7 0 -12 -4 -14 -12l-40 -150l-40 150
c-2 8 -7 12 -14 12c-2 0 -3 0 -6 -1z" />
    <glyph glyph-name="u2737" unicode="&#x2737;" horiz-adv-x="452" 
d="M0 154l118 76c10 7 13 9 13 13s-3 6 -13 13l-118 76l3 8l134 -30c5 -1 10 -2 16 -2c5 0 8 3 8 8c0 6 -1 11 -2 16l-30 134l8 3l76 -118c7 -10 9 -13 13 -13s6 3 13 13l76 118l8 -3l-30 -134c-1 -5 -2 -10 -2 -16c0 -5 3 -8 8 -8c6 0 11 1 16 2l134 30l3 -8l-118 -76
c-10 -7 -13 -9 -13 -13s3 -6 13 -13l118 -76l-3 -8l-134 30c-5 1 -10 2 -16 2c-5 0 -8 -3 -8 -8c0 -6 1 -11 2 -16l30 -134l-8 -3l-76 118c-7 10 -9 13 -13 13s-6 -3 -13 -13l-76 -118l-8 3l30 134c1 5 2 10 2 16c0 5 -3 8 -8 8c-6 0 -11 -1 -16 -2l-134 -30z" />
    <glyph glyph-name="u2738" unicode="&#x2738;" horiz-adv-x="452" 
d="M0 154l93 75c9 7 13 10 13 14s-4 7 -13 14l-93 75l3 8l114 -13c8 -1 14 -1 18 -1c5 0 8 3 8 8c0 4 0 10 -1 18l-13 114l8 3l75 -93c7 -9 10 -13 14 -13s7 4 14 13l75 93l8 -3l-13 -114c-1 -8 -1 -14 -1 -18c0 -5 3 -8 8 -8c4 0 10 0 18 1l114 13l3 -8l-93 -75
c-9 -7 -13 -10 -13 -14s4 -7 13 -14l93 -75l-3 -8l-114 13c-8 1 -14 1 -18 1c-5 0 -8 -3 -8 -8c0 -4 0 -10 1 -18l13 -114l-8 -3l-75 93c-7 9 -10 13 -14 13s-7 -4 -14 -13l-75 -93l-8 3l13 114c1 8 1 14 1 18c0 5 -3 8 -8 8c-4 0 -10 0 -18 -1l-114 -13z" />
    <glyph glyph-name="u273B" unicode="&#x273b;" horiz-adv-x="432" 
d="M0 143c0 13 7 25 22 33c33 19 113 32 174 67c-61 35 -141 48 -174 67c-15 8 -22 20 -22 33c0 18 14 43 38 43c8 0 16 -3 24 -7c32 -18 82 -82 143 -117c0 70 -29 145 -29 182c0 25 15 42 40 42s40 -17 40 -42c0 -37 -29 -112 -29 -182c61 35 111 99 143 117
c8 4 16 7 24 7c24 0 38 -25 38 -43c0 -13 -7 -25 -22 -33c-33 -19 -113 -32 -174 -67c61 -35 141 -48 174 -67c15 -8 22 -20 22 -33c0 -18 -14 -43 -38 -43c-8 0 -16 3 -24 7c-32 18 -82 82 -143 117c0 -70 29 -145 29 -182c0 -25 -15 -42 -40 -42s-40 17 -40 42
c0 37 29 112 29 182c-61 -35 -111 -99 -143 -117c-8 -4 -16 -7 -24 -7c-24 0 -38 25 -38 43z" />
    <glyph glyph-name="u274C" unicode="&#x274c;" horiz-adv-x="800" 
d="M210 256c0 12 3 21 11 29l115 115l-115 115c-8 8 -11 17 -11 29c0 26 20 46 46 46c12 0 21 -3 29 -11l115 -115l115 115c8 8 17 11 29 11c26 0 46 -20 46 -46c0 -12 -3 -21 -11 -29l-115 -115l115 -115c8 -8 11 -17 11 -29c0 -26 -20 -46 -46 -46c-12 0 -21 3 -29 11
l-115 115l-115 -115c-8 -8 -17 -11 -29 -11c-26 0 -46 20 -46 46z" />
    <glyph glyph-name="u2753" unicode="&#x2753;" horiz-adv-x="380" 
d="M0 391c0 47 61 109 190 109c80 0 190 -34 190 -116c0 -140 -125 -141 -125 -197c0 -24 -15 -37 -65 -37s-65 13 -65 47c0 104 122 115 122 152c0 19 -35 22 -57 22c-64 0 -94 -38 -138 -38c-27 0 -52 29 -52 58zM125 65c0 36 29 65 65 65s65 -29 65 -65s-29 -65 -65 -65
s-65 29 -65 65z" />
    <glyph glyph-name="u2754" unicode="&#x2754;" horiz-adv-x="400" 
d="M0 391c0 47 49 109 200 109c80 0 200 -27 200 -109c0 -138 -134 -132 -134 -194c0 -34 -16 -47 -66 -47s-66 13 -66 47c0 122 119 139 119 159c0 13 -32 13 -54 13c-77 0 -93 -37 -147 -37c-27 0 -52 30 -52 59zM35 392c0 -12 12 -24 25 -24c30 0 52 36 141 36
c61 0 92 -18 92 -38c0 -61 -123 -62 -123 -164c0 -14 10 -17 30 -17c19 0 30 3 30 17c0 76 135 71 135 186c0 53 -101 77 -165 77c-141 0 -165 -55 -165 -73zM162 65c0 -21 17 -33 38 -33s38 12 38 33s-17 33 -38 33s-38 -12 -38 -33zM130 65c0 39 31 65 70 65
s70 -26 70 -65s-31 -65 -70 -65s-70 26 -70 65z" />
    <glyph glyph-name="u2755" unicode="&#x2755;" horiz-adv-x="200" 
d="M62 65c0 -21 17 -33 38 -33s38 12 38 33s-17 33 -38 33s-38 -12 -38 -33zM0 428c0 55 35 72 100 72s100 -17 100 -72s-34 -192 -34 -192c-6 -33 -24 -70 -66 -70s-60 37 -66 70c0 0 -34 137 -34 192zM36 428c0 -35 34 -192 34 -192c3 -17 10 -34 30 -34c19 0 27 17 30 34
c0 0 34 157 34 192s-24 36 -64 36s-64 -1 -64 -36zM30 65c0 39 31 65 70 65s70 -26 70 -65s-31 -65 -70 -65s-70 26 -70 65z" />
    <glyph glyph-name="u2757" unicode="&#x2757;" horiz-adv-x="190" 
d="M30 65c0 36 29 65 65 65s65 -29 65 -65s-29 -65 -65 -65s-65 29 -65 65zM0 415c0 55 30 85 95 85s95 -30 95 -85s-40 -189 -40 -189c-6 -28 -21 -60 -55 -60s-49 32 -55 60c0 0 -40 134 -40 189z" />
    <glyph glyph-name="u2794" unicode="&#x2794;" horiz-adv-x="528" 
d="M0 263c0 22 4 40 26 40h339s-132 122 -132 132c0 8 15 15 65 15c38 0 55 -5 65 -15l160 -160c3 -3 5 -6 5 -12s-2 -9 -5 -12l-160 -160s-27 -15 -65 -15c-50 0 -65 7 -65 15c0 10 132 132 132 132h-339c-22 0 -26 18 -26 40z" />
    <glyph glyph-name="u2799" unicode="&#x2799;" horiz-adv-x="528" 
d="M0 263c0 26 1 50 22 50c8 0 23 -2 42 -4l256 -29s-50 84 -50 98c0 10 4 17 14 17c6 0 11 -1 17 -4l218 -115c6 -3 9 -6 9 -13s-3 -10 -9 -13l-218 -115c-6 -3 -11 -4 -17 -4c-10 0 -14 7 -14 17c0 14 50 98 50 98l-256 -29c-19 -2 -34 -4 -42 -4c-21 0 -22 25 -22 50z
" />
    <glyph glyph-name="u279B" unicode="&#x279b;" horiz-adv-x="528" 
d="M0 263c0 20 3 25 19 25c14 0 171 -13 171 -13s-50 89 -50 103c0 10 4 17 14 17c23 0 125 -80 365 -120c6 -1 9 -5 9 -12s-3 -11 -9 -12c-240 -40 -342 -120 -365 -120c-10 0 -14 7 -14 17c0 14 50 103 50 103s-157 -13 -171 -13c-16 0 -19 5 -19 25z" />
    <glyph glyph-name="u279C" unicode="&#x279c;" horiz-adv-x="528" 
d="M0 263c0 26 22 48 48 48h303l-56 56c-9 9 -14 21 -14 34c0 26 22 48 48 48c13 0 25 -5 34 -14l160 -160c3 -3 5 -6 5 -12s-2 -9 -5 -12l-160 -160c-9 -9 -21 -14 -34 -14c-26 0 -48 22 -48 48c0 13 5 25 14 34l56 56h-303c-26 0 -48 22 -48 48z" />
    <glyph glyph-name="u279D" unicode="&#x279d;" horiz-adv-x="528" 
d="M0 263c0 16 3 20 12 20h378v125l133 -133c3 -3 5 -6 5 -12s-2 -9 -5 -12l-133 -133v125h-378c-9 0 -12 4 -12 20z" />
    <glyph glyph-name="u279E" unicode="&#x279e;" horiz-adv-x="528" 
d="M0 263c0 38 4 60 18 60h372v85l133 -133c3 -3 5 -6 5 -12s-2 -9 -5 -12l-133 -133v85h-372c-14 0 -18 22 -18 60z" />
    <glyph glyph-name="u279F" unicode="&#x279f;" horiz-adv-x="528" 
d="M260 238v50h130v120l133 -133c3 -3 5 -6 5 -12s-2 -9 -5 -12l-133 -133v120h-130zM165 238v50h66v-50h-66zM78 238v50h46v-50h-46zM0 263c0 16 3 25 12 25h14v-50h-14c-9 0 -12 9 -12 25z" />
    <glyph glyph-name="u27A0" unicode="&#x27a0;" horiz-adv-x="528" 
d="M260 203v120h115v100l148 -148c3 -3 5 -6 5 -12s-2 -9 -5 -12l-148 -148v100h-115zM165 203v120h68v-120h-68zM78 203v120h48v-120h-48zM0 263c0 38 4 60 18 60h10v-120h-10c-14 0 -18 22 -18 60z" />
    <glyph glyph-name="u27A1" unicode="&#x27a1;" horiz-adv-x="528" 
d="M0 263c0 60 10 80 30 80h345v80l148 -148c3 -3 5 -6 5 -12s-2 -9 -5 -12l-148 -148v80h-345c-20 0 -30 20 -30 80z" />
    <glyph glyph-name="u27A2" unicode="&#x27a2;" horiz-adv-x="440" 
d="M0 108c0 20 100 131 100 155s-100 135 -100 155c0 10 4 17 14 17c23 0 177 -120 417 -160c6 -1 9 -5 9 -12s-3 -11 -9 -12c-240 -40 -394 -160 -417 -160c-10 0 -14 7 -14 17zM130 263h223c-145 30 -297 119 -297 119s74 -95 74 -119z" />
    <glyph glyph-name="u27A3" unicode="&#x27a3;" horiz-adv-x="440" 
d="M0 108c0 20 100 131 100 155s-100 135 -100 155c0 10 4 17 14 17c23 0 177 -120 417 -160c6 -1 9 -5 9 -12s-3 -11 -9 -12c-240 -40 -394 -160 -417 -160c-10 0 -14 7 -14 17zM130 263c0 -24 -74 -119 -74 -119s152 89 297 119h-223z" />
    <glyph glyph-name="u27A4" unicode="&#x27a4;" horiz-adv-x="440" 
d="M0 88c0 20 100 151 100 175s-100 155 -100 175c0 10 4 17 14 17c25 0 177 -140 417 -180c6 -1 9 -5 9 -12s-3 -11 -9 -12c-240 -40 -392 -180 -417 -180c-10 0 -14 7 -14 17z" />
    <glyph glyph-name="u27B0" unicode="&#x27b0;" horiz-adv-x="296" 
d="M0 377c-32 0 -45 -5 -50 -5s-8 9 -8 20s3 15 8 16s28 6 50 6c86 0 148 -39 148 -39s62 39 148 39c22 0 45 -5 50 -6s8 -5 8 -16s-3 -20 -8 -20s-18 5 -50 5c-53 0 -114 -26 -114 -26s74 -40 74 -118c0 -88 -60 -119 -108 -119s-108 31 -108 119c0 78 74 118 74 118
s-61 26 -114 26zM76 233c0 -55 41 -79 72 -79s72 24 72 79c0 60 -72 99 -72 99s-72 -39 -72 -99z" />
    <glyph glyph-name="u27B3" unicode="&#x27b3;" horiz-adv-x="528" 
d="M25 184h165c11 30 31 41 31 41h-141s-33 -13 -55 -41zM25 342c22 -28 55 -41 55 -41h141s-20 11 -31 41h-165zM281 263c0 10 8 18 18 18h117c7 0 18 1 18 8c0 15 -41 30 -41 53c0 6 5 18 10 18c2 0 3 -1 5 -3c40 -40 75 -56 115 -86c4 -3 5 -5 5 -8s-1 -5 -5 -8
c-40 -30 -75 -46 -115 -86c-2 -2 -3 -3 -5 -3c-5 0 -10 12 -10 18c0 23 41 38 41 53c0 7 -11 8 -18 8h-117c-10 0 -18 8 -18 18zM0 166c0 42 77 77 77 77h204s-77 -35 -77 -77h-204zM0 360h204c0 -42 77 -77 77 -77h-204s-77 35 -77 77z" />
    <glyph glyph-name="u27B5" unicode="&#x27b5;" horiz-adv-x="528" 
d="M281 263c0 10 8 18 18 18h117c7 0 18 1 18 8c0 15 -41 30 -41 53c0 6 5 18 10 18c2 0 3 -1 5 -3c40 -40 75 -56 115 -86c4 -3 5 -5 5 -8s-1 -5 -5 -8c-40 -30 -75 -46 -115 -86c-2 -2 -3 -3 -5 -3c-5 0 -10 12 -10 18c0 23 41 38 41 53c0 7 -11 8 -18 8h-117
c-10 0 -18 8 -18 18zM0 166c0 42 77 77 77 77h204s-77 -35 -77 -77h-204zM0 360h204c0 -42 77 -77 77 -77h-204s-77 35 -77 77z" />
    <glyph glyph-name="u27B8" unicode="&#x27b8;" horiz-adv-x="528" 
d="M0 131c0 72 77 132 77 132s-77 60 -77 132h190c0 -72 48 -114 84 -114h88c7 0 18 1 18 8c0 15 -22 55 -22 83c0 15 6 23 11 23c4 0 6 -2 7 -3c57 -50 86 -90 146 -120c2 -1 6 -4 6 -9s-4 -8 -6 -9c-60 -30 -89 -70 -146 -120c-1 -1 -3 -3 -7 -3c-5 0 -11 8 -11 23
c0 30 22 68 22 83c0 7 -11 8 -18 8h-88c-36 0 -84 -42 -84 -114h-190z" />
    <glyph glyph-name="u27BE" unicode="&#x27be;" 
d="M0 234c0 6 2 11 8 11h365c7 0 11 -2 11 -9c0 -11 -53 -62 -84 -93c-2 -2 -4 -3 -7 -3c-5 0 -11 2 -11 12c0 24 42 49 42 63c0 5 -3 8 -14 8h-302s-8 5 -8 11zM440 263c0 31 -83 89 -83 113c0 10 6 12 11 12c3 0 5 -1 7 -3c50 -50 125 -107 125 -122s-75 -72 -125 -122
c-2 -2 -4 -3 -7 -3c-5 0 -11 2 -11 12c0 24 83 82 83 113zM0 292c0 6 2 11 8 11h302c11 0 14 3 14 8c0 14 -42 39 -42 63c0 10 6 12 11 12c3 0 5 -1 7 -3c31 -31 84 -82 84 -93c0 -7 -4 -9 -11 -9h-365s-8 5 -8 11z" />
    <glyph glyph-name="u27BF" unicode="&#x27bf;" horiz-adv-x="592" 
d="M0 377c-32 0 -45 -5 -50 -5s-8 9 -8 20s3 15 8 16s28 6 50 6c86 0 148 -39 148 -39s62 39 148 39s148 -39 148 -39s62 39 148 39c22 0 45 -5 50 -6s8 -5 8 -16s-3 -20 -8 -20s-18 5 -50 5c-53 0 -114 -26 -114 -26s74 -40 74 -118c0 -88 -60 -119 -108 -119
s-108 31 -108 119c0 78 74 118 74 118s-61 26 -114 26s-114 -26 -114 -26s74 -40 74 -118c0 -88 -60 -119 -108 -119s-108 31 -108 119c0 78 74 118 74 118s-61 26 -114 26zM372 233c0 -55 41 -79 72 -79s72 24 72 79c0 60 -72 99 -72 99s-72 -39 -72 -99zM76 233
c0 -55 41 -79 72 -79s72 24 72 79c0 60 -72 99 -72 99s-72 -39 -72 -99z" />
    <glyph glyph-name="u27F0" unicode="&#x27f0;" horiz-adv-x="512" 
d="M0 235c0 3 2 6 4 8c50 50 222 216 242 276c1 3 5 6 10 6c6 0 9 -3 10 -6c20 -60 192 -226 242 -276c2 -2 4 -5 4 -8c0 -5 -2 -10 -12 -10c-15 0 -51 44 -63 44c-6 0 -8 -3 -8 -14v-235c0 -10 -4 -20 -20 -20s-20 10 -20 20v291c-19 19 -48 45 -54 45c-5 0 -8 -3 -8 -14
v-322c0 -10 -4 -20 -20 -20c-17 0 -20 10 -20 20v376c-6 6 -18 14 -31 14s-25 -8 -31 -14v-376c0 -10 -3 -20 -20 -20c-16 0 -20 10 -20 20v322c0 11 -3 14 -8 14c-6 0 -35 -26 -54 -45v-291c0 -10 -4 -20 -20 -20s-20 10 -20 20v235c0 11 -2 14 -8 14
c-12 0 -48 -44 -63 -44c-10 0 -12 5 -12 10z" />
    <glyph glyph-name="u27F1" unicode="&#x27f1;" horiz-adv-x="512" 
d="M0 290c0 5 2 10 12 10c15 0 51 -44 63 -44c6 0 8 3 8 14v235c0 10 4 20 20 20s20 -10 20 -20v-291c19 -19 48 -45 54 -45c5 0 8 3 8 14v322c0 10 4 20 20 20c17 0 20 -10 20 -20v-376c6 -6 18 -14 31 -14s25 8 31 14v376c0 10 3 20 20 20c16 0 20 -10 20 -20v-322
c0 -11 3 -14 8 -14c6 0 35 26 54 45v291c0 10 4 20 20 20s20 -10 20 -20v-235c0 -11 2 -14 8 -14c12 0 48 44 63 44c10 0 12 -5 12 -10c0 -3 -2 -6 -4 -8c-50 -50 -222 -216 -242 -276c-1 -3 -4 -6 -10 -6c-5 0 -9 3 -10 6c-20 60 -192 226 -242 276c-2 2 -4 5 -4 8z" />
    <glyph glyph-name="u27F2" unicode="&#x27f2;" horiz-adv-x="520" 
d="M0 491c0 5 4 9 10 9c3 0 5 -1 8 -3c22 -16 22 -101 38 -101c3 0 7 5 10 10c45 63 120 104 204 104c138 0 250 -112 250 -250s-112 -250 -250 -250c-103 0 -186 62 -226 142c-1 2 -2 7 -2 10c0 11 10 20 20 20c8 0 13 -5 16 -12c34 -71 108 -120 192 -120
c116 0 210 94 210 210s-94 210 -210 210c-71 0 -134 -35 -172 -88c-3 -4 -4 -9 -4 -12c0 -5 4 -6 12 -6c18 0 53 8 76 8c13 0 26 -3 26 -14c0 -5 -4 -9 -10 -10c-93 -15 -137 -25 -174 -54c-4 -3 -7 -4 -10 -4c-4 0 -6 4 -6 8c0 9 10 27 10 62c0 49 -18 124 -18 131z" />
    <glyph glyph-name="u27F3" unicode="&#x27f3;" horiz-adv-x="520" 
d="M0 260c0 138 112 250 250 250c84 0 159 -41 204 -104c3 -5 7 -10 10 -10c16 0 16 85 38 101c3 2 5 3 8 3c6 0 10 -4 10 -9c0 -7 -18 -82 -18 -131c0 -35 10 -53 10 -62c0 -4 -2 -8 -6 -8c-3 0 -6 1 -10 4c-37 29 -81 39 -174 54c-6 1 -10 5 -10 10c0 11 13 14 26 14
c23 0 58 -8 76 -8c8 0 12 1 12 6c0 3 -1 8 -4 12c-38 53 -101 88 -172 88c-116 0 -210 -94 -210 -210s94 -210 210 -210c84 0 158 49 192 120c3 7 8 12 16 12c10 0 20 -9 20 -20c0 -3 -1 -8 -2 -10c-40 -80 -123 -142 -226 -142c-138 0 -250 112 -250 250z" />
    <glyph glyph-name="u27F5" unicode="&#x27f5;" horiz-adv-x="1000" 
d="M0 263c0 5 4 8 7 9c60 20 95 63 145 113c2 2 4 3 7 3c5 0 11 -2 11 -12c0 -24 -62 -71 -62 -85c0 -5 3 -8 14 -8h859c10 0 19 -4 19 -20s-9 -20 -19 -20h-859c-11 0 -14 -3 -14 -8c0 -14 62 -61 62 -85c0 -10 -6 -12 -11 -12c-3 0 -5 1 -7 3c-50 50 -85 93 -145 113
c-3 1 -7 4 -7 9z" />
    <glyph glyph-name="u27F6" unicode="&#x27f6;" horiz-adv-x="1000" 
d="M0 263c0 16 9 20 19 20h859c11 0 14 3 14 8c0 14 -62 61 -62 85c0 10 6 12 11 12c3 0 5 -1 7 -3c50 -50 85 -93 145 -113c3 -1 7 -4 7 -9s-4 -8 -7 -9c-60 -20 -95 -63 -145 -113c-2 -2 -4 -3 -7 -3c-5 0 -11 2 -11 12c0 24 62 71 62 85c0 5 -3 8 -14 8h-859
c-10 0 -19 4 -19 20z" />
    <glyph glyph-name="u27F7" unicode="&#x27f7;" horiz-adv-x="1000" 
d="M0 263c0 5 4 8 7 9c60 20 95 63 145 113c2 2 4 3 7 3c5 0 11 -2 11 -12c0 -24 -62 -71 -62 -85c0 -5 3 -8 14 -8h756c11 0 14 3 14 8c0 14 -62 61 -62 85c0 10 6 12 11 12c3 0 5 -1 7 -3c50 -50 85 -93 145 -113c3 -1 7 -4 7 -9s-4 -8 -7 -9c-60 -20 -95 -63 -145 -113
c-2 -2 -4 -3 -7 -3c-5 0 -11 2 -11 12c0 24 62 71 62 85c0 5 -3 8 -14 8h-756c-11 0 -14 -3 -14 -8c0 -14 62 -61 62 -85c0 -10 -6 -12 -11 -12c-3 0 -5 1 -7 3c-50 50 -85 93 -145 113c-3 1 -7 4 -7 9z" />
    <glyph glyph-name="u27F8" unicode="&#x27f8;" horiz-adv-x="1000" 
d="M0 263c0 5 4 8 7 9c60 20 190 138 240 188c2 2 4 3 7 3c5 0 11 -2 11 -12c0 -27 -82 -86 -82 -100c0 -6 3 -8 14 -8h784c10 0 19 -4 19 -20s-9 -20 -19 -20h-854c-14 -10 -27 -20 -27 -40s13 -30 27 -40h854c10 0 19 -4 19 -20s-9 -20 -19 -20h-784c-11 0 -14 -2 -14 -8
c0 -14 82 -73 82 -100c0 -10 -6 -12 -11 -12c-3 0 -5 1 -7 3c-50 50 -180 168 -240 188c-3 1 -7 4 -7 9z" />
    <glyph glyph-name="u27F9" unicode="&#x27f9;" horiz-adv-x="1000" 
d="M0 203c0 16 9 20 19 20h854c14 10 27 20 27 40s-13 30 -27 40h-854c-10 0 -19 4 -19 20s9 20 19 20h784c11 0 14 2 14 8c0 14 -82 73 -82 100c0 10 6 12 11 12c3 0 5 -1 7 -3c50 -50 180 -168 240 -188c3 -1 7 -4 7 -9s-4 -8 -7 -9c-60 -20 -190 -138 -240 -188
c-2 -2 -4 -3 -7 -3c-5 0 -11 2 -11 12c0 27 82 86 82 100c0 6 -3 8 -14 8h-784c-10 0 -19 4 -19 20z" />
    <glyph glyph-name="u27FA" unicode="&#x27fa;" horiz-adv-x="1000" 
d="M100 263c0 -20 13 -30 27 -40h746c14 10 27 20 27 40s-13 30 -27 40h-746c-14 -10 -27 -20 -27 -40zM0 263c0 5 4 8 7 9c60 20 190 138 240 188c2 2 4 3 7 3c5 0 11 -2 11 -12c0 -27 -82 -86 -82 -100c0 -6 3 -8 14 -8h606c11 0 14 2 14 8c0 14 -82 73 -82 100
c0 10 6 12 11 12c3 0 5 -1 7 -3c50 -50 180 -168 240 -188c3 -1 7 -4 7 -9s-4 -8 -7 -9c-60 -20 -190 -138 -240 -188c-2 -2 -4 -3 -7 -3c-5 0 -11 2 -11 12c0 27 82 86 82 100c0 6 -3 8 -14 8h-606c-11 0 -14 -2 -14 -8c0 -14 82 -73 82 -100c0 -10 -6 -12 -11 -12
c-3 0 -5 1 -7 3c-50 50 -180 168 -240 188c-3 1 -7 4 -7 9z" />
    <glyph glyph-name="u27FF" unicode="&#x27ff;" horiz-adv-x="1000" 
d="M0 275c0 4 2 7 6 7c2 0 3 0 6 -4c10 -13 32 -30 44 -30c20 0 41 90 61 90c34 0 76 -90 104 -90c20 0 41 90 61 90c34 0 76 -90 104 -90c20 0 41 90 61 90c34 0 76 -90 104 -90c20 0 41 90 61 90c34 0 76 -90 104 -90c20 0 41 90 61 90c24 0 47 -55 101 -55
c11 0 14 3 14 8c0 14 -62 61 -62 85c0 10 6 12 11 12c3 0 5 -1 7 -3c50 -50 85 -93 145 -113c3 -1 7 -4 7 -9s-4 -8 -7 -9c-60 -20 -95 -63 -145 -113c-2 -2 -4 -3 -7 -3c-5 0 -11 2 -11 12c0 24 62 71 62 85c0 5 -3 8 -14 8c-44 0 -51 35 -75 35c-20 0 -41 -90 -61 -90
c-34 0 -76 90 -104 90c-20 0 -41 -90 -61 -90c-34 0 -76 90 -104 90c-20 0 -41 -90 -61 -90c-34 0 -76 90 -104 90c-20 0 -41 -90 -61 -90c-34 0 -76 90 -104 90c-20 0 -41 -90 -61 -90c-16 0 -51 34 -70 60c-3 4 -12 21 -12 27z" />
    <glyph glyph-name="u290A" unicode="&#x290a;" horiz-adv-x="476" 
d="M0 235c0 3 2 6 4 8c50 50 204 216 224 276c1 3 5 6 10 6c6 0 9 -3 10 -6c20 -60 174 -226 224 -276c2 -2 4 -5 4 -8c0 -5 -2 -10 -12 -10c-16 0 -66 58 -78 58c-6 0 -8 -3 -8 -14v-249c0 -10 -4 -20 -20 -20s-20 10 -20 20v313s-64 66 -72 66c-5 0 -8 -3 -8 -14v-365
c0 -10 -3 -20 -20 -20c-16 0 -20 10 -20 20v365c0 11 -3 14 -8 14c-8 0 -72 -66 -72 -66v-313c0 -10 -4 -20 -20 -20s-20 10 -20 20v249c0 11 -2 14 -8 14c-12 0 -62 -58 -78 -58c-10 0 -12 5 -12 10z" />
    <glyph glyph-name="u290B" unicode="&#x290b;" horiz-adv-x="476" 
d="M0 290c0 5 2 10 12 10c16 0 66 -58 78 -58c6 0 8 3 8 14v249c0 10 4 20 20 20s20 -10 20 -20v-313s64 -66 72 -66c5 0 8 3 8 14v365c0 10 4 20 20 20c17 0 20 -10 20 -20v-365c0 -11 3 -14 8 -14c8 0 72 66 72 66v313c0 10 4 20 20 20s20 -10 20 -20v-249
c0 -11 2 -14 8 -14c12 0 62 58 78 58c10 0 12 -5 12 -10c0 -3 -2 -6 -4 -8c-50 -50 -204 -216 -224 -276c-1 -3 -4 -6 -10 -6c-5 0 -9 3 -10 6c-20 60 -174 226 -224 276c-2 2 -4 5 -4 8z" />
    <glyph glyph-name="u290C" unicode="&#x290c;" 
d="M0 263c0 5 4 8 7 9c60 20 95 63 145 113c2 2 4 3 7 3c5 0 11 -2 11 -12c0 -24 -62 -71 -62 -85c0 -5 3 -8 14 -8h141c10 0 19 -4 19 -20s-9 -20 -19 -20h-141c-11 0 -14 -3 -14 -8c0 -14 62 -61 62 -85c0 -10 -6 -12 -11 -12c-3 0 -5 1 -7 3c-50 50 -85 93 -145 113
c-3 1 -7 4 -7 9zM340 263c0 16 9 20 19 20h122c10 0 19 -4 19 -20s-9 -20 -19 -20h-122c-10 0 -19 4 -19 20z" />
    <glyph glyph-name="u290D" unicode="&#x290d;" 
d="M0 263c0 16 9 20 19 20h122c10 0 19 -4 19 -20s-9 -20 -19 -20h-122c-10 0 -19 4 -19 20zM218 263c0 16 9 20 19 20h141c11 0 14 3 14 8c0 14 -62 61 -62 85c0 10 6 12 11 12c3 0 5 -1 7 -3c50 -50 85 -93 145 -113c3 -1 7 -4 7 -9s-4 -8 -7 -9
c-60 -20 -95 -63 -145 -113c-2 -2 -4 -3 -7 -3c-5 0 -11 2 -11 12c0 24 62 71 62 85c0 5 -3 8 -14 8h-141c-10 0 -19 4 -19 20z" />
    <glyph glyph-name="u290E" unicode="&#x290e;" 
d="M266 263c0 16 9 20 19 20h52c10 0 19 -4 19 -20s-9 -20 -19 -20h-52c-10 0 -19 4 -19 20zM0 263c0 5 4 8 7 9c60 20 95 63 145 113c2 2 4 3 7 3c5 0 11 -2 11 -12c0 -24 -62 -71 -62 -85c0 -5 3 -8 14 -8h71c10 0 19 -4 19 -20s-9 -20 -19 -20h-71c-11 0 -14 -3 -14 -8
c0 -14 62 -61 62 -85c0 -10 -6 -12 -11 -12c-3 0 -5 1 -7 3c-50 50 -85 93 -145 113c-3 1 -7 4 -7 9zM410 263c0 16 9 20 19 20h52c10 0 19 -4 19 -20s-9 -20 -19 -20h-52c-10 0 -19 4 -19 20z" />
    <glyph glyph-name="u290F" unicode="&#x290f;" 
d="M288 263c0 16 9 20 19 20h71c11 0 14 3 14 8c0 14 -62 61 -62 85c0 10 6 12 11 12c3 0 5 -1 7 -3c50 -50 85 -93 145 -113c3 -1 7 -4 7 -9s-4 -8 -7 -9c-60 -20 -95 -63 -145 -113c-2 -2 -4 -3 -7 -3c-5 0 -11 2 -11 12c0 24 62 71 62 85c0 5 -3 8 -14 8h-71
c-10 0 -19 4 -19 20zM144 263c0 16 9 20 19 20h52c10 0 19 -4 19 -20s-9 -20 -19 -20h-52c-10 0 -19 4 -19 20zM0 263c0 16 9 20 19 20h52c10 0 19 -4 19 -20s-9 -20 -19 -20h-52c-10 0 -19 4 -19 20z" />
    <glyph glyph-name="u2911" unicode="&#x2911;" 
d="M286 263c0 15 5 20 20 20s20 -5 20 -20s-5 -20 -20 -20s-20 5 -20 20zM358 263c0 15 5 20 20 20c11 0 14 3 14 8c0 14 -62 61 -62 85c0 10 6 12 11 12c3 0 5 -1 7 -3c50 -50 85 -93 145 -113c3 -1 7 -4 7 -9s-4 -8 -7 -9c-60 -20 -95 -63 -145 -113c-2 -2 -4 -3 -7 -3
c-5 0 -11 2 -11 12c0 24 62 71 62 85c0 5 -3 8 -14 8c-15 0 -20 5 -20 20zM215 263c0 15 5 20 20 20s20 -5 20 -20s-5 -20 -20 -20s-20 5 -20 20zM143 263c0 15 5 20 20 20s20 -5 20 -20s-5 -20 -20 -20s-20 5 -20 20zM72 263c0 15 5 20 20 20s20 -5 20 -20s-5 -20 -20 -20
s-20 5 -20 20zM0 263c0 15 5 20 20 20s20 -5 20 -20s-5 -20 -20 -20s-20 5 -20 20z" />
    <glyph glyph-name="u2921" unicode="&#x2921;" 
d="M0 493c0 4 3 7 7 7c3 0 5 -1 7 -2c46 -23 82 -23 182 -23c3 0 11 -1 11 -10c0 -3 -2 -6 -5 -9c-19 -19 -106 -3 -106 -20c0 -3 2 -6 7 -11l322 -322c6 -6 8 -7 11 -7c17 0 1 87 20 106c3 3 6 5 9 5c9 0 10 -8 10 -11c0 -100 0 -136 23 -182c1 -2 2 -4 2 -7
c0 -4 -3 -7 -7 -7c-3 0 -5 1 -7 2c-46 23 -82 23 -182 23c-3 0 -11 1 -11 10c0 3 2 6 5 9c19 19 106 3 106 20c0 3 -2 6 -7 11l-322 322c-6 6 -8 7 -11 7c-17 0 -1 -87 -20 -106c-3 -3 -6 -5 -9 -5c-9 0 -10 8 -10 11c0 100 0 136 -23 182c-1 2 -2 4 -2 7z" />
    <glyph glyph-name="u2922" unicode="&#x2922;" 
d="M0 7c0 3 1 5 2 7c23 46 23 82 23 182c0 3 1 11 10 11c3 0 6 -2 9 -5c19 -19 3 -106 20 -106c3 0 5 1 11 7l322 322c5 5 7 8 7 11c0 17 -87 1 -106 20c-3 3 -5 6 -5 9c0 9 8 10 11 10c100 0 136 0 182 23c2 1 4 2 7 2c4 0 7 -3 7 -7c0 -3 -1 -5 -2 -7
c-23 -46 -23 -82 -23 -182c0 -3 -1 -11 -10 -11c-3 0 -6 2 -9 5c-19 19 -3 106 -20 106c-3 0 -5 -1 -11 -7l-322 -322c-5 -5 -7 -8 -7 -11c0 -17 87 -1 106 -20c3 -3 5 -6 5 -9c0 -9 -8 -10 -11 -10c-100 0 -136 0 -182 -23c-2 -1 -4 -2 -7 -2c-4 0 -7 3 -7 7z" />
    <glyph glyph-name="u2934" unicode="&#x2934;" horiz-adv-x="380" 
d="M0 103c0 16 9 20 19 20h56c104 0 160 56 160 160v48c0 11 -3 14 -8 14c-14 0 -61 -62 -85 -62c-10 0 -12 6 -12 11c0 3 1 5 3 7c50 50 93 85 113 145c1 3 4 7 9 7s8 -4 9 -7c20 -60 63 -95 113 -145c2 -2 3 -4 3 -7c0 -5 -2 -11 -12 -11c-24 0 -71 62 -85 62
c-5 0 -8 -3 -8 -14v-48c0 -132 -68 -200 -200 -200h-56c-10 0 -19 4 -19 20z" />
    <glyph glyph-name="u2935" unicode="&#x2935;" horiz-adv-x="380" 
d="M0 423c0 16 9 20 19 20h56c132 0 200 -68 200 -200v-48c0 -11 3 -14 8 -14c14 0 61 62 85 62c10 0 12 -6 12 -11c0 -3 -1 -5 -3 -7c-50 -50 -93 -85 -113 -145c-1 -3 -4 -7 -9 -7s-8 4 -9 7c-20 60 -63 95 -113 145c-2 2 -3 4 -3 7c0 5 2 11 12 11c24 0 71 -62 85 -62
c5 0 8 3 8 14v48c0 104 -56 160 -160 160h-56c-10 0 -19 4 -19 20z" />
    <glyph glyph-name="u2936" unicode="&#x2936;" horiz-adv-x="370" 
d="M0 198c0 5 4 8 7 9c60 20 95 63 145 113c2 2 4 3 7 3c5 0 11 -2 11 -12c0 -24 -62 -71 -62 -85c0 -5 3 -8 14 -8h48c104 0 160 56 160 160v56c0 10 4 19 20 19s20 -9 20 -19v-56c0 -132 -68 -200 -200 -200h-48c-11 0 -14 -3 -14 -8c0 -14 62 -61 62 -85
c0 -10 -6 -12 -11 -12c-3 0 -5 1 -7 3c-50 50 -85 93 -145 113c-3 1 -7 4 -7 9z" />
    <glyph glyph-name="u2937" unicode="&#x2937;" horiz-adv-x="370" 
d="M0 378v56c0 10 4 19 20 19s20 -9 20 -19v-56c0 -104 56 -160 160 -160h48c11 0 14 3 14 8c0 14 -62 61 -62 85c0 10 6 12 11 12c3 0 5 -1 7 -3c50 -50 85 -93 145 -113c3 -1 7 -4 7 -9s-4 -8 -7 -9c-60 -20 -95 -63 -145 -113c-2 -2 -4 -3 -7 -3c-5 0 -11 2 -11 12
c0 24 62 71 62 85c0 5 -3 8 -14 8h-48c-132 0 -200 68 -200 200z" />
    <glyph glyph-name="u2938" unicode="&#x2938;" horiz-adv-x="220" 
d="M0 13c0 18 32 12 57 179c1 8 3 15 10 15c14 0 15 -17 15 -26c0 -23 -8 -57 -8 -75c0 -8 1 -13 6 -13c3 0 7 2 11 5c53 38 89 87 89 171c0 109 -71 199 -168 231c-7 2 -12 9 -12 17c0 10 9 20 20 20s30 -9 32 -10c89 -40 168 -132 168 -258c0 -100 -42 -158 -105 -203
c-5 -3 -10 -8 -10 -11c0 -16 86 -15 101 -37c2 -3 4 -5 4 -10c0 -6 -6 -8 -10 -8c-15 0 -80 17 -131 17c-42 0 -55 -10 -62 -10c-4 0 -7 3 -7 6z" />
    <glyph glyph-name="u2939" unicode="&#x2939;" horiz-adv-x="220" 
d="M0 269c0 126 79 218 168 258c2 1 21 10 32 10s20 -10 20 -20c0 -8 -5 -15 -12 -17c-97 -32 -168 -122 -168 -231c0 -84 36 -133 89 -171c4 -3 8 -5 11 -5c5 0 6 5 6 13c0 18 -8 52 -8 75c0 9 1 26 15 26c7 0 9 -7 10 -15c25 -167 57 -161 57 -179c0 -3 -3 -6 -7 -6
c-7 0 -20 10 -62 10c-51 0 -116 -17 -131 -17c-4 0 -10 2 -10 8c0 5 2 7 4 10c15 22 101 21 101 37c0 3 -5 8 -10 11c-63 45 -105 103 -105 203z" />
    <glyph glyph-name="u293A" unicode="&#x293a;" horiz-adv-x="536" 
d="M0 390c0 5 4 9 10 9c3 0 5 -1 8 -3c22 -16 22 -101 38 -101c3 0 7 5 10 10c45 63 102 104 202 104c126 0 218 -79 258 -168c1 -2 10 -21 10 -32s-10 -20 -20 -20c-8 0 -14 5 -16 12c-32 97 -123 168 -232 168c-84 0 -132 -35 -170 -88c-3 -4 -4 -9 -4 -12
c0 -5 4 -6 12 -6c18 0 53 8 76 8c13 0 26 -3 26 -14c0 -5 -4 -9 -10 -10c-93 -15 -137 -25 -174 -54c-4 -3 -7 -4 -10 -4c-4 0 -6 4 -6 8c0 9 10 27 10 62c0 49 -18 124 -18 131z" />
    <glyph glyph-name="u293B" unicode="&#x293b;" horiz-adv-x="536" 
d="M0 317c0 11 10 20 20 20c8 0 14 -5 16 -12c32 -97 123 -168 232 -168c84 0 132 35 170 88c3 4 4 9 4 12c0 5 -4 6 -12 6c-18 0 -53 -8 -76 -8c-13 0 -26 3 -26 14c0 5 4 9 10 10c93 15 137 25 174 54c4 3 7 4 10 4c4 0 6 -4 6 -8c0 -9 -10 -27 -10 -62
c0 -49 18 -124 18 -131c0 -5 -4 -9 -10 -9c-3 0 -5 1 -8 3c-22 16 -22 101 -38 101c-3 0 -7 -5 -10 -10c-45 -63 -102 -104 -202 -104c-126 0 -218 79 -258 168c-1 2 -10 21 -10 32z" />
    <glyph glyph-name="u293E" unicode="&#x293e;" horiz-adv-x="520" 
d="M0 19c0 7 18 82 18 131c0 35 -10 53 -10 62c0 4 2 8 6 8c3 0 6 -1 10 -4c37 -29 81 -39 174 -54c6 -1 10 -5 10 -10c0 -11 -13 -14 -26 -14c-23 0 -58 8 -76 8c-8 0 -12 -1 -12 -6c0 -3 1 -8 4 -12c38 -53 101 -88 172 -88c116 0 212 94 212 210c0 58 -25 111 -63 149
c-3 3 -5 8 -5 13c0 10 9 19 19 19c5 0 10 -2 13 -5c44 -44 74 -106 74 -176c0 -138 -112 -250 -250 -250c-84 0 -159 41 -204 104c-3 5 -7 10 -10 10c-16 0 -16 -85 -38 -101c-3 -2 -5 -3 -8 -3c-6 0 -10 4 -10 9z" />
    <glyph glyph-name="u293F" unicode="&#x293f;" horiz-adv-x="520" 
d="M0 250c0 70 30 132 74 176c3 3 8 5 13 5c10 0 19 -9 19 -19c0 -5 -2 -10 -5 -13c-38 -38 -63 -91 -63 -149c0 -116 96 -210 212 -210c71 0 134 35 172 88c3 4 4 9 4 12c0 5 -4 6 -12 6c-18 0 -53 -8 -76 -8c-13 0 -26 3 -26 14c0 5 4 9 10 10c93 15 137 25 174 54
c4 3 7 4 10 4c4 0 6 -4 6 -8c0 -9 -10 -27 -10 -62c0 -49 18 -124 18 -131c0 -5 -4 -9 -10 -9c-3 0 -5 1 -8 3c-22 16 -22 101 -38 101c-3 0 -7 -5 -10 -10c-45 -63 -120 -104 -204 -104c-138 0 -250 112 -250 250z" />
    <glyph glyph-name="u2940" unicode="&#x2940;" 
d="M40 263c0 -116 94 -210 210 -210s210 94 210 210c0 88 -55 164 -132 195c-14 6 -24 11 -33 11c-11 0 -14 -3 -14 -8c0 -14 62 -61 62 -85c0 -10 -6 -12 -11 -12c-3 0 -5 1 -7 3c-42 42 -73 79 -118 102c-95 -20 -167 -105 -167 -206zM0 263c0 123 89 226 207 246
c45 23 76 60 118 102c2 2 4 3 7 3c5 0 11 -2 11 -12c0 -24 -62 -71 -62 -85c0 -5 8 -7 14 -8c117 -21 205 -123 205 -246c0 -138 -112 -250 -250 -250s-250 112 -250 250z" />
    <glyph glyph-name="u2941" unicode="&#x2941;" 
d="M40 263c0 -116 94 -210 210 -210s210 94 210 210c0 101 -72 186 -167 206c-45 -23 -76 -60 -118 -102c-2 -2 -4 -3 -7 -3c-5 0 -11 2 -11 12c0 24 62 71 62 85c0 5 -3 8 -14 8c-9 0 -19 -5 -33 -11c-77 -31 -132 -107 -132 -195zM0 263c0 123 88 225 205 246
c6 1 14 3 14 8c0 14 -62 61 -62 85c0 10 6 12 11 12c3 0 5 -1 7 -3c42 -42 73 -79 118 -102c118 -20 207 -123 207 -246c0 -138 -112 -250 -250 -250s-250 112 -250 250z" />
    <glyph glyph-name="u2B00" unicode="&#x2b00;" horiz-adv-x="428" 
d="M0 158c0 7 2 14 7 19l196 196l-83 83h291c4 0 8 -1 12 -5s5 -8 5 -12v-291l-83 83l-196 -196c-5 -5 -12 -7 -19 -7c-20 0 -50 18 -81 49s-49 61 -49 81zM39 150c0 -11 12 -23 36 -47s36 -36 47 -36c5 0 11 3 16 8l207 208l47 -47v167c0 4 -1 8 -5 12s-8 5 -12 5h-167
l47 -47l-208 -207c-5 -5 -8 -11 -8 -16z" />
    <glyph glyph-name="u2B01" unicode="&#x2b01;" horiz-adv-x="428" 
d="M0 148v291c0 4 1 8 5 12s8 5 12 5h291l-83 -83l196 -196c5 -5 7 -12 7 -19c0 -20 -18 -50 -49 -81s-61 -49 -81 -49c-7 0 -14 2 -19 7l-196 196zM36 236l47 47l207 -208c5 -5 11 -8 16 -8c11 0 23 12 47 36s36 36 36 47c0 5 -3 11 -8 16l-208 207l47 47h-167
c-4 0 -8 -1 -12 -5s-5 -8 -5 -12v-167z" />
    <glyph glyph-name="u2B02" unicode="&#x2b02;" horiz-adv-x="428" 
d="M0 326c0 20 18 50 49 81s61 49 81 49c7 0 14 -2 19 -7l196 -196l83 83v-291c0 -4 -1 -8 -5 -12s-8 -5 -12 -5h-291l83 83l-196 196c-5 5 -7 12 -7 19zM39 334c0 -5 3 -11 8 -16l208 -207l-47 -47h167c4 0 8 1 12 5s5 8 5 12v167l-47 -47l-207 208c-5 5 -11 8 -16 8
c-11 0 -23 -12 -47 -36s-36 -36 -36 -47z" />
    <glyph glyph-name="u2B03" unicode="&#x2b03;" horiz-adv-x="428" 
d="M0 45v291l83 -83l196 196c5 5 12 7 19 7c20 0 50 -18 81 -49s49 -61 49 -81c0 -7 -2 -14 -7 -19l-196 -196l83 -83h-291c-4 0 -8 1 -12 5s-5 8 -5 12zM36 81c0 -4 1 -8 5 -12s8 -5 12 -5h167l-47 47l208 207c5 5 8 11 8 16c0 11 -12 23 -36 47s-36 36 -47 36
c-5 0 -11 -3 -16 -8l-207 -208l-47 47v-167z" />
    <glyph glyph-name="u2B04" unicode="&#x2b04;" horiz-adv-x="600" 
d="M51 263c0 -6 2 -9 5 -12l118 -118v66h252v-66l118 118c3 3 5 6 5 12s-2 9 -5 12l-118 118v-66h-252v66l-118 -118c-3 -3 -5 -6 -5 -12zM0 263c0 6 2 9 5 12l205 205v-117h180v117l205 -205c3 -3 5 -6 5 -12s-2 -9 -5 -12l-205 -205v117h-180v-117l-205 205
c-3 3 -5 6 -5 12z" />
    <glyph glyph-name="u2B05" unicode="&#x2b05;" horiz-adv-x="528" 
d="M0 263c0 6 2 9 5 12l205 205v-117h278c24 0 40 -40 40 -100s-16 -100 -40 -100h-278v-117l-205 205c-3 3 -5 6 -5 12z" />
    <glyph glyph-name="u2B06" unicode="&#x2b06;" horiz-adv-x="434" 
d="M0 318l205 205c3 3 6 5 12 5s9 -2 12 -5l205 -205h-117v-278c0 -24 -40 -40 -100 -40s-100 16 -100 40v278h-117z" />
    <glyph glyph-name="u2B07" unicode="&#x2b07;" horiz-adv-x="434" 
d="M0 210h117v278c0 24 40 40 100 40s100 -16 100 -40v-278h117l-205 -205c-3 -3 -6 -5 -12 -5s-9 2 -12 5z" />
    <glyph glyph-name="u2B08" unicode="&#x2b08;" horiz-adv-x="428" 
d="M0 158c0 7 2 14 7 19l196 196l-83 83h291c4 0 8 -1 12 -5s5 -8 5 -12v-291l-83 83l-196 -196c-5 -5 -12 -7 -19 -7c-20 0 -50 18 -81 49s-49 61 -49 81z" />
    <glyph glyph-name="u2B09" unicode="&#x2b09;" horiz-adv-x="428" 
d="M0 148v291c0 4 1 8 5 12s8 5 12 5h291l-83 -83l196 -196c5 -5 7 -12 7 -19c0 -20 -18 -50 -49 -81s-61 -49 -81 -49c-7 0 -14 2 -19 7l-196 196z" />
    <glyph glyph-name="u2B0A" unicode="&#x2b0a;" horiz-adv-x="428" 
d="M0 326c0 20 18 50 49 81s61 49 81 49c7 0 14 -2 19 -7l196 -196l83 83v-291c0 -4 -1 -8 -5 -12s-8 -5 -12 -5h-291l83 83l-196 196c-5 5 -7 12 -7 19z" />
    <glyph glyph-name="u2B0B" unicode="&#x2b0b;" horiz-adv-x="428" 
d="M0 45v291l83 -83l196 196c5 5 12 7 19 7c20 0 50 -18 81 -49s49 -61 49 -81c0 -7 -2 -14 -7 -19l-196 -196l83 -83h-291c-4 0 -8 1 -12 5s-5 8 -5 12z" />
    <glyph glyph-name="u2B0C" unicode="&#x2b0c;" horiz-adv-x="600" 
d="M0 263c0 6 2 9 5 12l205 205v-117h180v117l205 -205c3 -3 5 -6 5 -12s-2 -9 -5 -12l-205 -205v117h-180v-117l-205 205c-3 3 -5 6 -5 12z" />
    <glyph glyph-name="u2B0D" unicode="&#x2b0d;" horiz-adv-x="434" 
d="M0 210h117v180h-117l205 205c3 3 6 5 12 5s9 -2 12 -5l205 -205h-117v-180h117l-205 -205c-3 -3 -6 -5 -12 -5s-9 2 -12 5z" />
    <glyph glyph-name="u2B0E" unicode="&#x2b0e;" 
d="M0 480c0 16 9 20 19 20h356c16 0 20 -9 20 -19v-116c0 -11 3 -14 8 -14c14 0 61 62 85 62c10 0 12 -6 12 -11c0 -3 -1 -5 -3 -7c-50 -50 -93 -85 -113 -145c-1 -3 -4 -7 -9 -7s-8 4 -9 7c-20 60 -63 95 -113 145c-2 2 -3 4 -3 7c0 5 2 11 12 11c24 0 71 -62 85 -62
c5 0 8 3 8 14v95h-336c-10 0 -19 4 -19 20z" />
    <glyph glyph-name="u2B0F" unicode="&#x2b0f;" 
d="M0 263c0 16 9 20 19 20h336v95c0 11 -3 14 -8 14c-14 0 -61 -62 -85 -62c-10 0 -12 6 -12 11c0 3 1 5 3 7c50 50 93 85 113 145c1 3 4 7 9 7s8 -4 9 -7c20 -60 63 -95 113 -145c2 -2 3 -4 3 -7c0 -5 -2 -11 -12 -11c-24 0 -71 62 -85 62c-5 0 -8 -3 -8 -14v-116
c0 -10 -4 -19 -20 -19h-356c-10 0 -19 4 -19 20z" />
    <glyph glyph-name="u2B10" unicode="&#x2b10;" 
d="M0 402c0 5 2 11 12 11c24 0 71 -62 85 -62c5 0 8 3 8 14v116c0 10 4 19 20 19h356c10 0 19 -4 19 -20s-9 -20 -19 -20h-336v-95c0 -11 3 -14 8 -14c14 0 61 62 85 62c10 0 12 -6 12 -11c0 -3 -1 -5 -3 -7c-50 -50 -93 -85 -113 -145c-1 -3 -4 -7 -9 -7s-8 4 -9 7
c-20 60 -63 95 -113 145c-2 2 -3 4 -3 7z" />
    <glyph glyph-name="u2B11" unicode="&#x2b11;" 
d="M0 341c0 3 1 5 3 7c50 50 93 85 113 145c1 3 4 7 9 7s8 -4 9 -7c20 -60 63 -95 113 -145c2 -2 3 -4 3 -7c0 -5 -2 -11 -12 -11c-24 0 -71 62 -85 62c-5 0 -8 -3 -8 -14v-95h336c10 0 19 -4 19 -20s-9 -20 -19 -20h-356c-16 0 -20 9 -20 19v116c0 11 -3 14 -8 14
c-14 0 -61 -62 -85 -62c-10 0 -12 6 -12 11z" />
    <glyph glyph-name="u2B12" unicode="&#x2b12;" horiz-adv-x="600" 
d="M36 36h528v264h-528v-264zM0 0v600h600v-600h-600z" />
    <glyph glyph-name="u2B13" unicode="&#x2b13;" horiz-adv-x="600" 
d="M36 300h528v264h-528v-264zM0 0v600h600v-600h-600z" />
    <glyph glyph-name="u2B14" unicode="&#x2b14;" horiz-adv-x="600" 
d="M36 36h528l-528 528v-528zM0 0v600h600v-600h-600z" />
    <glyph glyph-name="u2B15" unicode="&#x2b15;" horiz-adv-x="600" 
d="M36 564l528 -528v528h-528zM0 0v600h600v-600h-600z" />
    <glyph glyph-name="u2B16" unicode="&#x2b16;" horiz-adv-x="600" 
d="M300 51l249 249l-249 249v-498zM0 300l300 300l300 -300l-300 -300z" />
    <glyph glyph-name="u2B17" unicode="&#x2b17;" horiz-adv-x="600" 
d="M51 300l249 -249v498zM0 300l300 300l300 -300l-300 -300z" />
    <glyph glyph-name="u2B18" unicode="&#x2b18;" horiz-adv-x="600" 
d="M51 300l249 -249l249 249h-498zM0 300l300 300l300 -300l-300 -300z" />
    <glyph glyph-name="u2B19" unicode="&#x2b19;" horiz-adv-x="600" 
d="M51 300h498l-249 249zM0 300l300 300l300 -300l-300 -300z" />
    <glyph glyph-name="u2B1A" unicode="&#x2b1a;" horiz-adv-x="600" 
d="M564 470v36h36v-36h-36zM564 376v36h36v-36h-36zM564 282v36h36v-36h-36zM564 188v36h36v-36h-36zM564 94v36h36v-36h-36zM564 564v36h36v-36h-36zM470 564v36h36v-36h-36zM376 564v36h36v-36h-36zM282 564v36h36v-36h-36zM188 564v36h36v-36h-36zM94 564v36h36v-36h-36z
M564 0v36h36v-36h-36zM470 0v36h36v-36h-36zM376 0v36h36v-36h-36zM282 0v36h36v-36h-36zM188 0v36h36v-36h-36zM94 0v36h36v-36h-36zM0 564v36h36v-36h-36zM0 470v36h36v-36h-36zM0 376v36h36v-36h-36zM0 282v36h36v-36h-36zM0 188v36h36v-36h-36zM0 94v36h36v-36h-36zM0 0
v36h36v-36h-36z" />
    <glyph glyph-name="u2B1B" unicode="&#x2b1b;" horiz-adv-x="800" 
d="M0 0v800h800v-800h-800z" />
    <glyph glyph-name="u2B1C" unicode="&#x2b1c;" horiz-adv-x="800" 
d="M40 40h720v720h-720v-720zM0 0v800h800v-800h-800z" />
    <glyph glyph-name="u2B1D" unicode="&#x2b1d;" horiz-adv-x="90" 
d="M0 255v90h90v-90h-90z" />
    <glyph glyph-name="u2B1E" unicode="&#x2b1e;" horiz-adv-x="90" 
d="M18 273h54v54h-54v-54zM0 255v90h90v-90h-90z" />
    <glyph glyph-name="u2B1F" unicode="&#x2b1f;" horiz-adv-x="600" 
d="M0 352l300 218l300 -218l-115 -352h-370z" />
    <glyph glyph-name="u2B20" unicode="&#x2b20;" horiz-adv-x="600" 
d="M42 338l99 -302h318l99 302l-258 187zM0 352l300 218l300 -218l-115 -352h-370z" />
    <glyph glyph-name="u2B21" unicode="&#x2b21;" horiz-adv-x="520" 
d="M36 171l224 -129l224 129v258l-224 129l-224 -129v-258zM0 150v300l260 150l260 -150v-300l-260 -150z" />
    <glyph glyph-name="u2B22" unicode="&#x2b22;" horiz-adv-x="520" 
d="M0 150v300l260 150l260 -150v-300l-260 -150z" />
    <glyph glyph-name="u2B23" unicode="&#x2b23;" horiz-adv-x="600" 
d="M0 260l150 260h300l150 -260l-150 -260h-300z" />
    <glyph glyph-name="u2B24" unicode="&#x2b24;" horiz-adv-x="800" 
d="M0 400c0 221 179 400 400 400s400 -179 400 -400s-179 -400 -400 -400s-400 179 -400 400z" />
    <glyph glyph-name="u2B25" unicode="&#x2b25;" horiz-adv-x="350" 
d="M0 300l175 175l175 -175l-175 -175z" />
    <glyph glyph-name="u2B26" unicode="&#x2b26;" horiz-adv-x="350" 
d="M45 300l130 -130l130 130l-130 130zM0 300l175 175l175 -175l-175 -175z" />
    <glyph glyph-name="u2B27" unicode="&#x2b27;" horiz-adv-x="212" 
d="M0 300l106 171l106 -171l-106 -171z" />
    <glyph glyph-name="u2B28" unicode="&#x2b28;" horiz-adv-x="212" 
d="M38 300l68 -110l68 110l-68 110zM0 300l106 171l106 -171l-106 -171z" />
    <glyph glyph-name="u2B29" unicode="&#x2b29;" horiz-adv-x="180" 
d="M0 300l90 90l90 -90l-90 -90z" />
    <glyph glyph-name="u2B2A" unicode="&#x2b2a;" horiz-adv-x="110" 
d="M0 300l55 88l55 -88l-55 -88z" />
    <glyph glyph-name="u2B2B" unicode="&#x2b2b;" horiz-adv-x="110" 
d="M24 300l31 -50l31 50l-31 50zM0 300l55 88l55 -88l-55 -88z" />
    <glyph glyph-name="u2B33" unicode="&#x2b33;" horiz-adv-x="1000" 
d="M0 263c0 5 4 8 7 9c60 20 95 63 145 113c2 2 4 3 7 3c5 0 11 -2 11 -12c0 -24 -62 -71 -62 -85c0 -5 3 -8 14 -8c54 0 77 55 101 55c20 0 41 -90 61 -90c28 0 70 90 104 90c20 0 41 -90 61 -90c28 0 70 90 104 90c20 0 41 -90 61 -90c28 0 70 90 104 90
c20 0 41 -90 61 -90c28 0 70 90 104 90c20 0 41 -90 61 -90c12 0 34 17 44 30c3 4 4 4 6 4c4 0 6 -3 6 -7c0 -6 -9 -23 -12 -27c-19 -26 -54 -60 -70 -60c-20 0 -41 90 -61 90c-28 0 -70 -90 -104 -90c-20 0 -41 90 -61 90c-28 0 -70 -90 -104 -90c-20 0 -41 90 -61 90
c-28 0 -70 -90 -104 -90c-20 0 -41 90 -61 90c-28 0 -70 -90 -104 -90c-20 0 -41 90 -61 90c-24 0 -31 -35 -75 -35c-11 0 -14 -3 -14 -8c0 -14 62 -61 62 -85c0 -10 -6 -12 -11 -12c-3 0 -5 1 -7 3c-50 50 -85 93 -145 113c-3 1 -7 4 -7 9z" />
    <glyph glyph-name="u2B38" unicode="&#x2b38;" 
d="M174 263c0 15 5 20 20 20s20 -5 20 -20s-5 -20 -20 -20s-20 5 -20 20zM0 263c0 5 4 8 7 9c60 20 95 63 145 113c2 2 4 3 7 3c5 0 11 -2 11 -12c0 -24 -62 -71 -62 -85c0 -5 3 -8 14 -8c15 0 20 -5 20 -20s-5 -20 -20 -20c-11 0 -14 -3 -14 -8c0 -14 62 -61 62 -85
c0 -10 -6 -12 -11 -12c-3 0 -5 1 -7 3c-50 50 -85 93 -145 113c-3 1 -7 4 -7 9zM245 263c0 15 5 20 20 20s20 -5 20 -20s-5 -20 -20 -20s-20 5 -20 20zM317 263c0 15 5 20 20 20s20 -5 20 -20s-5 -20 -20 -20s-20 5 -20 20zM388 263c0 15 5 20 20 20s20 -5 20 -20
s-5 -20 -20 -20s-20 5 -20 20zM460 263c0 15 5 20 20 20s20 -5 20 -20s-5 -20 -20 -20s-20 5 -20 20z" />
    <glyph glyph-name="u2B45" unicode="&#x2b45;" 
d="M0 262c0 5 3 9 6 10c60 20 226 192 276 242c2 2 5 4 8 4c5 0 10 -2 10 -12c0 -15 -44 -50 -44 -62c0 -6 3 -8 14 -8h210c10 0 20 -4 20 -20s-10 -20 -20 -20h-266c-19 -19 -46 -48 -46 -54c0 -5 3 -8 14 -8h298c10 0 20 -4 20 -20c0 -17 -10 -20 -20 -20h-352
c-6 -6 -14 -19 -14 -32s8 -24 14 -30h352c10 0 20 -3 20 -20c0 -16 -10 -20 -20 -20h-298c-11 0 -14 -3 -14 -8c0 -6 27 -35 46 -54h266c10 0 20 -4 20 -20s-10 -20 -20 -20h-210c-11 0 -14 -2 -14 -8c0 -12 44 -49 44 -64c0 -10 -5 -12 -10 -12c-3 0 -6 2 -8 4
c-50 50 -216 222 -276 242c-3 1 -6 4 -6 10z" />
    <glyph glyph-name="u2B46" unicode="&#x2b46;" 
d="M0 110c0 16 10 20 20 20h266c19 19 46 48 46 54c0 5 -3 8 -14 8h-298c-10 0 -20 4 -20 20c0 17 10 20 20 20h352c6 6 14 17 14 30s-8 26 -14 32h-352c-10 0 -20 3 -20 20c0 16 10 20 20 20h298c11 0 14 3 14 8c0 6 -27 35 -46 54h-266c-10 0 -20 4 -20 20s10 20 20 20
h210c11 0 14 2 14 8c0 12 -44 47 -44 62c0 10 5 12 10 12c3 0 6 -2 8 -4c50 -50 216 -222 276 -242c3 -1 6 -5 6 -10c0 -6 -3 -9 -6 -10c-60 -20 -226 -192 -276 -242c-2 -2 -5 -4 -8 -4c-5 0 -10 2 -10 12c0 15 44 52 44 64c0 6 -3 8 -14 8h-210c-10 0 -20 4 -20 20z" />
    <glyph glyph-name="u2B50" unicode="&#x2b50;" horiz-adv-x="300" 
d="M0 254l101 -6c14 0 20 4 23 17l26 99l27 -98c3 -13 8 -16 22 -16l101 4l-82 -53c-6 -5 -13 -8 -13 -16c0 -6 2 -13 5 -21l32 -86l-71 59c-6 6 -13 11 -21 11s-15 -5 -21 -11l-71 -59l32 86c3 8 5 15 5 21c0 8 -7 11 -13 16zM67 232l56 -36l-24 -61l51 40l51 -40l-24 61
l56 36l-66 -4l-17 63l-17 -63z" />
    <glyph glyph-name="u2B51" unicode="&#x2b51;" horiz-adv-x="200" 
d="M0 242l67 -4c10 0 14 2 16 11l17 67l18 -66c2 -9 5 -11 15 -11l67 3l-54 -35c-4 -3 -9 -5 -9 -11c0 -4 1 -9 3 -14l21 -58l-47 39c-4 4 -9 8 -14 8s-10 -4 -14 -8l-47 -39l21 58c2 5 3 10 3 14c0 6 -5 8 -9 11z" />
    <glyph glyph-name="u2B52" unicode="&#x2b52;" horiz-adv-x="200" 
d="M40 229l41 -26l-18 -44l37 29l37 -29l-18 44l41 26l-48 -3l-12 45l-12 -45zM0 242l67 -4c10 0 14 2 16 11l17 67l18 -66c2 -9 5 -11 15 -11l67 3l-54 -35c-4 -3 -9 -5 -9 -11c0 -4 1 -9 3 -14l21 -58l-47 39c-4 4 -9 8 -14 8s-10 -4 -14 -8l-47 -39l21 58c2 5 3 10 3 14
c0 6 -5 8 -9 11z" />
    <glyph glyph-name="u2B53" unicode="&#x2b53;" horiz-adv-x="570" 
d="M0 115v370l352 115l218 -300l-218 -300z" />
    <glyph glyph-name="u2B54" unicode="&#x2b54;" horiz-adv-x="570" 
d="M36 141l302 -99l187 258l-187 258l-302 -99v-318zM0 115v370l352 115l218 -300l-218 -300z" />
    <glyph glyph-name="u2B55" unicode="&#x2b55;" horiz-adv-x="800" 
d="M100 400c0 -166 134 -300 300 -300s300 134 300 300s-134 300 -300 300s-300 -134 -300 -300zM0 400c0 221 179 400 400 400s400 -179 400 -400s-179 -400 -400 -400s-400 179 -400 400z" />
    <glyph glyph-name="u2B60" unicode="&#x2b60;" horiz-adv-x="528" 
d="M0 263c0 6 2 9 5 12l125 125v-117h378c10 0 20 -4 20 -20s-10 -20 -20 -20h-378v-117l-125 125c-3 3 -5 6 -5 12z" />
    <glyph glyph-name="u2B61" unicode="&#x2b61;" horiz-adv-x="274" 
d="M0 398l125 125c3 3 6 5 12 5s9 -2 12 -5l125 -125h-117v-378c0 -10 -4 -20 -20 -20s-20 10 -20 20v378h-117z" />
    <glyph glyph-name="u2B62" unicode="&#x2b62;" horiz-adv-x="528" 
d="M0 263c0 16 10 20 20 20h378v117l125 -125c3 -3 5 -6 5 -12s-2 -9 -5 -12l-125 -125v117h-378c-10 0 -20 4 -20 20z" />
    <glyph glyph-name="u2B63" unicode="&#x2b63;" horiz-adv-x="274" 
d="M0 130h117v378c0 10 4 20 20 20s20 -10 20 -20v-378h117l-125 -125c-3 -3 -6 -5 -12 -5s-9 2 -12 5z" />
    <glyph glyph-name="u2B64" unicode="&#x2b64;" horiz-adv-x="528" 
d="M0 263c0 6 2 9 5 12l125 125v-117h268v117l125 -125c3 -3 5 -6 5 -12s-2 -9 -5 -12l-125 -125v117h-268v-117l-125 125c-3 3 -5 6 -5 12z" />
    <glyph glyph-name="u2B65" unicode="&#x2b65;" horiz-adv-x="274" 
d="M0 130h117v268h-117l125 125c3 3 6 5 12 5s9 -2 12 -5l125 -125h-117v-268h117l-125 -125c-3 -3 -6 -5 -12 -5s-9 2 -12 5z" />
    <glyph glyph-name="u2B66" unicode="&#x2b66;" horiz-adv-x="383" 
d="M0 261v178c0 4 1 8 5 12s8 5 12 5h176l-83 -83l265 -265c4 -4 8 -9 8 -16c0 -11 -9 -20 -20 -20c-7 0 -12 4 -16 8l-264 264z" />
    <glyph glyph-name="u2B67" unicode="&#x2b67;" horiz-adv-x="383" 
d="M0 92c0 7 4 12 8 16l265 265l-83 83h176c4 0 8 -1 12 -5s5 -8 5 -12v-178l-83 83l-264 -264c-4 -4 -9 -8 -16 -8c-11 0 -20 9 -20 20z" />
    <glyph glyph-name="u2B68" unicode="&#x2b68;" horiz-adv-x="383" 
d="M0 436c0 11 9 20 20 20c7 0 12 -4 16 -8l264 -264l83 83v-178c0 -4 -1 -8 -5 -12s-8 -5 -12 -5h-176l83 83l-265 265c-4 4 -8 9 -8 16z" />
    <glyph glyph-name="u2B69" unicode="&#x2b69;" horiz-adv-x="383" 
d="M0 89v178l83 -83l264 264c4 4 9 8 16 8c11 0 20 -9 20 -20c0 -7 -4 -12 -8 -16l-265 -265l83 -83h-176c-4 0 -8 1 -12 5s-5 8 -5 12z" />
    <glyph glyph-name="u2B6A" unicode="&#x2b6a;" horiz-adv-x="528" 
d="M0 263c0 6 2 9 5 12l125 125v-117h48c10 0 20 -4 20 -20s-10 -20 -20 -20h-48v-117l-125 125c-3 3 -5 6 -5 12zM238 263c0 16 10 20 20 20h30c10 0 20 -4 20 -20s-10 -20 -20 -20h-30c-10 0 -20 4 -20 20zM348 263c0 16 10 20 20 20h30c10 0 20 -4 20 -20
s-10 -20 -20 -20h-30c-10 0 -20 4 -20 20zM458 263c0 16 10 20 20 20h30c10 0 20 -4 20 -20s-10 -20 -20 -20h-30c-10 0 -20 4 -20 20z" />
    <glyph glyph-name="u2B6B" unicode="&#x2b6b;" horiz-adv-x="274" 
d="M0 398l125 125c3 3 6 5 12 5s9 -2 12 -5l125 -125h-117v-48c0 -10 -4 -20 -20 -20s-20 10 -20 20v48h-117zM117 240v30c0 10 4 20 20 20s20 -10 20 -20v-30c0 -10 -4 -20 -20 -20s-20 10 -20 20zM117 130v30c0 10 4 20 20 20s20 -10 20 -20v-30c0 -10 -4 -20 -20 -20
s-20 10 -20 20zM117 20v30c0 10 4 20 20 20s20 -10 20 -20v-30c0 -10 -4 -20 -20 -20s-20 10 -20 20z" />
    <glyph glyph-name="u2B6C" unicode="&#x2b6c;" horiz-adv-x="528" 
d="M330 263c0 16 10 20 20 20h48v117l125 -125c3 -3 5 -6 5 -12s-2 -9 -5 -12l-125 -125v117h-48c-10 0 -20 4 -20 20zM220 263c0 16 10 20 20 20h30c10 0 20 -4 20 -20s-10 -20 -20 -20h-30c-10 0 -20 4 -20 20zM110 263c0 16 10 20 20 20h30c10 0 20 -4 20 -20
s-10 -20 -20 -20h-30c-10 0 -20 4 -20 20zM0 263c0 16 10 20 20 20h30c10 0 20 -4 20 -20s-10 -20 -20 -20h-30c-10 0 -20 4 -20 20z" />
    <glyph glyph-name="u2B6D" unicode="&#x2b6d;" horiz-adv-x="274" 
d="M0 130h117v48c0 10 4 20 20 20s20 -10 20 -20v-48h117l-125 -125c-3 -3 -6 -5 -12 -5s-9 2 -12 5zM117 258v30c0 10 4 20 20 20s20 -10 20 -20v-30c0 -10 -4 -20 -20 -20s-20 10 -20 20zM117 368v30c0 10 4 20 20 20s20 -10 20 -20v-30c0 -10 -4 -20 -20 -20
s-20 10 -20 20zM117 478v30c0 10 4 20 20 20s20 -10 20 -20v-30c0 -10 -4 -20 -20 -20s-20 10 -20 20z" />
    <glyph glyph-name="u2B6E" unicode="&#x2b6e;" 
d="M0 250c0 76 33 143 86 189l-75 89l176 -15c4 0 8 -1 12 -6s4 -9 4 -13l-16 -176l-75 90c-44 -38 -72 -95 -72 -158c0 -116 94 -210 210 -210s210 94 210 210c0 84 -49 157 -120 191c-7 3 -12 9 -12 17c0 10 9 20 20 20c3 0 7 -1 9 -2c80 -40 143 -123 143 -226
c0 -138 -112 -250 -250 -250s-250 112 -250 250z" />
    <glyph glyph-name="u2B6F" unicode="&#x2b6f;" 
d="M0 250c0 103 63 186 143 226c2 1 6 2 9 2c11 0 20 -10 20 -20c0 -8 -5 -14 -12 -17c-71 -34 -120 -107 -120 -191c0 -116 94 -210 210 -210s210 94 210 210c0 63 -28 120 -72 158l-75 -90l-16 176c0 4 0 8 4 13s8 6 12 6l176 15l-75 -89c53 -46 86 -113 86 -189
c0 -138 -112 -250 -250 -250s-250 112 -250 250z" />
    <glyph glyph-name="u2B70" unicode="&#x2b70;" horiz-adv-x="528" 
d="M0 146v234c0 17 13 20 30 20s30 -3 30 -20v-234c0 -17 -13 -20 -30 -20s-30 3 -30 20zM120 263c0 6 2 9 5 12l125 125v-117h258c10 0 20 -4 20 -20s-10 -20 -20 -20h-258v-117l-125 125c-3 3 -5 6 -5 12z" />
    <glyph glyph-name="u2B71" unicode="&#x2b71;" horiz-adv-x="274" 
d="M0 498c0 17 3 30 20 30h234c17 0 20 -13 20 -30s-3 -30 -20 -30h-234c-17 0 -20 13 -20 30zM0 278l125 125c3 3 6 5 12 5s9 -2 12 -5l125 -125h-117v-258c0 -10 -4 -20 -20 -20s-20 10 -20 20v258h-117z" />
    <glyph glyph-name="u2B72" unicode="&#x2b72;" horiz-adv-x="528" 
d="M468 146v234c0 17 13 20 30 20s30 -3 30 -20v-234c0 -17 -13 -20 -30 -20s-30 3 -30 20zM0 263c0 16 10 20 20 20h258v117l125 -125c3 -3 5 -6 5 -12s-2 -9 -5 -12l-125 -125v117h-258c-10 0 -20 4 -20 20z" />
    <glyph glyph-name="u2B73" unicode="&#x2b73;" horiz-adv-x="274" 
d="M0 30c0 17 3 30 20 30h234c17 0 20 -13 20 -30s-3 -30 -20 -30h-234c-17 0 -20 13 -20 30zM0 250h117v258c0 10 4 20 20 20s20 -10 20 -20v-258h117l-125 -125c-3 -3 -6 -5 -12 -5s-9 2 -12 5z" />
    <glyph glyph-name="u2B76" unicode="&#x2b76;" horiz-adv-x="383" 
d="M0 498c0 17 3 30 20 30h249c17 0 20 -13 20 -30s-3 -30 -20 -30h-249c-17 0 -20 13 -20 30zM48 213v178c0 4 1 8 5 12s8 5 12 5h176l-83 -83l217 -217c4 -4 8 -9 8 -16c0 -11 -9 -20 -20 -20c-7 0 -12 4 -16 8l-216 216z" />
    <glyph glyph-name="u2B77" unicode="&#x2b77;" horiz-adv-x="383" 
d="M94 498c0 17 3 30 20 30h249c17 0 20 -13 20 -30s-3 -30 -20 -30h-249c-17 0 -20 13 -20 30zM0 92c0 7 4 12 8 16l217 217l-83 83h176c4 0 8 -1 12 -5s5 -8 5 -12v-178l-83 83l-216 -216c-4 -4 -9 -8 -16 -8c-11 0 -20 9 -20 20z" />
    <glyph glyph-name="u2B78" unicode="&#x2b78;" horiz-adv-x="383" 
d="M94 30c0 17 3 30 20 30h249c17 0 20 -13 20 -30s-3 -30 -20 -30h-249c-17 0 -20 13 -20 30zM0 436c0 11 9 20 20 20c7 0 12 -4 16 -8l216 -216l83 83v-178c0 -4 -1 -8 -5 -12s-8 -5 -12 -5h-176l83 83l-217 217c-4 4 -8 9 -8 16z" />
    <glyph glyph-name="u2B79" unicode="&#x2b79;" horiz-adv-x="383" 
d="M0 30c0 17 3 30 20 30h249c17 0 20 -13 20 -30s-3 -30 -20 -30h-249c-17 0 -20 13 -20 30zM48 137v178l83 -83l216 216c4 4 9 8 16 8c11 0 20 -9 20 -20c0 -7 -4 -12 -8 -16l-217 -217l83 -83h-176c-4 0 -8 1 -12 5s-5 8 -5 12z" />
    <glyph glyph-name="u2B7E" unicode="&#x2b7e;" horiz-adv-x="528" 
d="M468 50v210c0 17 13 20 30 20s30 -3 30 -20v-210c0 -17 -13 -20 -30 -20s-30 3 -30 20zM0 155c0 16 10 20 20 20h290v105l113 -113c3 -3 5 -6 5 -12s-2 -9 -5 -12l-113 -113v105h-290c-10 0 -20 4 -20 20zM0 266v210c0 17 13 20 30 20s30 -3 30 -20v-210
c0 -17 -13 -20 -30 -20s-30 3 -30 20zM100 371c0 6 2 9 5 12l113 113v-105h290c10 0 20 -4 20 -20s-10 -20 -20 -20h-290v-105l-113 113c-3 3 -5 6 -5 12z" />
    <glyph glyph-name="u2B7F" unicode="&#x2b7f;" horiz-adv-x="466" 
d="M216 498c0 17 3 30 20 30h210c17 0 20 -13 20 -30s-3 -30 -20 -30h-210c-17 0 -20 13 -20 30zM216 310l113 113c3 3 6 5 12 5s9 -2 12 -5l113 -113h-105v-290c0 -10 -4 -20 -20 -20s-20 10 -20 20v290h-105zM0 30c0 17 3 30 20 30h210c17 0 20 -13 20 -30s-3 -30 -20 -30
h-210c-17 0 -20 13 -20 30zM0 218h105v290c0 10 4 20 20 20s20 -10 20 -20v-290h105l-113 -113c-3 -3 -6 -5 -12 -5s-9 2 -12 5z" />
    <glyph glyph-name="u2B80" unicode="&#x2b80;" horiz-adv-x="528" 
d="M0 155c0 16 10 20 20 20h390v105l113 -113c3 -3 5 -6 5 -12s-2 -9 -5 -12l-113 -113v105h-390c-10 0 -20 4 -20 20zM0 371c0 6 2 9 5 12l113 113v-105h390c10 0 20 -4 20 -20s-10 -20 -20 -20h-390v-105l-113 113c-3 3 -5 6 -5 12z" />
    <glyph glyph-name="u2B81" unicode="&#x2b81;" horiz-adv-x="466" 
d="M216 118h105v390c0 10 4 20 20 20s20 -10 20 -20v-390h105l-113 -113c-3 -3 -6 -5 -12 -5s-9 2 -12 5zM0 410l113 113c3 3 6 5 12 5s9 -2 12 -5l113 -113h-105v-390c0 -10 -4 -20 -20 -20s-20 10 -20 20v390h-105z" />
    <glyph glyph-name="u2B82" unicode="&#x2b82;" horiz-adv-x="528" 
d="M0 155c0 6 2 9 5 12l113 113v-105h390c10 0 20 -4 20 -20s-10 -20 -20 -20h-390v-105l-113 113c-3 3 -5 6 -5 12zM0 371c0 16 10 20 20 20h390v105l113 -113c3 -3 5 -6 5 -12s-2 -9 -5 -12l-113 -113v105h-390c-10 0 -20 4 -20 20z" />
    <glyph glyph-name="u2B83" unicode="&#x2b83;" horiz-adv-x="466" 
d="M216 410l113 113c3 3 6 5 12 5s9 -2 12 -5l113 -113h-105v-390c0 -10 -4 -20 -20 -20s-20 10 -20 20v390h-105zM0 118h105v390c0 10 4 20 20 20s20 -10 20 -20v-390h105l-113 -113c-3 -3 -6 -5 -12 -5s-9 2 -12 5z" />
    <glyph glyph-name="u2B84" unicode="&#x2b84;" horiz-adv-x="528" 
d="M0 155c0 6 2 9 5 12l96 96l-96 96c-3 3 -5 6 -5 12s2 9 5 12l113 113v-105h390c10 0 20 -4 20 -20s-10 -20 -20 -20h-390v-176h390c10 0 20 -4 20 -20s-10 -20 -20 -20h-390v-105l-113 113c-3 3 -5 6 -5 12z" />
    <glyph glyph-name="u2B85" unicode="&#x2b85;" horiz-adv-x="466" 
d="M0 410l113 113c3 3 6 5 12 5s9 -2 12 -5l96 -96l96 96c3 3 6 5 12 5s9 -2 12 -5l113 -113h-105v-390c0 -10 -4 -20 -20 -20s-20 10 -20 20v390h-176v-390c0 -10 -4 -20 -20 -20s-20 10 -20 20v390h-105z" />
    <glyph glyph-name="u2B86" unicode="&#x2b86;" horiz-adv-x="528" 
d="M0 155c0 16 10 20 20 20h390v176h-390c-10 0 -20 4 -20 20s10 20 20 20h390v105l113 -113c3 -3 5 -6 5 -12s-2 -9 -5 -12l-96 -96l96 -96c3 -3 5 -6 5 -12s-2 -9 -5 -12l-113 -113v105h-390c-10 0 -20 4 -20 20z" />
    <glyph glyph-name="u2B87" unicode="&#x2b87;" horiz-adv-x="466" 
d="M0 118h105v390c0 10 4 20 20 20s20 -10 20 -20v-390h176v390c0 10 4 20 20 20s20 -10 20 -20v-390h105l-113 -113c-3 -3 -6 -5 -12 -5s-9 2 -12 5l-96 96l-96 -96c-3 -3 -6 -5 -12 -5s-9 2 -12 5z" />
    <glyph glyph-name="u2B94" unicode="&#x2b94;" horiz-adv-x="680" 
d="M80 240c0 14 16 18 40 18s40 -4 40 -18c0 -44 18 -80 88 -80v80l105 -105c4 -4 9 -9 9 -15s-5 -11 -9 -15l-105 -105v80c-112 0 -168 72 -168 160zM422 120c0 24 4 40 18 40c62 0 80 36 80 80h-80l105 105c4 4 9 9 15 9s11 -5 15 -9l105 -105h-80
c0 -88 -56 -160 -160 -160c-14 0 -18 16 -18 40zM318 542c0 6 5 11 9 15l105 105v-80c112 0 168 -72 168 -160c0 -14 -16 -18 -40 -18s-40 4 -40 18c0 44 -18 80 -88 80v-80l-105 105c-4 4 -9 9 -9 15zM0 422h80c0 88 56 160 160 160c14 0 18 -16 18 -40s-4 -40 -18 -40
c-62 0 -80 -36 -80 -80h80l-105 -105c-4 -4 -9 -9 -15 -9s-11 5 -15 9z" />
    <glyph glyph-name="u2B95" unicode="&#x2b95;" horiz-adv-x="528" 
d="M0 263c0 60 16 100 40 100h278v117l205 -205c3 -3 5 -6 5 -12s-2 -9 -5 -12l-205 -205v117h-278c-24 0 -40 40 -40 100z" />
    <glyph glyph-name="u2B98" unicode="&#x2b98;" horiz-adv-x="340" 
d="M60 196h170c0 22 73 124 73 144c-37 -30 -198 -125 -240 -138c-2 -1 -3 -3 -3 -6zM0 196c0 5 3 8 6 9c65 20 259 134 316 184c1 1 3 3 7 3c5 0 11 -8 11 -23c0 -52 -80 -159 -80 -173s80 -121 80 -173c0 -15 -6 -23 -11 -23c-4 0 -6 2 -7 3c-57 50 -251 164 -316 184
c-3 1 -6 4 -6 9z" />
    <glyph glyph-name="u2B99" unicode="&#x2b99;" horiz-adv-x="392" 
d="M196 110c22 0 124 -73 144 -73c-30 37 -125 198 -138 240c-1 2 -3 3 -6 3v-170zM0 11c0 4 2 6 3 7c50 57 164 251 184 316c1 3 4 6 9 6s8 -3 9 -6c20 -65 134 -259 184 -316c1 -1 3 -3 3 -7c0 -5 -8 -11 -23 -11c-52 0 -159 80 -173 80s-121 -80 -173 -80
c-15 0 -23 6 -23 11z" />
    <glyph glyph-name="u2B9A" unicode="&#x2b9a;" horiz-adv-x="340" 
d="M110 196h170c0 3 -1 5 -3 6c-42 13 -203 108 -240 138c0 -20 73 -122 73 -144zM0 23c0 52 80 159 80 173s-80 121 -80 173c0 15 6 23 11 23c4 0 6 -2 7 -3c57 -50 251 -164 316 -184c3 -1 6 -4 6 -9s-3 -8 -6 -9c-65 -20 -259 -134 -316 -184c-1 -1 -3 -3 -7 -3
c-5 0 -11 8 -11 23z" />
    <glyph glyph-name="u2B9B" unicode="&#x2b9b;" horiz-adv-x="392" 
d="M52 303c30 -37 125 -198 138 -240c1 -2 3 -3 6 -3v170c-22 0 -124 73 -144 73zM0 329c0 5 8 11 23 11c52 0 159 -80 173 -80s121 80 173 80c15 0 23 -6 23 -11c0 -4 -2 -6 -3 -7c-50 -57 -164 -251 -184 -316c-1 -3 -4 -6 -9 -6s-8 3 -9 6c-20 65 -134 259 -184 316
c-1 1 -3 3 -3 7z" />
    <glyph glyph-name="u2B9C" unicode="&#x2b9c;" horiz-adv-x="340" 
d="M0 196c0 5 3 8 6 9c65 20 259 134 316 184c1 1 3 3 7 3c5 0 11 -8 11 -23c0 -52 -80 -159 -80 -173s80 -121 80 -173c0 -15 -6 -23 -11 -23c-4 0 -6 2 -7 3c-57 50 -251 164 -316 184c-3 1 -6 4 -6 9z" />
    <glyph glyph-name="u2B9D" unicode="&#x2b9d;" horiz-adv-x="392" 
d="M0 11c0 4 2 6 3 7c50 57 164 251 184 316c1 3 4 6 9 6s8 -3 9 -6c20 -65 134 -259 184 -316c1 -1 3 -3 3 -7c0 -5 -8 -11 -23 -11c-52 0 -159 80 -173 80s-121 -80 -173 -80c-15 0 -23 6 -23 11z" />
    <glyph glyph-name="u2B9E" unicode="&#x2b9e;" horiz-adv-x="340" 
d="M0 23c0 52 80 159 80 173s-80 121 -80 173c0 15 6 23 11 23c4 0 6 -2 7 -3c57 -50 251 -164 316 -184c3 -1 6 -4 6 -9s-3 -8 -6 -9c-65 -20 -259 -134 -316 -184c-1 -1 -3 -3 -7 -3c-5 0 -11 8 -11 23z" />
    <glyph glyph-name="u2B9F" unicode="&#x2b9f;" horiz-adv-x="392" 
d="M0 329c0 5 8 11 23 11c52 0 159 -80 173 -80s121 80 173 80c15 0 23 -6 23 -11c0 -4 -2 -6 -3 -7c-50 -57 -164 -251 -184 -316c-1 -3 -4 -6 -9 -6s-8 3 -9 6c-20 65 -134 259 -184 316c-1 1 -3 3 -3 7z" />
    <glyph glyph-name="u2BA0" unicode="&#x2ba0;" horiz-adv-x="528" 
d="M0 263c0 6 2 9 5 12l125 125v-117h358v223c0 10 4 20 20 20s20 -10 20 -20v-243c0 -16 -10 -20 -20 -20h-378v-117l-125 125c-3 3 -5 6 -5 12z" />
    <glyph glyph-name="u2BA1" unicode="&#x2ba1;" horiz-adv-x="528" 
d="M0 263v243c0 10 4 20 20 20s20 -10 20 -20v-223h358v117l125 -125c3 -3 5 -6 5 -12s-2 -9 -5 -12l-125 -125v117h-378c-10 0 -20 4 -20 20z" />
    <glyph glyph-name="u2BA2" unicode="&#x2ba2;" horiz-adv-x="528" 
d="M0 263c0 6 2 9 5 12l125 125v-117h378c10 0 20 -4 20 -20v-243c0 -10 -4 -20 -20 -20s-20 10 -20 20v223h-358v-117l-125 125c-3 3 -5 6 -5 12z" />
    <glyph glyph-name="u2BA3" unicode="&#x2ba3;" horiz-adv-x="528" 
d="M0 20v243c0 16 10 20 20 20h378v117l125 -125c3 -3 5 -6 5 -12s-2 -9 -5 -12l-125 -125v117h-358v-223c0 -10 -4 -20 -20 -20s-20 10 -20 20z" />
    <glyph glyph-name="u2BA4" unicode="&#x2ba4;" horiz-adv-x="400" 
d="M0 398l125 125c3 3 6 5 12 5s9 -2 12 -5l125 -125h-117v-358h223c10 0 20 -4 20 -20s-10 -20 -20 -20h-243c-16 0 -20 10 -20 20v378h-117z" />
    <glyph glyph-name="u2BA5" unicode="&#x2ba5;" horiz-adv-x="400" 
d="M0 20c0 16 10 20 20 20h223v358h-117l125 125c3 3 6 5 12 5s9 -2 12 -5l125 -125h-117v-378c0 -10 -4 -20 -20 -20h-243c-10 0 -20 4 -20 20z" />
    <glyph glyph-name="u2BA6" unicode="&#x2ba6;" horiz-adv-x="400" 
d="M0 130h117v378c0 10 4 20 20 20h243c10 0 20 -4 20 -20s-10 -20 -20 -20h-223v-358h117l-125 -125c-3 -3 -6 -5 -12 -5s-9 2 -12 5z" />
    <glyph glyph-name="u2BA7" unicode="&#x2ba7;" horiz-adv-x="400" 
d="M0 508c0 16 10 20 20 20h243c16 0 20 -10 20 -20v-378h117l-125 -125c-3 -3 -6 -5 -12 -5s-9 2 -12 5l-125 125h117v358h-223c-10 0 -20 4 -20 20z" />
    <glyph glyph-name="u2BC5" unicode="&#x2bc5;" horiz-adv-x="520" 
d="M35 133l225 390l225 -390h-450z" />
    <glyph glyph-name="u2BC6" unicode="&#x2bc6;" horiz-adv-x="520" 
d="M35 394h450l-225 -390z" />
    <glyph glyph-name="u2BC7" unicode="&#x2bc7;" horiz-adv-x="519" 
d="M0 263l390 225v-450z" />
    <glyph glyph-name="u2BC8" unicode="&#x2bc8;" horiz-adv-x="519" 
d="M129 38v450l390 -225z" />
    <glyph glyph-name="u2BCA" unicode="&#x2bca;" horiz-adv-x="600" 
d="M0 300c0 166 134 300 300 300s300 -134 300 -300h-600z" />
    <glyph glyph-name="u2BCB" unicode="&#x2bcb;" horiz-adv-x="600" 
d="M0 300h600c0 -166 -134 -300 -300 -300s-300 134 -300 300z" />
    <glyph glyph-name="u2BCC" unicode="&#x2bcc;" 
d="M0 250c0 8 3 10 10 10c135 0 230 95 230 230c0 7 2 10 10 10s10 -3 10 -10c0 -135 95 -230 230 -230c7 0 10 -2 10 -10s-3 -10 -10 -10c-135 0 -230 -95 -230 -230c0 -7 -2 -10 -10 -10s-10 3 -10 10c0 135 -95 230 -230 230c-7 0 -10 2 -10 10z" />
    <glyph glyph-name="u2BCD" unicode="&#x2bcd;" horiz-adv-x="362" 
d="M0 80c0 2 1 4 4 7c46 46 74 108 74 163s-28 117 -74 163c-3 3 -4 5 -4 7c0 4 7 11 11 11c2 0 4 -1 7 -4c46 -46 108 -74 163 -74s117 28 163 74c3 3 5 4 7 4c4 0 11 -7 11 -11c0 -2 -1 -4 -4 -7c-46 -46 -74 -108 -74 -163s28 -117 74 -163c3 -3 4 -5 4 -7
c0 -4 -7 -11 -11 -11c-2 0 -4 1 -7 4c-46 46 -108 74 -163 74s-117 -28 -163 -74c-3 -3 -5 -4 -7 -4c-4 0 -11 7 -11 11z" />
    <glyph glyph-name="u2BCE" unicode="&#x2bce;" 
d="M95 250c78 -20 134 -78 155 -155c21 78 77 135 155 155c-78 19 -135 77 -155 155c-21 -78 -77 -135 -155 -155zM0 250c0 8 3 10 10 10c135 0 230 95 230 230c0 7 2 10 10 10s10 -3 10 -10c0 -135 95 -230 230 -230c7 0 10 -2 10 -10s-3 -10 -10 -10
c-135 0 -230 -95 -230 -230c0 -7 -2 -10 -10 -10s-10 3 -10 10c0 135 -95 230 -230 230c-7 0 -10 2 -10 10z" />
    <glyph glyph-name="u2BCF" unicode="&#x2bcf;" horiz-adv-x="362" 
d="M71 140c34 20 72 30 110 30s75 -10 110 -30c-20 35 -30 72 -30 110s10 76 30 110c-34 -21 -72 -30 -110 -30s-75 9 -110 30c20 -35 30 -72 30 -110s-10 -76 -30 -110zM0 80c0 2 1 4 4 7c46 46 74 108 74 163s-28 117 -74 163c-3 3 -4 5 -4 7c0 4 7 11 11 11
c2 0 4 -1 7 -4c46 -46 108 -74 163 -74s117 28 163 74c3 3 5 4 7 4c4 0 11 -7 11 -11c0 -2 -1 -4 -4 -7c-46 -46 -74 -108 -74 -163s28 -117 74 -163c3 -3 4 -5 4 -7c0 -4 -7 -11 -11 -11c-2 0 -4 1 -7 4c-46 46 -108 74 -163 74s-117 -28 -163 -74c-3 -3 -5 -4 -7 -4
c-4 0 -11 7 -11 11z" />
    <glyph glyph-name="u2BD0" unicode="&#x2bd0;" horiz-adv-x="470" 
d="M0 305c0 8 2 14 10 14h75v96c0 22 18 40 40 40h96v75c0 8 6 10 14 10s14 -2 14 -10v-75h96c22 0 40 -18 40 -40v-96h75c8 0 10 -6 10 -14s-2 -14 -10 -14h-75v-95c0 -23 -18 -41 -40 -41h-96v-75c0 -8 -6 -10 -14 -10s-14 2 -14 10v75h-96c-22 0 -40 18 -40 40v96h-75
c-8 0 -10 6 -10 14zM264 305c0 8 10 14 20 14h65v100h-100v-65c0 -10 -6 -20 -14 -20s-14 10 -14 20v65h-100v-100h65c10 0 20 -6 20 -14s-10 -14 -20 -14h-65v-100h100v65c0 10 6 20 14 20s14 -10 14 -20v-65h100v100h-65c-10 0 -20 6 -20 14z" />
    <glyph glyph-name="u2BD1" unicode="&#x2bd1;" horiz-adv-x="540" 
d="M247 179c0 16 7 23 23 23s23 -7 23 -23s-7 -23 -23 -23s-23 7 -23 23zM51 300c0 -6 2 -10 6 -14l199 -199c4 -4 8 -6 14 -6c5 0 10 2 14 6l199 199c4 4 6 8 6 14c0 5 -2 10 -6 14l-199 199c-4 4 -9 6 -14 6c-6 0 -10 -2 -14 -6l-199 -199c-4 -4 -6 -9 -6 -14zM0 300
c0 5 2 10 6 14l250 250c4 4 8 6 14 6c5 0 10 -2 14 -6l250 -250c4 -4 6 -9 6 -14c0 -6 -2 -10 -6 -14l-250 -250c-4 -4 -9 -6 -14 -6c-6 0 -10 2 -14 6l-250 250c-4 4 -6 8 -6 14zM198 357c0 33 24 68 72 68c50 0 78 -34 78 -74c0 -35 -26 -52 -38 -68s-17 -31 -17 -39
c0 -12 -9 -18 -23 -18s-23 6 -23 18c0 27 12 46 24 62s31 25 31 45c0 14 -7 28 -32 28s-29 -15 -32 -24s-13 -13 -22 -13s-18 6 -18 15z" />
    <glyph glyph-name="u2BEC" unicode="&#x2bec;" horiz-adv-x="528" 
d="M0 263c0 6 2 9 5 12l125 125v-117h30l117 117v-117h231c10 0 20 -4 20 -20s-10 -20 -20 -20h-231v-117l-117 117h-30v-117l-125 125c-3 3 -5 6 -5 12z" />
    <glyph glyph-name="u2BED" unicode="&#x2bed;" horiz-adv-x="274" 
d="M0 251l117 117v30h-117l125 125c3 3 6 5 12 5s9 -2 12 -5l125 -125h-117v-30l117 -117h-117v-231c0 -10 -4 -20 -20 -20s-20 10 -20 20v231h-117z" />
    <glyph glyph-name="u2BEE" unicode="&#x2bee;" horiz-adv-x="528" 
d="M0 263c0 16 10 20 20 20h231v117l117 -117h30v117l125 -125c3 -3 5 -6 5 -12s-2 -9 -5 -12l-125 -125v117h-30l-117 -117v117h-231c-10 0 -20 4 -20 20z" />
    <glyph glyph-name="u2BEF" unicode="&#x2bef;" horiz-adv-x="274" 
d="M0 130h117v30l-117 117h117v231c0 10 4 20 20 20s20 -10 20 -20v-231h117l-117 -117v-30h117l-125 -125c-3 -3 -6 -5 -12 -5s-9 2 -12 5z" />
    <glyph glyph-name="uE000" unicode="&#xe000;" horiz-adv-x="140" 
d="M0 500c20 20 57 56 57 116c0 90 -25 136 -25 236c0 80 71 145 77 151c3 3 6 5 9 5c4 0 8 -4 8 -8c0 -3 -2 -6 -5 -9c-6 -6 -44 -45 -44 -101c0 -90 25 -134 25 -234c0 -94 -62 -138 -80 -156c18 -18 80 -62 80 -156c0 -100 -25 -144 -25 -234c0 -56 38 -95 44 -101
c3 -3 5 -6 5 -9c0 -4 -4 -8 -8 -8c-3 0 -6 2 -9 5c-6 6 -77 71 -77 151c0 100 25 146 25 236c0 60 -37 96 -57 116z" />
    <glyph glyph-name="uE001" unicode="&#xe001;" horiz-adv-x="140" 
d="M14 0c0 3 2 6 5 9c6 6 44 45 44 101c0 90 -25 134 -25 234c0 94 62 138 80 156c-18 18 -80 62 -80 156c0 100 25 144 25 234c0 56 -38 95 -44 101c-3 3 -5 6 -5 9c0 4 4 8 8 8c3 0 6 -2 9 -5c6 -6 77 -71 77 -151c0 -100 -25 -146 -25 -236c0 -60 37 -96 57 -116
c-20 -20 -57 -56 -57 -116c0 -90 25 -136 25 -236c0 -80 -71 -145 -77 -151c-3 -3 -6 -5 -9 -5c-4 0 -8 4 -8 8z" />
    <glyph glyph-name="uE002" unicode="&#xe002;" horiz-adv-x="300" 
d="M0 1104c0 11 12 23 23 23h52c158 0 265 126 358 260c3 4 7 13 17 13c9 0 16 -8 16 -16c0 -6 -5 -12 -7 -15c-99 -144 -213 -354 -384 -354v-1030c171 0 285 -210 384 -354c2 -3 7 -9 7 -15c0 -8 -7 -16 -16 -16c-10 0 -14 9 -17 13c-93 134 -200 260 -358 260h-52
c-11 0 -23 12 -23 23v1208z" />
    <glyph glyph-name="uE003" unicode="&#xe003;" horiz-adv-x="466" 
d="M0 0v89c0 11 12 23 23 23h52c158 0 265 126 358 260c3 4 7 13 17 13c9 0 16 -8 16 -16c0 -6 -5 -12 -7 -15c-99 -144 -213 -354 -384 -354h-75z" />
    <glyph glyph-name="uE004" unicode="&#xe004;" horiz-adv-x="466" 
d="M0 0h75c171 0 285 -210 384 -354c2 -3 7 -9 7 -15c0 -8 -7 -16 -16 -16c-10 0 -14 9 -17 13c-93 134 -200 260 -358 260h-52c-11 0 -23 12 -23 23v89z" />
    <glyph glyph-name="uE005" unicode="&#xe005;" horiz-adv-x="466" 
d="M0 369c0 8 7 16 16 16c10 0 14 -9 17 -13c93 -134 200 -260 358 -260h52c11 0 23 -12 23 -23v-89h-75c-171 0 -285 210 -384 354c-2 3 -7 9 -7 15z" />
    <glyph glyph-name="uE006" unicode="&#xe006;" horiz-adv-x="466" 
d="M0 -369c0 6 5 12 7 15c99 144 213 354 384 354h75v-89c0 -11 -12 -23 -23 -23h-52c-158 0 -265 -126 -358 -260c-3 -4 -7 -13 -17 -13c-9 0 -16 8 -16 16z" />
    <glyph glyph-name="uE007" unicode="&#xe007;" horiz-adv-x="907" 
d="M907 629v-211c0 -12 -8 -15 -21 -21l-861 -430c-3 -1 -5 -2 -8 -2c-9 0 -17 8 -17 17v211c0 12 8 14 21 21l861 430c3 1 5 2 8 2c9 0 17 -8 17 -17zM907 934v-211c0 -12 -8 -15 -21 -21l-861 -430c-3 -1 -5 -2 -8 -2c-9 0 -17 8 -17 17v211c0 12 8 14 21 21l861 430
c3 1 5 2 8 2c9 0 17 -8 17 -17z" />
    <glyph glyph-name="uE008" unicode="&#xe008;" horiz-adv-x="1563" 
d="M1563 691v-211c0 -12 -7 -17 -21 -21l-1517 -493c-3 -1 -5 -1 -8 -1c-9 0 -17 8 -17 17v211c0 12 7 16 21 21l1517 493c3 1 5 1 8 1c9 0 17 -8 17 -17zM1563 996v-211c0 -12 -7 -17 -21 -21l-1517 -493c-3 -1 -5 -1 -8 -1c-9 0 -17 8 -17 17v211c0 12 7 16 21 21
l1517 493c3 1 5 1 8 1c9 0 17 -8 17 -17z" />
    <glyph glyph-name="uE009" unicode="&#xe009;" horiz-adv-x="2319" 
d="M2319 690v-211c0 -12 -7 -18 -21 -21l-2273 -492c-3 -1 -5 -1 -8 -1c-9 0 -17 8 -17 17v211c0 12 7 18 21 21l2273 492c3 1 5 1 8 1c9 0 17 -8 17 -17zM2319 995v-211c0 -12 -7 -18 -21 -21l-2273 -492c-3 -1 -5 -1 -8 -1c-9 0 -17 8 -17 17v211c0 12 7 18 21 21
l2273 492c3 1 5 1 8 1c9 0 17 -8 17 -17z" />
    <glyph glyph-name="uE00A" unicode="&#xe00a;" horiz-adv-x="304" 
d="M151 393v-70c0 -4 -3 -5 -7 -7l-288 -143c-1 0 -2 -1 -3 -1c-3 0 -6 2 -6 5v71c0 4 3 5 7 7l288 143c1 0 2 1 3 1c3 0 6 -3 6 -6zM151 495v-71c0 -4 -3 -5 -7 -7l-288 -143c-1 0 -2 -1 -3 -1c-3 0 -6 3 -6 6v70c0 4 3 5 7 7l288 143c1 0 2 1 3 1c3 0 6 -2 6 -5z" />
    <glyph glyph-name="uE00B" unicode="&#xe00b;" horiz-adv-x="520" 
d="M301 37c-4 0 -6 4 -6 8c0 7 3 15 7 19c22 22 56 27 70 41c1 1 1 2 1 3c0 10 -19 30 -27 38l-338 338c-4 4 -8 9 -8 16c0 11 9 20 20 20c7 0 12 -4 16 -8l338 -338c8 -8 28 -27 38 -27c1 0 2 0 3 1c14 14 17 45 39 67c4 4 15 8 22 8c4 0 6 -1 6 -5c5 -76 20 -124 36 -196
c0 0 2 -9 2 -12c0 -5 -5 -10 -10 -10c-3 0 -12 2 -12 2c-72 16 -121 30 -197 35z" />
    <glyph glyph-name="uE00C" unicode="&#xe00c;" horiz-adv-x="520" 
d="M301 963c76 5 125 19 197 35c0 0 9 2 12 2c5 0 10 -5 10 -10c0 -3 -2 -12 -2 -12c-16 -72 -31 -120 -36 -196c0 -4 -2 -5 -6 -5c-7 0 -18 4 -22 8c-22 22 -25 53 -39 67c-1 1 -2 1 -3 1c-10 0 -30 -19 -38 -27l-338 -338c-4 -4 -9 -8 -16 -8c-11 0 -20 9 -20 20
c0 7 4 12 8 16l338 338c8 8 27 28 27 38c0 1 0 2 -1 3c-14 14 -48 19 -70 41c-4 4 -7 12 -7 19c0 4 2 8 6 8z" />
    <glyph glyph-name="uE00D" unicode="&#xe00d;" horiz-adv-x="520" 
d="M8 484c-5 5 -8 10 -8 16s3 11 8 16l338 338c8 8 27 28 27 38c0 1 0 2 -1 3c-14 14 -48 19 -70 41c-4 4 -7 12 -7 19c0 4 2 8 6 8c76 5 125 19 197 35c0 0 9 2 12 2c5 0 10 -5 10 -10c0 -3 -2 -12 -2 -12c-16 -72 -31 -120 -36 -196c0 -4 -2 -5 -6 -5c-7 0 -18 4 -22 8
c-22 22 -25 53 -39 67c-1 1 -2 1 -3 1c-10 0 -30 -19 -38 -27l-326 -326l326 -326c8 -8 28 -27 38 -27c1 0 2 0 3 1c14 14 17 45 39 67c4 4 15 8 22 8c4 0 6 -1 6 -5c5 -76 20 -124 36 -196c0 0 2 -9 2 -12c0 -5 -5 -10 -10 -10c-3 0 -12 2 -12 2c-72 16 -121 30 -197 35
c-4 0 -6 4 -6 8c0 7 3 15 7 19c22 22 56 27 70 41c1 1 1 2 1 3c0 10 -19 30 -27 38z" />
    <glyph glyph-name="uE010" unicode="&#xe010;" 
d="M500 486h-500c-8 0 -14 6 -14 14s6 14 14 14h500c8 0 14 -6 14 -14s-6 -14 -14 -14z" />
    <glyph glyph-name="uE011" unicode="&#xe011;" 
d="M500 611h-500c-8 0 -14 6 -14 14s6 14 14 14h500c8 0 14 -6 14 -14s-6 -14 -14 -14zM500 361h-500c-8 0 -14 6 -14 14s6 14 14 14h500c8 0 14 -6 14 -14s-6 -14 -14 -14z" />
    <glyph glyph-name="uE012" unicode="&#xe012;" 
d="M500 736h-500c-8 0 -14 6 -14 14s6 14 14 14h500c8 0 14 -6 14 -14s-6 -14 -14 -14zM500 486h-500c-8 0 -14 6 -14 14s6 14 14 14h500c8 0 14 -6 14 -14s-6 -14 -14 -14zM500 236h-500c-8 0 -14 6 -14 14s6 14 14 14h500c8 0 14 -6 14 -14s-6 -14 -14 -14z" />
    <glyph glyph-name="uE013" unicode="&#xe013;" 
d="M500 861h-500c-8 0 -14 6 -14 14s6 14 14 14h500c8 0 14 -6 14 -14s-6 -14 -14 -14zM500 611h-500c-8 0 -14 6 -14 14s6 14 14 14h500c8 0 14 -6 14 -14s-6 -14 -14 -14zM500 361h-500c-8 0 -14 6 -14 14s6 14 14 14h500c8 0 14 -6 14 -14s-6 -14 -14 -14zM500 111h-500
c-8 0 -14 6 -14 14s6 14 14 14h500c8 0 14 -6 14 -14s-6 -14 -14 -14z" />
    <glyph glyph-name="uE014" unicode="&#xe014;" 
d="M500 -14h-500c-8 0 -14 6 -14 14s6 14 14 14h500c8 0 14 -6 14 -14s-6 -14 -14 -14zM500 986h-500c-8 0 -14 6 -14 14s6 14 14 14h500c8 0 14 -6 14 -14s-6 -14 -14 -14zM500 736h-500c-8 0 -14 6 -14 14s6 14 14 14h500c8 0 14 -6 14 -14s-6 -14 -14 -14zM500 486h-500
c-8 0 -14 6 -14 14s6 14 14 14h500c8 0 14 -6 14 -14s-6 -14 -14 -14zM500 236h-500c-8 0 -14 6 -14 14s6 14 14 14h500c8 0 14 -6 14 -14s-6 -14 -14 -14z" />
    <glyph glyph-name="uE015" unicode="&#xe015;" 
d="M500 1111h-500c-8 0 -14 6 -14 14s6 14 14 14h500c8 0 14 -6 14 -14s-6 -14 -14 -14zM500 -139h-500c-8 0 -14 6 -14 14s6 14 14 14h500c8 0 14 -6 14 -14s-6 -14 -14 -14zM500 861h-500c-8 0 -14 6 -14 14s6 14 14 14h500c8 0 14 -6 14 -14s-6 -14 -14 -14zM500 611
h-500c-8 0 -14 6 -14 14s6 14 14 14h500c8 0 14 -6 14 -14s-6 -14 -14 -14zM500 361h-500c-8 0 -14 6 -14 14s6 14 14 14h500c8 0 14 -6 14 -14s-6 -14 -14 -14zM500 111h-500c-8 0 -14 6 -14 14s6 14 14 14h500c8 0 14 -6 14 -14s-6 -14 -14 -14z" />
    <glyph glyph-name="uE016" unicode="&#xe016;" horiz-adv-x="750" 
d="M750 486h-750c-8 0 -14 6 -14 14s6 14 14 14h750c8 0 14 -6 14 -14s-6 -14 -14 -14z" />
    <glyph glyph-name="uE017" unicode="&#xe017;" horiz-adv-x="750" 
d="M750 611h-750c-8 0 -14 6 -14 14s6 14 14 14h750c8 0 14 -6 14 -14s-6 -14 -14 -14zM750 361h-750c-8 0 -14 6 -14 14s6 14 14 14h750c8 0 14 -6 14 -14s-6 -14 -14 -14z" />
    <glyph glyph-name="uE018" unicode="&#xe018;" horiz-adv-x="750" 
d="M750 736h-750c-8 0 -14 6 -14 14s6 14 14 14h750c8 0 14 -6 14 -14s-6 -14 -14 -14zM750 486h-750c-8 0 -14 6 -14 14s6 14 14 14h750c8 0 14 -6 14 -14s-6 -14 -14 -14zM750 236h-750c-8 0 -14 6 -14 14s6 14 14 14h750c8 0 14 -6 14 -14s-6 -14 -14 -14z" />
    <glyph glyph-name="uE019" unicode="&#xe019;" horiz-adv-x="750" 
d="M750 861h-750c-8 0 -14 6 -14 14s6 14 14 14h750c8 0 14 -6 14 -14s-6 -14 -14 -14zM750 611h-750c-8 0 -14 6 -14 14s6 14 14 14h750c8 0 14 -6 14 -14s-6 -14 -14 -14zM750 361h-750c-8 0 -14 6 -14 14s6 14 14 14h750c8 0 14 -6 14 -14s-6 -14 -14 -14zM750 111h-750
c-8 0 -14 6 -14 14s6 14 14 14h750c8 0 14 -6 14 -14s-6 -14 -14 -14z" />
    <glyph glyph-name="uE01A" unicode="&#xe01a;" horiz-adv-x="750" 
d="M750 -14h-750c-8 0 -14 6 -14 14s6 14 14 14h750c8 0 14 -6 14 -14s-6 -14 -14 -14zM750 986h-750c-8 0 -14 6 -14 14s6 14 14 14h750c8 0 14 -6 14 -14s-6 -14 -14 -14zM750 736h-750c-8 0 -14 6 -14 14s6 14 14 14h750c8 0 14 -6 14 -14s-6 -14 -14 -14zM750 486h-750
c-8 0 -14 6 -14 14s6 14 14 14h750c8 0 14 -6 14 -14s-6 -14 -14 -14zM750 236h-750c-8 0 -14 6 -14 14s6 14 14 14h750c8 0 14 -6 14 -14s-6 -14 -14 -14z" />
    <glyph glyph-name="uE01B" unicode="&#xe01b;" horiz-adv-x="750" 
d="M750 1111h-750c-8 0 -14 6 -14 14s6 14 14 14h750c8 0 14 -6 14 -14s-6 -14 -14 -14zM750 -139h-750c-8 0 -14 6 -14 14s6 14 14 14h750c8 0 14 -6 14 -14s-6 -14 -14 -14zM750 861h-750c-8 0 -14 6 -14 14s6 14 14 14h750c8 0 14 -6 14 -14s-6 -14 -14 -14zM750 611
h-750c-8 0 -14 6 -14 14s6 14 14 14h750c8 0 14 -6 14 -14s-6 -14 -14 -14zM750 361h-750c-8 0 -14 6 -14 14s6 14 14 14h750c8 0 14 -6 14 -14s-6 -14 -14 -14zM750 111h-750c-8 0 -14 6 -14 14s6 14 14 14h750c8 0 14 -6 14 -14s-6 -14 -14 -14z" />
    <glyph glyph-name="uE01C" unicode="&#xe01c;" horiz-adv-x="250" 
d="M250 486h-250c-8 0 -14 6 -14 14s6 14 14 14h250c8 0 14 -6 14 -14s-6 -14 -14 -14z" />
    <glyph glyph-name="uE01D" unicode="&#xe01d;" horiz-adv-x="250" 
d="M250 611h-250c-8 0 -14 6 -14 14s6 14 14 14h250c8 0 14 -6 14 -14s-6 -14 -14 -14zM250 361h-250c-8 0 -14 6 -14 14s6 14 14 14h250c8 0 14 -6 14 -14s-6 -14 -14 -14z" />
    <glyph glyph-name="uE01E" unicode="&#xe01e;" horiz-adv-x="250" 
d="M250 736h-250c-8 0 -14 6 -14 14s6 14 14 14h250c8 0 14 -6 14 -14s-6 -14 -14 -14zM250 486h-250c-8 0 -14 6 -14 14s6 14 14 14h250c8 0 14 -6 14 -14s-6 -14 -14 -14zM250 236h-250c-8 0 -14 6 -14 14s6 14 14 14h250c8 0 14 -6 14 -14s-6 -14 -14 -14z" />
    <glyph glyph-name="uE01F" unicode="&#xe01f;" horiz-adv-x="250" 
d="M250 861h-250c-8 0 -14 6 -14 14s6 14 14 14h250c8 0 14 -6 14 -14s-6 -14 -14 -14zM250 611h-250c-8 0 -14 6 -14 14s6 14 14 14h250c8 0 14 -6 14 -14s-6 -14 -14 -14zM250 361h-250c-8 0 -14 6 -14 14s6 14 14 14h250c8 0 14 -6 14 -14s-6 -14 -14 -14zM250 111h-250
c-8 0 -14 6 -14 14s6 14 14 14h250c8 0 14 -6 14 -14s-6 -14 -14 -14z" />
    <glyph glyph-name="uE020" unicode="&#xe020;" horiz-adv-x="250" 
d="M250 -14h-250c-8 0 -14 6 -14 14s6 14 14 14h250c8 0 14 -6 14 -14s-6 -14 -14 -14zM250 986h-250c-8 0 -14 6 -14 14s6 14 14 14h250c8 0 14 -6 14 -14s-6 -14 -14 -14zM250 736h-250c-8 0 -14 6 -14 14s6 14 14 14h250c8 0 14 -6 14 -14s-6 -14 -14 -14zM250 486h-250
c-8 0 -14 6 -14 14s6 14 14 14h250c8 0 14 -6 14 -14s-6 -14 -14 -14zM250 236h-250c-8 0 -14 6 -14 14s6 14 14 14h250c8 0 14 -6 14 -14s-6 -14 -14 -14z" />
    <glyph glyph-name="uE021" unicode="&#xe021;" horiz-adv-x="250" 
d="M250 1111h-250c-8 0 -14 6 -14 14s6 14 14 14h250c8 0 14 -6 14 -14s-6 -14 -14 -14zM250 -139h-250c-8 0 -14 6 -14 14s6 14 14 14h250c8 0 14 -6 14 -14s-6 -14 -14 -14zM250 861h-250c-8 0 -14 6 -14 14s6 14 14 14h250c8 0 14 -6 14 -14s-6 -14 -14 -14zM250 611
h-250c-8 0 -14 6 -14 14s6 14 14 14h250c8 0 14 -6 14 -14s-6 -14 -14 -14zM250 361h-250c-8 0 -14 6 -14 14s6 14 14 14h250c8 0 14 -6 14 -14s-6 -14 -14 -14zM250 111h-250c-8 0 -14 6 -14 14s6 14 14 14h250c8 0 14 -6 14 -14s-6 -14 -14 -14z" />
    <glyph glyph-name="uE022" unicode="&#xe022;" horiz-adv-x="332" 
d="M384 -28h-436c-15 0 -28 13 -28 28s13 28 28 28h436c15 0 28 -13 28 -28s-13 -28 -28 -28z" />
    <glyph glyph-name="uE023" unicode="&#xe023;" horiz-adv-x="532" 
d="M584 -28h-636c-15 0 -28 13 -28 28s13 28 28 28h636c15 0 28 -13 28 -28s-13 -28 -28 -28z" />
    <glyph glyph-name="uE024" unicode="&#xe024;" horiz-adv-x="132" 
d="M184 -28h-236c-15 0 -28 13 -28 28s13 28 28 28h236c15 0 28 -13 28 -28s-13 -28 -28 -28z" />
    <glyph glyph-name="uE030" unicode="&#xe030;" horiz-adv-x="47" 
d="M0 1000c0 8 6 14 14 14h19c8 0 14 -6 14 -14v-1000c0 -8 -6 -14 -14 -14h-19c-8 0 -14 6 -14 14v1000z" />
    <glyph glyph-name="uE031" unicode="&#xe031;" horiz-adv-x="170" 
d="M47 1014v-1028h-33c-8 0 -14 6 -14 14v1000c0 8 6 14 14 14h33zM123 1014h33c8 0 14 -6 14 -14v-1000c0 -8 -6 -14 -14 -14h-33v1028z" />
    <glyph glyph-name="uE032" unicode="&#xe032;" horiz-adv-x="270" 
d="M47 1014v-1028h-33c-8 0 -14 6 -14 14v1000c0 8 6 14 14 14h33zM123 1014h133c8 0 14 -6 14 -14v-1000c0 -8 -6 -14 -14 -14h-133v1028z" />
    <glyph glyph-name="uE033" unicode="&#xe033;" horiz-adv-x="270" 
d="M223 1014h33c8 0 14 -6 14 -14v-1000c0 -8 -6 -14 -14 -14h-33v1028zM147 1014v-1028h-133c-8 0 -14 6 -14 14v1000c0 8 6 14 14 14h133z" />
    <glyph glyph-name="uE034" unicode="&#xe034;" horiz-adv-x="147" 
d="M14 -14c-8 0 -14 6 -14 14v1000c0 8 6 14 14 14h119c8 0 14 -6 14 -14v-1000c0 -8 -6 -14 -14 -14h-119z" />
    <glyph glyph-name="uE035" unicode="&#xe035;" horiz-adv-x="370" 
d="M223 1014h133c8 0 14 -6 14 -14v-1000c0 -8 -6 -14 -14 -14h-133v1028zM147 1014v-1028h-133c-8 0 -14 6 -14 14v1000c0 8 6 14 14 14h133z" />
    <glyph glyph-name="uE036" unicode="&#xe036;" horiz-adv-x="47" 
d="M0 0v51c-0 13 11 24 24 24s23 -11 23 -24v-51c0 -13 -10 -23 -23 -23s-24 10 -24 23zM0 198v103c0 13 11 24 24 24s23 -11 23 -24v-103c0 -13 -10 -23 -23 -23s-24 10 -24 23zM0 948v52c0 13 11 24 24 24s23 -11 23 -24v-52c0 -13 -10 -23 -23 -23s-24 10 -24 23zM0 698
v103c0 13 11 24 24 24s23 -11 23 -24v-103c0 -13 -10 -23 -23 -23s-24 10 -24 23zM0 448v103c0 13 11 24 24 24s23 -11 23 -24v-103c0 -13 -10 -23 -23 -23s-24 10 -24 23z" />
    <glyph glyph-name="uE037" unicode="&#xe037;" horiz-adv-x="113" 
d="M0 125c0 31 25 56 56 56s57 -25 57 -56s-26 -57 -57 -57s-56 26 -56 57zM0 375c0 31 25 56 56 56s57 -25 57 -56s-26 -57 -57 -57s-56 26 -56 57zM0 875c0 31 25 56 56 56s57 -25 57 -56s-26 -57 -57 -57s-56 26 -56 57zM0 625c0 31 25 56 56 56s57 -25 57 -56
s-26 -57 -57 -57s-56 26 -56 57z" />
    <glyph glyph-name="uE038" unicode="&#xe038;" horiz-adv-x="47" 
d="M0 1000c-0 8 6 14 14 14h19c8 0 14 -6 14 -14v-500c0 -8 -6 -14 -14 -14h-19c-8 0 -14 6 -14 14v500z" />
    <glyph glyph-name="uE039" unicode="&#xe039;" horiz-adv-x="28" 
d="M0 1125c-0 8 6 14 14 14s14 -6 14 -14v-250c0 -8 -6 -14 -14 -14s-14 6 -14 14v250z" />
    <glyph glyph-name="uE040" unicode="&#xe040;" horiz-adv-x="459" 
d="M346 625c0 31 25 57 56 57s57 -26 57 -57s-26 -56 -57 -56s-56 25 -56 56zM346 375c0 31 25 57 56 57s57 -26 57 -57s-26 -56 -57 -56s-56 25 -56 56zM223 1014h33c8 0 14 -6 14 -14v-1000c0 -8 -6 -14 -14 -14h-33v1028zM147 1014v-1028h-133c-8 0 -14 6 -14 14v1000
c0 8 6 14 14 14h133z" />
    <glyph glyph-name="uE041" unicode="&#xe041;" horiz-adv-x="459" 
d="M0 625c0 31 25 57 56 57s57 -26 57 -57s-26 -56 -57 -56s-56 25 -56 56zM0 375c0 31 25 57 56 57s57 -26 57 -57s-26 -56 -57 -56s-56 25 -56 56zM236 1014v-1028h-33c-8 0 -14 6 -14 14v1000c0 8 6 14 14 14h33zM312 1014h133c8 0 14 -6 14 -14v-1000
c0 -8 -6 -14 -14 -14h-133v1028z" />
    <glyph glyph-name="uE042" unicode="&#xe042;" horiz-adv-x="771" 
d="M658 625c0 31 25 57 56 57s57 -26 57 -57s-26 -56 -57 -56s-56 25 -56 56zM658 375c0 31 25 57 56 57s57 -26 57 -57s-26 -56 -57 -56s-56 25 -56 56zM535 1014h33c8 0 14 -6 14 -14v-1000c0 -8 -6 -14 -14 -14h-33v1028zM459 1014v-1028h-147v1028h147zM0 625
c0 31 25 57 56 57s57 -26 57 -57s-26 -56 -57 -56s-56 25 -56 56zM0 375c0 31 25 57 56 57s57 -26 57 -57s-26 -56 -57 -56s-56 25 -56 56zM236 1014v-1028h-33c-8 0 -14 6 -14 14v1000c0 8 6 14 14 14h33z" />
    <glyph glyph-name="uE043" unicode="&#xe043;" horiz-adv-x="113" 
d="M0 625c0 31 25 57 56 57s57 -26 57 -57s-26 -56 -57 -56s-56 25 -56 56zM0 375c0 31 25 57 56 57s57 -26 57 -57s-26 -56 -57 -56s-56 25 -56 56z" />
    <glyph glyph-name="uE044" unicode="&#xe044;" horiz-adv-x="113" 
d="M0 125c0 31 25 57 56 57s57 -26 57 -57s-26 -56 -57 -56s-56 25 -56 56z" />
    <glyph glyph-name="uE045" unicode="&#xe045;" horiz-adv-x="878" 
d="M798 40c0 22 18 40 40 40s40 -18 40 -40s-18 -40 -40 -40s-40 18 -40 40zM372 40c0 22 18 40 40 40s40 -18 40 -40s-18 -40 -40 -40s-40 18 -40 40zM60 70v270c0 37 -3 40 -60 40v25h179c123 0 210 -45 210 -200s-87 -200 -210 -200h-179v25c57 0 60 3 60 40zM121 70
c0 -37 3 -40 46 -40c112 0 142 58 142 175s-30 175 -142 175c-43 0 -46 -3 -46 -40v-270zM637 175c-77 18 -139 37 -139 121c0 64 40 114 122 114c50 0 70 -14 101 -37l23 32h25v-144h-25c-17 79 -64 124 -124 124c-47 0 -78 -27 -78 -65c0 -37 28 -54 95 -70
c77 -18 150 -34 150 -132c0 -77 -52 -118 -135 -118c-50 0 -80 13 -116 42l-24 -37h-25v158h25c15 -89 72 -138 140 -138c54 0 91 33 91 75c0 51 -39 59 -106 75z" />
    <glyph glyph-name="uE046" unicode="&#xe046;" horiz-adv-x="878" 
d="M798 40c0 22 18 40 40 40s40 -18 40 -40s-18 -40 -40 -40s-40 18 -40 40zM372 40c0 22 18 40 40 40s40 -18 40 -40s-18 -40 -40 -40s-40 18 -40 40zM60 70v270c0 37 -3 40 -60 40v25h179c123 0 210 -45 210 -200s-87 -200 -210 -200h-179v25c57 0 60 3 60 40zM121 70
c0 -37 3 -40 46 -40c112 0 142 58 142 175c0 116 -30 175 -142 175c-43 0 -46 -3 -46 -40v-270zM656 25c60 0 107 37 124 120h25c-17 -100 -74 -145 -149 -145c-115 0 -194 50 -194 205s79 205 194 205c45 0 70 -14 101 -37l23 32h25v-144h-25c-17 79 -64 124 -124 124
c-73 0 -114 -64 -114 -180c0 -117 41 -180 114 -180z" />
    <glyph glyph-name="uE047" unicode="&#xe047;" 
d="M384 430c0 18 15 33 33 33s33 -15 33 -33s-15 -33 -33 -33s-33 15 -33 33zM50 320c0 18 15 33 33 33s33 -15 33 -33s-15 -33 -33 -33s-33 15 -33 33zM497 721l-194 -314c97 -59 197 -148 197 -251c0 -86 -62 -156 -144 -156c-79 0 -147 68 -147 148c0 33 27 60 60 60
s60 -27 60 -60c0 -22 0 -52 -40 -73c8 -28 34 -45 67 -45c38 0 66 36 66 76c0 91 -79 154 -173 208l-193 -310c-6 -9 -16 -17 -28 -17c-16 0 -28 13 -28 29c0 5 1 9 3 13l193 315c-97 58 -196 147 -196 250c0 86 62 156 144 156c79 0 147 -68 147 -148
c0 -33 -27 -60 -60 -60s-60 27 -60 60c0 22 0 52 40 73c-8 28 -34 45 -67 45c-38 0 -66 -36 -66 -76c0 -92 79 -154 174 -208l192 310c6 9 16 17 28 17c16 0 28 -13 28 -29c0 -5 -1 -9 -3 -13z" />
    <glyph glyph-name="uE048" unicode="&#xe048;" horiz-adv-x="546" 
d="M258 265v205c-65 0 -78 -118 -78 -205h78zM258 235h-78c0 -87 13 -205 78 -205v205zM288 265h78c0 87 -13 205 -78 205v-205zM288 235v-205c65 0 78 118 78 205h-78zM15 235c-8 0 -15 7 -15 15s7 15 15 15h85c0 116 66 235 158 235v85c0 8 7 15 15 15s15 -7 15 -15v-85
c92 0 158 -119 158 -235h85c8 0 15 -7 15 -15s-7 -15 -15 -15h-85c0 -116 -66 -235 -158 -235v-85c0 -8 -7 -15 -15 -15s-15 7 -15 15v85c-92 0 -158 119 -158 235h-85z" />
    <glyph glyph-name="uE049" unicode="&#xe049;" horiz-adv-x="546" 
d="M190 30h68v205h-78v-195c0 -6 4 -10 10 -10zM180 460v-195h78v205h-68c-6 0 -10 -4 -10 -10zM115 0c-8 0 -15 7 -15 15v220h-85c-8 0 -15 7 -15 15s7 15 15 15h85v220c0 8 7 15 15 15h143v85c0 8 7 15 15 15s15 -7 15 -15v-85h143c8 0 15 -7 15 -15v-220h85
c8 0 15 -7 15 -15s-7 -15 -15 -15h-85v-220c0 -8 -7 -15 -15 -15h-143v-85c0 -8 -7 -15 -15 -15s-15 7 -15 15v85h-143zM366 265v195c0 6 -4 10 -10 10h-68v-205h78zM288 30h68c6 0 10 4 10 10v195h-78v-205z" />
    <glyph glyph-name="uE04A" unicode="&#xe04a;" horiz-adv-x="420" 
d="M290 272c30 -22 46 -22 65 -22s38 15 38 36c0 36 -56 74 -104 108l-159 114c-30 22 -46 22 -65 22s-38 -16 -38 -37c0 -36 56 -74 104 -108zM290 492c30 -22 46 -22 65 -22s38 16 38 37c0 36 -56 74 -104 108l-159 114c-30 22 -46 22 -65 22s-38 -16 -38 -37
c0 -36 56 -74 104 -108zM60 778c-41 29 -60 73 -60 123c0 45 47 113 187 113s203 -66 203 -146c0 -33 -27 -60 -60 -60s-60 27 -60 60c0 22 0 52 40 73c-10 28 -58 45 -123 45c-95 0 -124 -31 -124 -71c0 -36 20 -53 68 -87l229 -163c41 -29 60 -78 60 -123
c0 -46 -28 -82 -60 -99c41 -29 60 -78 60 -123s-28 -81 -60 -98c41 -29 60 -73 60 -123c0 -45 -47 -113 -187 -113s-203 66 -203 146c0 33 27 60 60 60s60 -27 60 -60c0 -22 0 -52 -40 -73c10 -28 58 -45 123 -45c95 0 124 31 124 71c0 36 -20 53 -68 87l-229 163
c-41 29 -60 78 -60 123s28 82 60 99c-41 29 -60 78 -60 123s28 81 60 98z" />
    <glyph glyph-name="uE04B" unicode="&#xe04b;" horiz-adv-x="420" 
d="M60 778c-41 29 -60 73 -60 123c0 45 47 113 187 113s203 -66 203 -146c0 -33 -27 -60 -60 -60s-60 27 -60 60c0 22 0 52 40 73c-10 28 -58 45 -123 45c-95 0 -124 -31 -124 -71c0 -36 20 -53 68 -87l29 -21v18c0 8 7 15 15 15s15 -7 15 -15v-39l40 -28v67c0 8 7 15 15 15
s15 -7 15 -15v-89l100 -71c41 -29 60 -78 60 -123c0 -46 -28 -82 -60 -99c41 -29 60 -78 60 -123s-28 -81 -60 -98c41 -29 60 -73 60 -123c0 -45 -47 -113 -187 -113s-203 66 -203 146c0 33 27 60 60 60s60 -27 60 -60c0 -22 0 -52 -40 -73c10 -28 58 -45 123 -45
c95 0 124 31 124 71c0 36 -20 53 -68 87l-29 21v-18c0 -8 -7 -15 -15 -15s-15 7 -15 15v39l-40 28v-67c0 -8 -7 -15 -15 -15s-15 7 -15 15v89l-100 71c-41 29 -60 78 -60 123s28 82 60 99c-41 29 -60 78 -60 123s28 81 60 98zM290 492c30 -22 46 -22 65 -22s38 16 38 37
c0 36 -56 74 -104 108l-29 21v-122zM290 272c30 -22 46 -22 65 -22s38 15 38 36c0 36 -56 74 -104 108l-29 21v-122zM190 465v-122l40 -28v121zM190 686v-122l40 -29v122zM160 486l-30 22c-30 22 -46 22 -65 22s-38 -16 -38 -37c0 -36 56 -74 104 -108l29 -21v122zM160 707
l-30 22c-30 22 -46 22 -65 22s-38 -16 -38 -37c0 -36 56 -74 104 -108l29 -21v122z" />
    <glyph glyph-name="uE04C" unicode="&#xe04c;" horiz-adv-x="459" 
d="M346 625c0 31 25 57 56 57s57 -26 57 -57s-26 -56 -57 -56s-56 25 -56 56zM346 375c0 31 25 57 56 57s57 -26 57 -57s-26 -56 -57 -56s-56 25 -56 56zM223 889h33c8 0 14 -6 14 -14v-750c0 -8 -6 -14 -14 -14h-33v778zM147 889v-778h-133c-8 0 -14 6 -14 14v750
c0 8 6 14 14 14h133z" />
    <glyph glyph-name="uE04D" unicode="&#xe04d;" horiz-adv-x="459" 
d="M0 625c0 31 25 57 56 57s57 -26 57 -57s-26 -56 -57 -56s-56 25 -56 56zM0 375c0 31 25 57 56 57s57 -26 57 -57s-26 -56 -57 -56s-56 25 -56 56zM236 889v-778h-33c-8 0 -14 6 -14 14v750c0 8 6 14 14 14h33zM312 889h133c8 0 14 -6 14 -14v-750c0 -8 -6 -14 -14 -14
h-133v778z" />
    <glyph glyph-name="uE04E" unicode="&#xe04e;" horiz-adv-x="960" 
d="M660 0c0 -94 44 -140 110 -140s110 46 110 140s-44 140 -110 140s-110 -46 -110 -140zM580 0c0 105 85 190 190 190s190 -85 190 -190s-85 -190 -190 -190s-190 85 -190 190zM80 0c0 -94 44 -140 110 -140s110 46 110 140s-44 140 -110 140s-110 -46 -110 -140zM0 0
c0 105 85 190 190 190s190 -85 190 -190s-85 -190 -190 -190s-190 85 -190 190z" />
    <glyph glyph-name="uE050" unicode="&#xe050;" horiz-adv-x="625" 
d="M303 589c125 138 146 203 146 273c0 53 -19 79 -45 79c-64 0 -116 -141 -116 -253c0 -4 5 -99 15 -99zM457 -185c44 22 83 83 83 143c0 56 -38 171 -149 171zM303 386c-131 -110 -225 -192 -225 -344c0 -139 82 -256 257 -256c47 0 71 8 82 13l-66 326
c-53 -23 -87 -68 -87 -125c0 -46 27 -89 56 -114c6 -5 16 -10 16 -17c0 -6 -2 -10 -10 -10c-7 0 -31 13 -38 18c-51 32 -99 77 -99 167c0 82 57 151 142 191zM333 413l34 -168s31 3 57 3c104 0 201 -95 201 -248c0 -85 -47 -193 -156 -227c11 -62 33 -192 33 -249
c0 -150 -108 -186 -166 -186c-130 0 -202 73 -202 141c0 94 62 135 113 135c53 0 92 -38 92 -93c0 -60 -49 -89 -94 -89c0 -26 22 -55 78 -55c70 0 138 51 138 138c0 47 -26 174 -38 241c-14 -4 -45 -9 -87 -9c-194 0 -336 166 -336 340c0 116 17 226 270 469
c-6 34 -32 182 -32 240c0 104 21 176 76 256c17 24 46 46 70 46c32 0 64 -41 77 -73c19 -50 34 -113 34 -225c0 -147 -43 -270 -162 -387z" />
    <glyph glyph-name="uE051" unicode="&#xe051;" horiz-adv-x="625" 
d="M0 87c0 116 17 226 270 469c-6 34 -32 182 -32 240c0 104 21 176 76 256c17 24 46 46 70 46c32 0 64 -41 77 -73c19 -50 34 -113 34 -225c0 -147 -43 -270 -162 -387l34 -168s31 3 57 3c104 0 201 -95 201 -248c0 -85 -47 -193 -156 -227c11 -62 33 -192 33 -249
c0 -93 -42 -142 -87 -166h88c5 0 6 -3 6 -6c0 -31 -68 -63 -164 -63l-19 -57c26 16 47 23 73 23c45 0 70 -23 70 -81c0 -78 -65 -116 -115 -116c-52 0 -93 23 -93 71c0 33 23 45 39 45c19 0 32 -13 32 -30c0 -28 -33 -24 -33 -37s17 -23 43 -23c30 0 61 30 61 93
c0 37 -10 50 -37 50c-16 0 -35 -12 -48 -19c-6 -3 -11 -7 -17 -7s-9 3 -9 8c0 1 0 3 1 5l43 124s-31 0 -48 3l-71 -208c-4 -11 -5 -20 -5 -29c0 -16 5 -26 23 -26c6 0 9 -5 9 -10s-4 -10 -12 -10h-141c-6 0 -10 4 -10 10s5 10 13 10c28 0 47 25 58 55l43 126c1 3 2 6 2 9
c0 2 -3 4 -7 4s-7 0 -10 -4l-43 -53c-5 -6 -12 -7 -17 -7c-4 0 -9 2 -9 6s2 6 7 12l110 133c-62 26 -94 74 -94 120c0 94 62 135 113 135c53 0 92 -38 92 -93c0 -60 -49 -89 -94 -89c0 -26 22 -55 78 -55c70 0 138 51 138 138c0 47 -26 174 -38 241c-14 -4 -45 -9 -87 -9
c-194 0 -336 166 -336 340zM303 386c-131 -110 -225 -192 -225 -344c0 -139 82 -256 257 -256c47 0 71 8 82 13l-66 326c-53 -23 -87 -68 -87 -125c0 -46 27 -89 56 -114c6 -5 16 -10 16 -17c0 -6 -2 -10 -10 -10c-7 0 -31 13 -38 18c-51 32 -99 77 -99 167
c0 82 57 151 142 191zM457 -185c44 22 83 83 83 143c0 56 -38 171 -149 171zM303 589c125 138 146 203 146 273c0 53 -19 79 -45 79c-64 0 -116 -141 -116 -253c0 -4 5 -99 15 -99z" />
    <glyph glyph-name="uE052" unicode="&#xe052;" horiz-adv-x="625" 
d="M0 87c0 116 17 226 270 469c-6 34 -32 182 -32 240c0 104 21 176 76 256c17 24 46 46 70 46c32 0 64 -41 77 -73c19 -50 34 -113 34 -225c0 -147 -43 -270 -162 -387l34 -168s31 3 57 3c104 0 201 -95 201 -248c0 -85 -47 -193 -156 -227c11 -62 33 -192 33 -249
c0 -111 -60 -159 -114 -177c17 -11 26 -27 26 -43c0 -43 -50 -73 -72 -82c11 -7 37 -32 37 -60c0 -62 -38 -104 -122 -104c-66 0 -91 29 -91 58c0 56 53 87 75 96c-7 9 -16 30 -16 46c0 42 20 70 51 86c-92 18 -142 78 -142 135c0 94 62 135 113 135c53 0 92 -38 92 -93
c0 -60 -49 -89 -94 -89c0 -26 22 -55 78 -55c70 0 138 51 138 138c0 47 -26 174 -38 241c-14 -4 -45 -9 -87 -9c-194 0 -336 166 -336 340zM303 386c-131 -110 -225 -192 -225 -344c0 -139 82 -256 257 -256c47 0 71 8 82 13l-66 326c-53 -23 -87 -68 -87 -125
c0 -46 27 -89 56 -114c6 -5 16 -10 16 -17c0 -6 -2 -10 -10 -10c-7 0 -31 13 -38 18c-51 32 -99 77 -99 167c0 82 57 151 142 191zM457 -185c44 22 83 83 83 143c0 56 -38 171 -149 171zM303 589c125 138 146 203 146 273c0 53 -19 79 -45 79c-64 0 -116 -141 -116 -253
c0 -4 5 -99 15 -99zM272 -712c0 -24 30 -39 48 -49c11 3 61 29 61 64c0 19 -18 35 -45 35c-30 0 -64 -22 -64 -50zM202 -880c0 -25 24 -42 57 -42c39 0 74 25 74 54c0 28 -50 52 -69 63c-11 -3 -62 -30 -62 -75z" />
    <glyph glyph-name="uE053" unicode="&#xe053;" horiz-adv-x="625" 
d="M0 87c0 116 17 226 270 469c-6 34 -32 182 -32 240c0 104 21 176 76 256c8 11 19 22 30 30c-38 9 -53 32 -53 54c0 56 53 87 75 96c-7 9 -16 30 -16 46c0 67 53 100 117 100c49 0 72 -28 72 -54c0 -43 -50 -73 -72 -82c11 -7 37 -32 37 -60c0 -51 -26 -89 -83 -100
c17 -15 32 -38 40 -57c19 -50 34 -113 34 -225c0 -147 -43 -270 -162 -387l34 -168s31 3 57 3c104 0 201 -95 201 -248c0 -85 -47 -193 -156 -227c11 -62 33 -192 33 -249c0 -150 -108 -186 -166 -186c-130 0 -202 73 -202 141c0 94 62 135 113 135c53 0 92 -38 92 -93
c0 -60 -49 -89 -94 -89c0 -26 22 -55 78 -55c70 0 138 51 138 138c0 47 -26 174 -38 241c-14 -4 -45 -9 -87 -9c-194 0 -336 166 -336 340zM303 386c-131 -110 -225 -192 -225 -344c0 -139 82 -256 257 -256c47 0 71 8 82 13l-66 326c-53 -23 -87 -68 -87 -125
c0 -46 27 -89 56 -114c6 -5 16 -10 16 -17c0 -6 -2 -10 -10 -10c-7 0 -31 13 -38 18c-51 32 -99 77 -99 167c0 82 57 151 142 191zM457 -185c44 22 83 83 83 143c0 56 -38 171 -149 171zM303 589c125 138 146 203 146 273c0 53 -19 79 -45 79c-64 0 -116 -141 -116 -253
c0 -4 5 -99 15 -99zM397 1308c0 -24 30 -39 48 -49c11 3 61 29 61 64c0 19 -18 35 -45 35c-30 0 -64 -22 -64 -50zM384 1098c39 0 74 25 74 54c0 28 -50 52 -69 63c-11 -3 -62 -30 -62 -75c0 -25 24 -42 57 -42z" />
    <glyph glyph-name="uE054" unicode="&#xe054;" horiz-adv-x="625" 
d="M0 87c0 116 17 226 270 469c-6 34 -32 182 -32 240c0 104 21 176 76 256c17 24 46 46 70 46c-15 12 -24 29 -24 51c0 33 23 45 39 45c19 0 32 -13 32 -30c0 -28 -33 -24 -33 -37s17 -23 43 -23c30 0 61 30 61 93c0 37 -10 50 -37 50c-16 0 -35 -12 -48 -19
c-6 -3 -11 -7 -17 -7s-9 3 -9 8c0 1 0 3 1 5l46 134c2 6 6 10 11 10h153c5 0 6 -3 6 -6c0 -31 -68 -63 -164 -63l-19 -57c26 16 47 23 73 23c45 0 70 -23 70 -81c0 -78 -65 -116 -115 -116c-11 0 -21 1 -31 3c17 -15 31 -37 39 -56c19 -50 34 -113 34 -225
c0 -147 -43 -270 -162 -387l34 -168s31 3 57 3c104 0 201 -95 201 -248c0 -85 -47 -193 -156 -227c11 -62 33 -192 33 -249c0 -150 -108 -186 -166 -186c-130 0 -202 73 -202 141c0 94 62 135 113 135c53 0 92 -38 92 -93c0 -60 -49 -89 -94 -89c0 -26 22 -55 78 -55
c70 0 138 51 138 138c0 47 -26 174 -38 241c-14 -4 -45 -9 -87 -9c-194 0 -336 166 -336 340zM303 386c-131 -110 -225 -192 -225 -344c0 -139 82 -256 257 -256c47 0 71 8 82 13l-66 326c-53 -23 -87 -68 -87 -125c0 -46 27 -89 56 -114c6 -5 16 -10 16 -17
c0 -6 -2 -10 -10 -10c-7 0 -31 13 -38 18c-51 32 -99 77 -99 167c0 82 57 151 142 191zM457 -185c44 22 83 83 83 143c0 56 -38 171 -149 171zM303 589c125 138 146 203 146 273c0 53 -19 79 -45 79c-64 0 -116 -141 -116 -253c0 -4 5 -99 15 -99zM180 1088c0 6 5 10 13 10
c28 0 47 25 58 55l43 126c1 3 2 6 2 9c0 2 -3 4 -7 4s-7 0 -10 -4l-43 -53c-5 -6 -12 -7 -17 -7c-4 0 -9 2 -9 6s3 6 7 12l104 126c3 4 6 6 10 6h52c5 0 7 -3 7 -6c0 -2 -1 -7 -2 -9l-72 -210c-4 -11 -5 -20 -5 -29c0 -16 5 -26 23 -26c6 0 9 -5 9 -10s-4 -10 -12 -10h-141
c-6 0 -10 4 -10 10z" />
    <glyph glyph-name="uE055" unicode="&#xe055;" horiz-adv-x="966" 
d="M602 -105c-13 -29 -32 -57 -58 -80c36 -18 80 -29 132 -29c47 0 71 8 82 13l-66 326c-32 -14 -57 -36 -72 -64c4 -19 5 -40 5 -61c0 -18 -2 -38 -7 -57c11 -23 27 -43 43 -57c6 -5 16 -10 16 -17c0 -6 -2 -10 -10 -10c-7 0 -31 13 -38 18zM510 -208
c-13 -8 -26 -14 -41 -19c9 -49 25 -143 31 -207c23 33 57 48 88 48c53 0 92 -38 92 -93c0 -60 -49 -89 -94 -89c0 -26 22 -55 78 -55c70 0 138 51 138 138c0 47 -26 174 -38 241c-14 -4 -45 -9 -87 -9c-61 0 -119 17 -167 45zM798 -185c44 22 83 83 83 143
c0 56 -38 171 -149 171zM486 236c35 -13 67 -37 91 -71c24 28 57 52 95 70l-28 151c-39 -33 -125 -109 -158 -150zM431 123c-9 -32 -12 -60 -12 -81c0 -77 26 -148 78 -195c25 29 43 70 43 111c0 56 -37 148 -109 165zM78 42c0 -139 82 -256 257 -256c47 0 71 8 82 13
l-21 103c-40 55 -55 129 -55 219c-48 -24 -77 -67 -77 -121c0 -46 27 -89 56 -114c6 -5 16 -10 16 -17c0 -6 -2 -10 -10 -10c-7 0 -31 13 -38 18c-51 32 -99 77 -99 167c0 82 57 151 142 191l-28 151c-131 -110 -225 -192 -225 -344zM449 862c0 53 -19 79 -45 79
c-64 0 -116 -141 -116 -253c0 -4 4 -99 15 -99c125 138 146 203 146 273zM790 862c0 53 -19 79 -45 79c-64 0 -116 -141 -116 -253c0 -4 5 -99 15 -99c125 138 146 203 146 273zM836 800c0 -147 -43 -270 -162 -387l34 -168s31 3 57 3c104 0 201 -95 201 -248
c0 -85 -47 -193 -156 -227c11 -62 33 -192 33 -249c0 -150 -108 -186 -166 -186c-101 0 -168 44 -192 96c-33 -75 -105 -96 -149 -96c-130 0 -202 73 -202 141c0 94 62 135 113 135c53 0 92 -38 92 -93c0 -60 -49 -89 -94 -89c0 -26 22 -55 78 -55c70 0 138 51 138 138
c0 47 -26 174 -38 241c-14 -4 -45 -9 -87 -9c-194 0 -336 166 -336 340c0 116 17 226 270 469c-7 34 -32 182 -32 240c0 104 21 176 76 256c17 24 46 46 70 46c32 0 64 -41 77 -73c19 -50 34 -113 34 -225c0 -147 -43 -270 -162 -387l34 -168c32 78 100 173 244 311
c-6 34 -32 182 -32 240c0 104 21 176 76 256c17 24 46 46 70 46c32 0 64 -41 77 -73c19 -50 34 -113 34 -225z" />
    <glyph glyph-name="uE056" unicode="&#xe056;" horiz-adv-x="819" 
d="M270 565h-148c-8 0 -15 7 -15 15c0 4 2 7 4 10l73 84c8 9 10 11 25 11h40c-6 43 -11 86 -11 111c0 104 21 176 76 256c17 24 46 46 70 46c32 0 64 -41 77 -73c19 -50 34 -113 34 -225c0 -40 -4 -79 -11 -115h195v443c0 35 33 65 81 65c38 0 59 -26 59 -68
c0 -40 -28 -57 -56 -57c-19 0 -35 10 -44 19v-508c0 -8 -6 -14 -14 -14h-260c-16 -38 -46 -82 -92 -130h352c8 0 14 -6 14 -14v-508c9 9 25 19 44 19c28 0 56 -17 56 -57c0 -42 -21 -68 -59 -68c-48 0 -81 30 -81 65v443h-326l14 -70s31 3 57 3c104 0 201 -95 201 -248
c0 -85 -47 -193 -156 -227c11 -62 33 -192 33 -249c0 -150 -108 -186 -166 -186c-130 0 -202 73 -202 141c0 94 62 135 113 135c53 0 92 -38 92 -93c0 -60 -49 -89 -94 -89c0 -26 22 -55 78 -55c70 0 138 51 138 138c0 47 -26 174 -38 241c-14 -4 -45 -9 -87 -9
c-194 0 -336 166 -336 340c0 116 17 228 270 478zM221 315c-86 -79 -143 -155 -143 -273c0 -139 82 -256 257 -256c47 0 71 8 82 13l-66 326c-53 -23 -87 -68 -87 -125c0 -46 27 -89 56 -114c6 -5 16 -10 16 -17c0 -6 -2 -10 -10 -10c-7 0 -31 13 -38 18
c-51 32 -99 77 -99 167c0 82 57 151 142 191l-15 80h-95zM457 -185c44 22 83 83 83 143c0 56 -38 171 -149 171zM382 685c47 70 67 115 67 177c0 53 -19 79 -45 79c-64 0 -116 -144 -116 -256h94z" />
    <glyph glyph-name="uE057" unicode="&#xe057;" horiz-adv-x="625" 
d="M0 87c0 116 17 226 270 469c-6 34 -32 182 -32 240c0 104 21 176 76 256c17 24 46 46 70 46c32 0 64 -41 77 -73c19 -50 34 -113 34 -225c0 -147 -43 -270 -162 -387l34 -168s31 3 57 3c104 0 201 -95 201 -248c0 -85 -47 -193 -156 -227c11 -62 33 -192 33 -249
c0 -72 -25 -118 -57 -146c27 -49 47 -93 47 -143c0 -110 -74 -160 -132 -194c-2 -1 -5 -3 -7 -3c-6 0 -8 5 -8 9c0 3 2 6 4 7c58 34 107 114 107 218c0 31 -7 63 -25 96c-14 -11 -43 -21 -43 -21c17 -11 26 -27 26 -43c0 -43 -50 -73 -72 -82c11 -7 37 -32 37 -60
c0 -62 -38 -104 -122 -104c-66 0 -91 29 -91 58c0 56 53 87 75 96c-7 9 -16 30 -16 46c0 42 20 70 51 86c0 0 -34 7 -48 14c-55 -36 -99 -114 -99 -213c0 -31 5 -59 23 -92c1 -1 2 -4 2 -8s-5 -7 -9 -7s-7 3 -9 7c-24 46 -43 87 -43 137c0 101 62 151 117 185
c-50 28 -76 71 -76 112c0 94 62 135 113 135c53 0 92 -38 92 -93c0 -60 -49 -89 -94 -89c0 -26 22 -55 78 -55c70 0 138 51 138 138c0 47 -26 174 -38 241c-14 -4 -45 -9 -87 -9c-194 0 -336 166 -336 340zM303 386c-131 -110 -225 -192 -225 -344c0 -139 82 -256 257 -256
c47 0 71 8 82 13l-66 326c-53 -23 -87 -68 -87 -125c0 -46 27 -89 56 -114c6 -5 16 -10 16 -17c0 -6 -2 -10 -10 -10c-7 0 -31 13 -38 18c-51 32 -99 77 -99 167c0 82 57 151 142 191zM457 -185c44 22 83 83 83 143c0 56 -38 171 -149 171zM303 589c125 138 146 203 146 273
c0 53 -19 79 -45 79c-64 0 -116 -141 -116 -253c0 -4 5 -99 15 -99zM272 -712c0 -24 30 -39 48 -49c11 3 61 29 61 64c0 19 -18 35 -45 35c-30 0 -64 -22 -64 -50zM202 -880c0 -25 24 -42 57 -42c39 0 74 25 74 54c0 28 -50 52 -69 63c-11 -3 -62 -30 -62 -75z" />
    <glyph glyph-name="uE058" unicode="&#xe058;" horiz-adv-x="625" 
d="M303 589c125 138 146 203 146 273c0 53 -19 79 -45 79c-64 0 -116 -141 -116 -253c0 -4 5 -99 15 -99zM457 -185c44 22 83 83 83 143c0 56 -38 171 -149 171zM303 386c-131 -110 -225 -192 -225 -344c0 -139 82 -256 257 -256c47 0 71 8 82 13l-66 326
c-53 -23 -87 -68 -87 -125c0 -46 27 -89 56 -114c6 -5 16 -10 16 -17c0 -6 -2 -10 -10 -10c-7 0 -31 13 -38 18c-51 32 -99 77 -99 167c0 82 57 151 142 191zM336 -662h-139v14h111c87 0 153 51 153 163c0 47 -26 174 -38 241c-14 -4 -45 -9 -87 -9
c-194 0 -336 166 -336 340c0 116 17 226 270 469c-6 34 -32 182 -32 240c0 104 21 176 76 256c17 24 46 46 70 46c32 0 64 -41 77 -73c19 -50 34 -113 34 -225c0 -147 -43 -270 -162 -387l34 -168s31 3 57 3c104 0 201 -95 201 -248c0 -85 -47 -193 -156 -227
c11 -62 33 -192 33 -249c0 -152 -98 -186 -166 -186z" />
    <glyph glyph-name="uE059" unicode="&#xe059;" horiz-adv-x="625" 
d="M0 87c0 116 17 226 270 469c-6 34 -32 182 -32 240c0 104 21 176 76 256c17 24 46 46 70 46c29 0 52 -19 52 -42c0 -12 -2 -18 -2 -18l-24 -91c-1 -4 -2 -6 -6 -6c-64 0 -116 -141 -116 -253c0 -4 5 -99 15 -99c117 130 141 192 145 251c0 5 5 8 23 8c19 0 24 -3 24 -8
c0 -220 -45 -301 -162 -427l34 -168s31 3 57 3c104 0 201 -95 201 -248c0 -85 -47 -193 -156 -227c11 -62 33 -192 33 -249c0 -150 -108 -186 -166 -186c-130 0 -202 73 -202 141c0 94 62 135 113 135c53 0 92 -38 92 -93c0 -60 -49 -89 -94 -89c0 -26 22 -55 78 -55
c70 0 138 51 138 138c0 47 -26 174 -38 241c-14 -4 -45 -9 -87 -9c-194 0 -336 166 -336 340zM457 -185c44 22 83 83 83 143c0 56 -38 171 -149 171zM303 386c-131 -110 -225 -192 -225 -344c0 -139 82 -256 257 -256c47 0 71 8 82 13l-66 326c-53 -23 -87 -68 -87 -125
c0 -46 27 -89 56 -114c6 -5 16 -10 16 -17c0 -6 -2 -10 -10 -10c-7 0 -31 13 -38 18c-51 32 -99 77 -99 167c0 82 57 151 142 191z" />
    <glyph glyph-name="uE05A" unicode="&#xe05a;" horiz-adv-x="625" 
d="M431 970c0 9 4 12 12 12c19 0 52 -65 52 -182c0 -147 -43 -270 -162 -387l34 -168s31 3 57 3c104 0 201 -95 201 -248c0 -85 -47 -193 -156 -227c11 -62 33 -192 33 -249c0 -150 -108 -186 -166 -186c-130 0 -202 73 -202 141c0 94 62 135 113 135c53 0 92 -38 92 -93
c0 -60 -49 -89 -94 -89c0 -26 22 -55 78 -55c70 0 138 51 138 138c0 47 -26 174 -38 241c-14 -4 -45 -9 -87 -9c-194 0 -336 166 -336 340c0 116 17 226 270 469l-75 397l-112 -22c38 65 67 193 74 261c1 6 5 8 10 8c3 0 6 -1 8 -5c32 -60 106 -167 166 -213l-112 -22
l74 -371c125 138 146 203 146 273c0 55 -18 96 -18 108zM457 -185c44 22 83 83 83 143c0 56 -38 171 -149 171zM303 386c-131 -110 -225 -192 -225 -344c0 -139 82 -256 257 -256c47 0 71 8 82 13l-66 326c-53 -23 -87 -68 -87 -125c0 -46 27 -89 56 -114
c6 -5 16 -10 16 -17c0 -6 -2 -10 -10 -10c-7 0 -31 13 -38 18c-51 32 -99 77 -99 167c0 82 57 151 142 191z" />
    <glyph glyph-name="uE05B" unicode="&#xe05b;" horiz-adv-x="625" 
d="M303 589c125 138 146 203 146 273c0 53 -19 79 -45 79c-64 0 -116 -141 -116 -253c0 -4 5 -99 15 -99zM457 -185c44 22 83 83 83 143c0 56 -38 171 -149 171zM303 386c-131 -110 -225 -192 -225 -344c0 -139 82 -256 257 -256c47 0 71 8 82 13l-66 326
c-53 -23 -87 -68 -87 -125c0 -46 27 -89 56 -114c6 -5 16 -10 16 -17c0 -6 -2 -10 -10 -10c-7 0 -31 13 -38 18c-51 32 -99 77 -99 167c0 82 57 151 142 191zM509 -478l112 22c-38 -65 -67 -193 -74 -261c-1 -6 -5 -8 -10 -8c-3 0 -6 1 -8 5c-32 60 -106 167 -166 213
l112 22l-52 241c-14 -4 -45 -9 -87 -9c-194 0 -336 166 -336 340c0 116 17 226 270 469c-6 34 -32 182 -32 240c0 104 21 176 76 256c17 24 46 46 70 46c32 0 64 -41 77 -73c19 -50 34 -113 34 -225c0 -147 -43 -270 -162 -387l34 -168s31 3 57 3c104 0 201 -95 201 -248
c0 -85 -47 -193 -156 -227z" />
    <glyph glyph-name="uE05C" unicode="&#xe05c;" horiz-adv-x="690" 
d="M347 0c0 -39 11 -85 36 -85c10 0 19 11 35 16c20 7 47 11 88 11c107 0 184 -110 184 -234c0 -181 -155 -213 -236 -213c-140 0 -173 94 -173 154c0 52 35 90 88 90c40 0 78 -36 78 -93c0 -28 -21 -45 -43 -55c-13 -6 -38 -13 -38 -25c0 -21 42 -25 64 -25
c120 0 136 60 136 187c0 100 -37 171 -93 171c-49 0 -106 -73 -137 -104c-13 103 -61 178 -96 178c-8 0 -16 -5 -16 -5v-468h-39v1000h39v-468s8 -5 16 -5c35 0 83 75 96 178c31 -31 88 -104 137 -104c56 0 93 71 93 171c0 127 -16 187 -136 187c-22 0 -64 -4 -64 -25
c0 -12 25 -19 38 -25c22 -10 43 -27 43 -55c0 -57 -38 -93 -78 -93c-53 0 -88 38 -88 90c0 60 33 154 173 154c81 0 236 -32 236 -213c0 -124 -77 -234 -184 -234c-41 0 -68 4 -88 11c-16 5 -25 16 -35 16c-25 0 -36 -45 -36 -85zM0 -500v1000h123v-1000h-123z" />
    <glyph glyph-name="uE05D" unicode="&#xe05d;" horiz-adv-x="690" 
d="M0 -500v1000h123v-1000h-123zM185 -500v1000h39v-468s8 -5 16 -5c35 0 83 75 96 178c31 -31 88 -104 137 -104c56 0 93 71 93 171c0 127 -16 187 -136 187c-22 0 -64 -4 -64 -25c0 -12 25 -19 38 -25c22 -10 43 -27 43 -55c0 -57 -38 -93 -78 -93c-53 0 -88 38 -88 90
c0 60 33 154 173 154c81 0 236 -32 236 -213c0 -124 -77 -234 -184 -234c-41 0 -68 4 -88 11c-16 5 -25 16 -35 16c-25 0 -36 -45 -36 -85c0 -39 11 -85 36 -85c10 0 19 11 35 16c20 7 47 11 88 11c107 0 184 -110 184 -234c0 -181 -155 -213 -236 -213c-15 0 -29 1 -42 3
c12 -10 18 -24 18 -37c0 -43 -50 -73 -72 -82c11 -7 37 -32 37 -60c0 -62 -38 -104 -122 -104c-66 0 -91 29 -91 58c0 56 53 87 75 96c-7 9 -16 30 -16 46c0 67 53 100 117 100c-61 31 -77 91 -77 134c0 52 35 90 88 90c40 0 78 -36 78 -93c0 -28 -21 -45 -43 -55
c-13 -6 -38 -13 -38 -25c0 -21 42 -25 64 -25c120 0 136 60 136 187c0 100 -37 171 -93 171c-49 0 -106 -73 -137 -104c-13 103 -61 178 -96 178c-8 0 -16 -5 -16 -5v-468h-39zM288 -555c0 -24 30 -39 48 -49c11 3 61 29 61 64c0 19 -18 35 -45 35c-30 0 -64 -22 -64 -50z
M218 -723c0 -25 24 -42 57 -42c39 0 74 25 74 54c0 28 -50 52 -69 63c-11 -3 -62 -30 -62 -75z" />
    <glyph glyph-name="uE05E" unicode="&#xe05e;" horiz-adv-x="690" 
d="M224 627v-595s8 -5 16 -5c35 0 83 75 96 178c31 -31 88 -104 137 -104c56 0 93 71 93 171c0 127 -16 187 -136 187c-22 0 -64 -4 -64 -25c0 -12 25 -19 38 -25c22 -10 43 -27 43 -55c0 -57 -38 -93 -78 -93c-53 0 -88 38 -88 90c0 60 33 154 173 154
c81 0 236 -32 236 -213c0 -124 -77 -234 -184 -234c-41 0 -68 4 -88 11c-16 5 -25 16 -35 16c-25 0 -36 -45 -36 -85c0 -39 11 -85 36 -85c10 0 19 11 35 16c20 7 47 11 88 11c107 0 184 -110 184 -234c0 -181 -155 -213 -236 -213c-140 0 -173 94 -173 154
c0 52 35 90 88 90c40 0 78 -36 78 -93c0 -28 -21 -45 -43 -55c-13 -6 -38 -13 -38 -25c0 -21 42 -25 64 -25c120 0 136 60 136 187c0 100 -37 171 -93 171c-49 0 -106 -73 -137 -104c-13 103 -61 178 -96 178c-8 0 -16 -5 -16 -5v-468h-39v1127h-112c50 57 103 177 123 242
c1 3 4 6 9 6s8 -3 9 -6c22 -65 73 -185 123 -242h-113zM0 -500v1000h123v-1000h-123z" />
    </font>
</defs>
</svg>
